<svg id="Icon" xmlns="http://www.w3.org/2000/svg" xmlns:xlink="http://www.w3.org/1999/xlink" viewBox="0 0 1000 844.57"><defs><style>.cls-1{fill:#fefefe;}.cls-2{fill:url(#linear-gradient);}.cls-3{fill:#fff;}.cls-4{fill:#c026d3;}.cls-5{fill:#86198f;}.cls-6{fill:#6b21a8;}</style><linearGradient id="linear-gradient" x1="645.07" y1="189.94" x2="404.08" y2="852.06" gradientUnits="userSpaceOnUse"><stop offset="0.18" stop-color="#a21caf"/><stop offset="0.61" stop-color="#581c87"/></linearGradient></defs><line class="cls-1" x1="981.2" y1="844.57" x2="979.02" y2="843.11"/><polygon class="cls-1" points="0 844.58 0.99 844.58 0 843.11 0 844.58"/><polygon class="cls-1" points="1000 844.58 1000 843.11 999.01 844.58 1000 844.58"/><polygon class="cls-2" points="1000 337.24 500 0 0 337.24 0.99 337.24 0.99 842.49 999.01 842.49 999.01 337.24 1000 337.24"/><path class="cls-3" d="M201.3,777.38,793,783v-634L201.3,144.16ZM513.52,183.64c72.1,0,120.58,50.55,120.58,119.75a142.27,142.27,0,0,1-3.92,33.85C620.07,378.54,591.56,402,560.35,402c-16.58,0-31.91-11.18-30.66-36.46H528C513.52,390,494.46,402,469.6,402c-24,0-44.75-19.47-44.75-52.2a99,99,0,0,1,.91-12.56c6-46.2,44.44-85.65,97.29-85.65,17.82,0,33.57,3.73,44.34,8.7l-14.09,75c-.13.68-.23,1.3-.35,1.95-5.62,30.11-.6,44.06,12.79,44.46,16,.31,33.39-15.78,40.92-44.46a123.75,123.75,0,0,0,3.83-31.37c0-60.08-36-103.17-100.28-103.17-66.72,0-122.81,52.2-124.18,134.54,0,1-.12,2-.12,3,0,69.2,45.16,111.88,106.48,111.88,23.62,0,45.58-5,62.57-14.5l6.63,17.82c-22.79,12-46,16.57-73.76,16.57-67.95,0-125.54-49.72-125.54-129.28,0-1.84.06-3.67.12-5.51C364.9,254.25,423.53,183.64,513.52,183.64Z"/><path class="cls-3" d="M453,337.24a81.76,81.76,0,0,0-.81,10.9c0,18.23,9.12,31.49,27.35,31.49,19.76,0,38.09-20.74,46.53-42.39a74.43,74.43,0,0,0,4-14l8.7-46.83a71.74,71.74,0,0,0-20.72-2.9C485,273.55,457.75,301.93,453,337.24Z"/><path class="cls-4" d="M487.83,472c27.77,0,51-4.56,73.76-16.57L555,437.64c-17,9.53-39,14.5-62.57,14.5-61.32,0-106.48-42.68-106.48-111.88,0-1,.11-2,.12-3C387.4,254.9,443.49,202.7,510.21,202.7c64.23,0,100.28,43.09,100.28,103.17a123.75,123.75,0,0,1-3.83,31.37c-7.53,28.68-24.93,44.77-40.92,44.46-13.39-.4-18.41-14.35-12.79-44.46.12-.65.22-1.27.35-1.95l14.09-75c-10.77-5-26.52-8.7-44.34-8.7-52.85,0-91.3,39.45-97.29,85.65a99,99,0,0,0-.91,12.56c0,32.73,20.72,52.2,44.75,52.2,24.86,0,43.92-12,58.43-36.46h1.66C528.44,390.82,543.77,402,560.35,402c31.21,0,59.72-23.46,69.83-64.76a142.27,142.27,0,0,0,3.92-33.85c0-69.2-48.48-119.75-120.58-119.75-90,0-148.62,70.61-151.11,153.6-.06,1.84-.12,3.67-.12,5.51C362.29,422.31,419.88,472,487.83,472ZM530.1,323.28a74.43,74.43,0,0,1-4,14c-8.44,21.65-26.77,42.39-46.53,42.39-18.23,0-27.35-13.26-27.35-31.49a81.76,81.76,0,0,1,.81-10.9c4.74-35.31,32-63.69,65.07-63.69a71.74,71.74,0,0,1,20.72,2.9Z"/><polygon class="cls-5" points="1000 337.25 1000 843.13 0 843.13 0 337.25 500 590.19 1000 337.25"/><polygon class="cls-6" points="1000 843.13 500 519.04 0 843.13 1000 843.13"/></svg>