<?xml version="1.0" standalone="no"?>
<!DOCTYPE svg PUBLIC "-//W3C//DTD SVG 20010904//EN"
 "http://www.w3.org/TR/2001/REC-SVG-20010904/DTD/svg10.dtd">
<svg version="1.0" xmlns="http://www.w3.org/2000/svg"
 width="280.000000pt" height="284.000000pt" viewBox="0 0 280.000000 284.000000"
 preserveAspectRatio="xMidYMid meet">
<metadata>
Created by potrace 1.16, written by Peter Selinger 2001-2019
</metadata>
<g transform="translate(0.000000,284.000000) scale(0.100000,-0.100000)"
fill="#000000" stroke="none">
<path d="M1240 2639 c-269 -32 -493 -137 -682 -317 -177 -170 -293 -376 -344
-612 -26 -119 -26 -373 0 -485 51 -220 148 -404 295 -558 143 -150 302 -252
482 -311 145 -47 233 -61 384 -60 510 4 947 323 1110 809 30 89 65 285 65 365
0 80 -33 266 -64 361 -92 280 -280 511 -541 663 -199 115 -480 173 -705 145z
m-219 -652 c19 -13 40 -39 48 -61 13 -33 13 -44 0 -79 -38 -110 -184 -117
-230 -12 -52 118 75 224 182 152z m54 -697 l0 -355 -125 0 -125 0 -3 345 c-1
190 0 351 3 358 3 9 34 12 127 10 l123 -3 0 -355z m345 320 c0 -22 3 -40 6
-40 3 0 22 13 42 29 93 74 301 65 374 -16 10 -10 27 -41 40 -68 22 -48 23 -61
23 -315 l0 -265 -105 0 -105 0 -5 225 c-6 245 -12 274 -65 298 -39 18 -96 14
-132 -8 -52 -31 -63 -88 -63 -322 l0 -199 -102 3 -103 3 -3 345 c-1 190 0 351
3 357 3 9 32 13 100 13 l95 0 0 -40z"/>
</g>
</svg>
