<?xml version="1.0" standalone="no"?>
<!DOCTYPE svg PUBLIC "-//W3C//DTD SVG 20010904//EN"
 "http://www.w3.org/TR/2001/REC-SVG-20010904/DTD/svg10.dtd">
<svg version="1.0" xmlns="http://www.w3.org/2000/svg"
 width="1443.000000pt" height="1557.000000pt" viewBox="0 0 1443.000000 1557.000000"
 preserveAspectRatio="xMidYMid meet">
<metadata>
Created by potrace 1.10, written by Peter Selinger 2001-2011
</metadata>
<g transform="translate(0.000000,1557.000000) scale(0.100000,-0.100000)"
fill="#942192" stroke="none">
<path d="M4927 14680 c-15 -12 -40 -20 -64 -20 -32 0 -46 -7 -73 -35 -19 -19
-44 -35 -56 -35 -16 0 -24 -8 -29 -28 -7 -33 -65 -97 -126 -139 -75 -52 -169
-167 -151 -185 8 -8 25 -2 61 20 108 67 295 128 356 116 21 -4 36 -1 44 8 88
106 121 165 128 233 4 34 1 47 -16 64 -26 26 -41 26 -74 1z m-127 -130 c14
-14 20 -33 20 -62 0 -57 -10 -69 -51 -67 -19 2 -40 0 -46 -4 -24 -15 -23 16 2
83 28 74 42 83 75 50z"/>
<path d="M3815 14498 c-2 -7 -9 -33 -15 -58 -7 -25 -16 -50 -22 -57 -15 -18
-5 -75 16 -87 15 -9 20 -7 30 9 6 11 26 35 44 52 29 29 33 37 27 66 -12 52
-34 87 -56 87 -11 0 -22 -6 -24 -12z"/>
<path d="M4039 14421 c-33 -4 -65 -13 -76 -24 -11 -9 -25 -17 -31 -17 -13 0
-15 -10 -6 -34 4 -12 11 -13 24 -6 22 12 113 15 158 5 21 -5 32 -3 32 4 0 16
50 13 80 -4 14 -7 39 -20 56 -28 45 -21 52 -77 17 -129 -14 -21 -33 -40 -43
-43 -10 -3 -36 -37 -59 -74 -22 -38 -48 -71 -56 -75 -9 -3 -23 -22 -31 -42
-39 -92 -93 -122 -128 -70 -8 14 -24 27 -35 31 -11 3 -23 16 -27 28 -4 12 -20
37 -35 55 -34 39 -44 71 -35 120 14 82 14 141 -1 146 -22 9 -22 9 -43 -40 -46
-107 -10 -261 81 -349 22 -22 50 -57 60 -78 16 -30 24 -37 37 -31 9 5 39 8 66
9 48 0 49 1 69 45 53 120 124 227 196 294 30 28 62 64 72 80 16 27 16 31 2 41
-13 10 -12 17 11 63 26 52 26 72 -2 105 -24 27 -49 21 -57 -14 -8 -36 -29 -47
-53 -27 -28 24 -104 56 -147 60 -22 3 -65 2 -96 -1z"/>
<path d="M4970 14350 c-13 -9 -13 -11 0 -20 8 -5 26 -10 39 -10 18 0 22 -4 18
-20 -5 -19 -2 -20 49 -14 42 5 58 3 72 -9 9 -8 31 -19 47 -23 67 -16 241 -123
256 -158 6 -12 26 -28 45 -35 28 -10 34 -17 34 -42 0 -40 18 -72 36 -65 9 3
17 -1 20 -12 3 -9 10 -25 15 -34 5 -10 9 -25 9 -33 0 -9 12 -28 27 -43 37 -36
81 -161 100 -280 3 -18 9 -35 14 -38 5 -3 9 -15 9 -28 0 -12 7 -31 15 -42 8
-10 15 -36 15 -56 0 -43 11 -47 40 -18 17 17 33 20 98 20 81 0 154 21 186 53
10 9 24 17 32 17 8 0 17 -8 21 -17 3 -10 12 -25 19 -33 7 -8 21 -40 31 -70 14
-42 23 -55 38 -55 21 0 22 5 9 93 -6 40 -5 42 20 42 22 0 26 4 26 30 0 17 5
30 13 31 6 0 21 3 32 6 11 2 39 6 63 6 30 1 47 8 53 20 12 21 59 23 59 2 0 -8
7 -15 15 -15 8 0 15 7 15 15 0 8 9 15 21 15 11 0 29 4 39 10 10 5 51 12 92 15
40 3 100 10 133 16 33 7 101 11 150 10 86 -2 91 -3 118 -32 29 -30 52 -30 42
0 -9 31 19 45 53 27 16 -8 49 -15 73 -15 54 0 101 -5 157 -16 44 -8 60 -19 42
-30 -12 -7 -14 -45 -2 -45 14 0 32 23 32 41 0 24 15 32 37 19 17 -9 87 -36
213 -82 30 -11 60 -24 67 -30 7 -5 17 -7 22 -4 19 12 93 -7 121 -30 15 -13 33
-24 40 -24 15 0 140 -59 160 -75 8 -7 26 -16 39 -20 26 -8 67 -49 76 -76 4
-11 13 -15 24 -12 23 6 116 -41 125 -62 3 -9 19 -21 35 -26 20 -7 32 -19 36
-37 3 -15 21 -38 39 -52 18 -13 42 -39 52 -56 11 -18 32 -54 49 -81 16 -28 38
-54 49 -59 11 -5 26 -31 36 -63 9 -30 23 -57 30 -59 19 -7 95 -86 92 -96 -1
-4 15 -28 38 -52 22 -24 40 -48 40 -53 0 -6 15 -25 33 -44 17 -18 42 -45 54
-60 13 -15 30 -27 38 -27 8 0 21 -12 28 -27 14 -26 15 -26 21 -5 8 25 23 27
50 7 11 -8 30 -15 43 -15 16 0 23 -6 23 -19 0 -28 18 -36 45 -21 47 25 127
-25 118 -74 -8 -39 35 -33 50 7 8 22 55 23 64 1 3 -8 0 -26 -7 -39 -7 -13 -9
-28 -6 -34 12 -19 34 -12 38 12 4 30 61 32 66 2 7 -33 40 -58 73 -53 17 3 34
-1 40 -8 15 -18 176 -94 199 -94 19 0 50 -25 50 -39 0 -12 70 -81 82 -81 6 0
8 10 4 24 -3 14 -2 27 2 30 10 6 72 -48 72 -62 0 -5 18 -17 41 -27 23 -11 52
-33 65 -50 13 -17 34 -37 46 -44 13 -6 31 -25 40 -41 9 -17 28 -35 42 -41 16
-7 26 -21 28 -38 3 -23 7 -26 41 -24 39 3 45 -5 25 -36 -12 -19 -5 -51 11 -51
5 0 13 9 16 20 9 27 23 16 46 -35 10 -24 26 -45 34 -49 19 -7 19 -30 0 -46
-21 -17 -14 -33 16 -40 16 -4 23 -13 22 -25 -1 -11 12 -34 28 -52 16 -19 29
-43 29 -54 0 -11 7 -31 16 -44 14 -21 14 -30 4 -55 -8 -20 -9 -34 -2 -43 5 -6
12 -28 15 -47 3 -19 9 -48 13 -63 5 -20 1 -33 -11 -47 -17 -18 -17 -21 -2 -38
15 -16 14 -24 -8 -95 -14 -43 -25 -85 -25 -93 0 -8 -12 -25 -27 -38 -19 -17
-26 -32 -25 -56 1 -46 -14 -70 -43 -70 -21 0 -25 -5 -25 -31 0 -33 -53 -109
-77 -109 -7 0 -16 -14 -20 -31 -4 -20 -14 -34 -29 -40 -18 -6 -24 -16 -24 -38
0 -16 -11 -42 -24 -58 -26 -31 -22 -60 14 -98 10 -11 28 -51 40 -90 12 -38 32
-88 45 -110 12 -22 25 -53 29 -69 4 -16 18 -42 31 -57 17 -21 25 -46 30 -97 6
-60 10 -71 31 -81 18 -8 24 -18 24 -44 0 -18 7 -43 16 -55 8 -12 14 -28 11
-35 -2 -6 2 -25 10 -40 23 -45 -8 -65 -46 -29 -10 9 -43 39 -75 66 -43 38 -56
56 -56 78 0 21 -5 28 -19 28 -11 0 -23 4 -26 10 -3 5 -19 7 -35 3 -25 -5 -35
1 -66 36 -25 28 -48 43 -73 47 -20 4 -43 12 -51 19 -8 7 -33 15 -54 18 -21 4
-48 15 -60 26 -22 20 -89 51 -111 51 -7 0 -18 -13 -25 -30 -14 -35 -32 -38
-60 -10 -49 49 -80 155 -43 148 10 -2 23 -13 29 -26 16 -32 45 -62 61 -62 17
0 17 0 -13 54 -20 35 -25 56 -21 81 6 35 -11 59 -62 85 -21 11 -26 10 -38 -6
-7 -10 -13 -24 -13 -31 0 -21 -17 -15 -79 27 -32 22 -64 40 -72 40 -7 0 -28 6
-47 13 -28 10 -36 10 -39 0 -6 -17 -43 -16 -65 1 -23 17 -23 26 1 26 11 0 48
13 84 29 51 23 74 28 106 24 48 -7 53 6 16 35 -14 12 -25 30 -25 44 0 14 -11
35 -25 48 -32 30 -32 41 1 38 44 -5 39 20 -14 70 -131 122 -242 192 -242 152
0 -20 -47 -10 -70 15 -13 14 -35 25 -48 25 -15 0 -37 13 -56 33 -17 18 -39 36
-48 40 -10 3 -18 11 -18 16 0 17 -102 91 -126 91 -45 0 -30 -21 66 -95 32 -25
69 -59 81 -76 18 -25 27 -30 50 -25 19 3 35 -1 52 -14 14 -11 32 -20 39 -20
21 0 58 -43 58 -67 0 -12 27 -45 68 -82 37 -35 81 -76 97 -91 17 -15 40 -31
51 -34 31 -9 55 -39 45 -55 -5 -7 -28 -14 -52 -16 -24 -1 -65 -6 -90 -10 l-46
-7 -42 78 c-24 44 -59 99 -79 122 -21 24 -44 55 -53 69 -9 13 -19 23 -22 21
-3 -2 -35 20 -70 48 -36 29 -109 78 -163 109 -55 32 -133 80 -175 107 -41 26
-83 48 -91 48 -9 0 -19 4 -22 8 -3 5 -57 35 -121 67 -63 32 -115 64 -115 70 0
14 93 9 122 -6 23 -12 28 -11 28 5 0 8 -21 26 -47 41 -27 14 -55 38 -65 53 -9
15 -40 65 -68 112 -29 47 -58 101 -66 120 -63 170 -90 206 -125 164 -10 -13
-9 -21 6 -47 10 -18 23 -35 28 -38 21 -14 57 -139 41 -139 -5 0 -29 24 -52 54
-53 65 -99 92 -122 71 -23 -21 -88 -42 -235 -76 -71 -17 -146 -38 -165 -46
-28 -13 -45 -14 -95 -5 -33 6 -87 9 -120 7 -53 -3 -101 2 -235 22 -19 3 -43
12 -52 21 -16 14 -18 14 -18 -1 0 -10 -5 -17 -11 -17 -17 0 -113 60 -122 76
-4 8 -27 25 -51 39 -47 28 -114 96 -154 159 -15 23 -51 68 -81 101 -53 58
-101 146 -101 185 0 10 -5 22 -12 26 -16 10 -38 -25 -38 -63 0 -33 -71 -151
-110 -183 -10 -8 -28 -33 -39 -55 -12 -22 -39 -58 -61 -79 -22 -22 -40 -43
-40 -47 0 -10 -130 -95 -200 -131 -30 -15 -71 -28 -90 -28 -20 0 -53 -9 -75
-20 -39 -20 -71 -23 -232 -23 -45 0 -72 6 -98 22 -20 11 -46 21 -58 21 -20 0
-22 -4 -19 -42 l4 -43 -169 0 c-128 0 -183 -4 -233 -17 -140 -38 -278 -103
-422 -200 -109 -74 -311 -269 -358 -346 -32 -53 -33 -53 -71 -47 -26 4 -39 3
-39 -4 0 -6 4 -11 10 -11 17 0 33 -40 21 -54 -10 -11 -25 -46 -99 -223 -38
-91 -60 -173 -77 -289 -20 -133 -19 -230 6 -376 48 -288 208 -553 429 -710
171 -121 330 -179 550 -199 243 -22 520 51 754 199 139 87 315 258 404 391 96
144 125 200 178 351 53 148 85 165 304 165 177 0 261 -21 346 -85 56 -42 59
-49 68 -143 13 -123 111 -361 209 -507 53 -79 194 -250 205 -250 4 0 25 -17
47 -37 65 -60 190 -142 291 -189 164 -78 274 -104 470 -111 122 -5 154 -2 235
16 96 23 174 46 193 59 6 4 25 12 41 18 54 19 204 125 274 193 223 216 351
533 351 867 0 119 -25 277 -55 347 -19 46 -12 75 21 88 35 13 82 -9 152 -71
l58 -51 19 -102 c10 -56 22 -107 27 -113 4 -6 44 -14 88 -18 115 -9 262 -50
360 -98 140 -70 293 -234 383 -410 100 -196 144 -430 139 -738 -3 -165 -71
-413 -159 -580 -52 -98 -140 -210 -198 -253 -54 -39 -180 -102 -252 -126 -255
-83 -400 -87 -612 -16 -58 19 -108 35 -112 35 -4 0 -36 -34 -72 -74 -96 -110
-242 -236 -348 -301 -9 -5 -49 -30 -88 -54 -364 -223 -1046 -372 -1644 -359
-139 3 -211 8 -219 16 -18 18 -46 14 -53 -8 -11 -35 5 -61 49 -80 80 -34 176
-205 176 -314 0 -70 15 -86 82 -86 27 0 105 -9 172 -19 66 -11 162 -25 211
-31 50 -6 122 -17 160 -26 39 -8 84 -14 102 -14 76 0 111 -48 93 -125 -18 -76
-13 -130 16 -165 22 -26 25 -35 16 -53 -6 -12 -13 -80 -16 -152 -3 -71 -9
-149 -12 -172 -6 -40 -5 -43 22 -54 44 -17 156 -69 184 -85 44 -26 386 -194
394 -194 4 0 24 -13 44 -29 20 -15 53 -34 72 -42 19 -7 55 -25 80 -41 25 -15
75 -45 111 -67 36 -22 72 -48 80 -57 12 -15 11 -19 -10 -33 -53 -37 -124 -108
-148 -148 -43 -74 -43 -273 0 -273 28 0 50 37 43 72 -10 52 -9 60 25 159 34
98 68 142 134 176 17 8 39 24 50 34 12 10 38 24 58 31 24 9 44 25 57 48 34 59
130 260 130 272 0 6 7 19 14 27 18 20 106 216 131 291 10 30 35 90 57 132 30
60 46 81 72 93 31 15 37 15 65 1 16 -9 37 -16 46 -16 9 0 28 -9 42 -20 34 -27
51 -25 65 5 13 29 17 30 44 11 11 -8 41 -14 69 -13 32 1 67 -6 95 -20 25 -11
58 -23 74 -27 34 -8 86 -57 86 -81 0 -14 3 -15 15 -5 8 7 15 20 15 29 0 21
-80 101 -101 101 -9 0 -26 10 -38 23 -35 36 -81 94 -81 103 0 14 -43 99 -54
106 -34 24 -35 -16 -1 -66 14 -20 25 -41 25 -45 0 -5 7 -14 16 -21 8 -8 14
-25 12 -39 -2 -21 -7 -25 -28 -22 -14 2 -55 4 -91 5 -42 1 -72 6 -84 16 -12
10 -34 14 -65 12 -26 -2 -51 1 -54 6 -3 6 -24 8 -46 5 -33 -5 -45 -1 -64 16
-26 25 -43 14 -27 -17 13 -24 -10 -59 -42 -64 -19 -3 -22 -8 -19 -44 6 -71
-34 -82 -76 -20 -22 33 -54 51 -67 38 -3 -4 3 -13 13 -22 22 -17 39 -124 22
-135 -5 -3 -10 -28 -10 -55 0 -27 -5 -61 -10 -75 -9 -23 -14 -26 -36 -21 -26
7 -26 6 -20 -31 20 -127 20 -124 -2 -130 -14 -3 -26 -21 -37 -53 -25 -74 -49
-75 -80 -3 -18 41 -39 60 -49 44 -3 -4 6 -29 19 -54 17 -31 25 -62 25 -97 0
-55 -9 -62 -33 -28 -14 20 -18 21 -27 8 -9 -14 -7 -45 6 -93 3 -10 -1 -20 -10
-23 -21 -8 -63 26 -74 61 l-10 30 -1 -30 c-2 -39 -15 -59 -34 -52 -19 7 -107
138 -107 160 0 9 -5 17 -11 17 -5 0 -9 -8 -8 -17 3 -37 -1 -43 -36 -43 -43 0
-145 44 -145 63 0 7 -11 24 -25 37 -14 13 -36 48 -50 77 -13 29 -29 53 -34 53
-16 0 -13 -16 5 -34 19 -19 10 -76 -12 -76 -21 0 -92 70 -117 115 l-22 40 -3
-33 c-3 -31 -6 -33 -30 -27 -31 8 -90 58 -114 96 -23 38 -35 43 -49 20 -14
-21 -30 -18 -67 10 -16 12 -33 16 -53 12 -24 -4 -29 -2 -30 13 -5 74 8 202 23
221 10 13 -7 167 -23 210 -6 16 -7 54 -4 89 10 85 1 114 -49 166 -33 35 -55
48 -95 58 -29 7 -65 23 -81 36 -33 29 -39 29 -78 7 -28 -16 -32 -16 -69 1 -28
12 -59 17 -104 15 -54 -2 -106 5 -257 37 -13 3 -29 18 -39 38 -11 25 -20 32
-34 29 -14 -4 -19 0 -19 15 0 21 -38 121 -52 136 -4 6 -8 20 -8 32 0 13 -5 26
-10 29 -28 17 13 23 142 21 110 -3 145 0 156 10 17 17 65 18 109 2 23 -8 36
-9 41 -2 9 12 129 37 142 29 5 -3 33 1 62 10 28 8 77 15 107 15 31 1 79 7 106
14 37 10 54 11 64 2 11 -8 17 -6 29 12 16 24 59 30 93 12 16 -9 21 -7 29 15 8
21 16 25 49 25 22 0 44 6 51 15 8 9 29 15 56 15 33 0 46 5 54 20 6 11 21 20
35 20 13 0 27 5 30 10 11 19 57 11 62 -10 3 -11 9 -21 14 -21 27 -5 34 -2 39
21 5 22 10 25 48 22 23 -2 43 0 43 5 1 4 3 21 5 37 4 41 27 60 71 61 26 1 56
13 94 38 31 20 59 37 64 37 4 0 16 11 27 25 11 14 26 25 33 25 8 0 20 9 28 20
23 32 88 73 100 61 14 -14 47 5 47 27 0 10 16 26 36 37 24 13 37 28 41 48 3
16 14 32 23 34 10 3 23 16 29 30 9 19 17 24 34 19 16 -4 26 1 36 15 17 28 62
19 113 -21 43 -35 48 -36 48 -11 0 25 33 36 62 20 24 -12 108 -99 108 -111 0
-5 4 -8 9 -8 6 0 11 21 13 48 l3 47 50 1 c28 0 61 4 75 8 16 4 32 2 45 -8 17
-13 23 -12 48 6 41 29 112 36 137 13 11 -10 20 -13 20 -7 0 6 -5 14 -11 18 -7
4 0 17 18 36 23 25 34 29 67 26 31 -3 41 0 53 19 11 16 25 23 48 23 27 0 35 5
45 30 7 18 20 30 30 30 10 0 25 7 34 15 8 8 23 15 34 15 24 0 52 30 52 57 0
13 17 34 45 54 25 19 48 45 51 59 4 14 10 30 14 35 4 6 17 37 30 70 13 33 31
69 40 80 9 11 25 49 34 85 23 83 37 123 47 134 13 15 56 -13 69 -45 7 -15 18
-30 26 -33 8 -3 23 -20 34 -38 19 -32 20 -32 20 -8 -1 26 -10 45 -100 214 -45
86 -53 107 -52 154 0 29 3 56 6 60 8 8 66 -49 66 -65 0 -7 4 -13 9 -13 6 0 16
-11 23 -24 7 -13 23 -42 35 -64 13 -22 27 -43 33 -47 19 -12 10 36 -15 75 -14
22 -25 42 -25 44 0 3 -25 47 -56 98 -67 113 -86 170 -62 194 15 15 17 14 31
-12 8 -16 31 -42 51 -59 21 -17 36 -39 36 -52 0 -11 14 -33 30 -46 17 -14 30
-32 30 -40 0 -17 28 -43 37 -34 3 4 -11 30 -31 59 -20 29 -36 59 -36 65 0 7
-6 16 -14 20 -8 4 -25 29 -37 54 -13 25 -41 79 -61 119 -36 69 -47 110 -30
110 4 0 22 -13 40 -29 26 -25 32 -27 32 -12 0 18 -49 93 -69 106 -16 9 -13 45
3 45 19 0 92 -93 106 -136 8 -23 20 -36 36 -40 29 -8 54 -40 54 -71 0 -31 -24
-29 -45 3 -22 34 -53 64 -65 64 -14 0 -12 -9 8 -35 9 -12 24 -33 32 -45 8 -13
37 -52 63 -87 26 -35 57 -82 67 -106 23 -49 92 -146 117 -165 15 -11 19 -9 25
8 4 11 11 20 16 20 14 0 52 -40 52 -55 0 -22 -17 -27 -34 -9 -22 21 -35 14
-25 -14 7 -20 13 -22 48 -16 34 5 41 3 51 -16 6 -12 9 -32 6 -45 -4 -15 1 -28
14 -40 11 -10 20 -28 20 -39 0 -12 4 -27 9 -35 12 -19 41 -6 41 19 0 11 6 20
13 20 37 0 47 -54 23 -122 -11 -32 -11 -39 0 -49 11 -9 20 -7 39 5 37 24 55
20 55 -11 0 -16 -4 -35 -9 -42 -6 -9 -6 -22 1 -34 8 -16 12 -17 20 -6 7 10 8
9 3 -6 -12 -31 -7 -68 10 -78 8 -4 15 -15 15 -23 0 -26 29 -72 50 -79 13 -4
20 -15 20 -30 0 -14 9 -29 20 -35 11 -6 20 -19 20 -28 0 -10 -9 -25 -20 -35
-23 -19 -27 -57 -6 -57 8 0 22 10 30 21 23 33 46 18 46 -31 0 -36 4 -43 35
-61 38 -23 41 -34 23 -74 -14 -32 -34 -32 -42 0 -8 32 -26 33 -26 1 0 -37 51
-80 87 -74 28 5 37 -61 12 -88 -27 -29 -24 -44 9 -44 16 0 47 -13 70 -30 33
-24 42 -37 42 -59 0 -39 -17 -48 -44 -22 -14 13 -29 18 -44 14 -33 -8 -27 -42
10 -56 31 -11 72 -106 75 -172 6 -132 22 -285 32 -304 6 -11 11 -34 11 -51 0
-17 10 -44 22 -61 23 -30 23 -31 3 -44 -38 -26 -44 -35 -39 -50 4 -8 12 -15
20 -15 9 0 14 -11 14 -28 0 -31 52 -143 75 -162 8 -7 15 -27 15 -46 0 -18 6
-37 14 -41 7 -4 19 -19 26 -33 7 -14 45 -55 83 -92 50 -48 79 -86 102 -135 18
-38 40 -75 49 -82 9 -8 19 -31 22 -52 5 -29 12 -39 28 -41 15 -2 22 -11 24
-33 7 -70 66 -213 112 -270 25 -31 30 -46 26 -68 -4 -20 0 -37 14 -55 15 -18
19 -34 15 -54 -5 -19 1 -47 16 -83 l23 -55 -22 -23 c-26 -27 -31 -57 -7 -37
12 10 18 8 34 -11 16 -19 17 -26 7 -34 -6 -5 -13 -19 -13 -30 -1 -11 -7 -47
-14 -79 -9 -44 -9 -64 0 -78 17 -27 13 -70 -9 -98 -26 -33 -26 -53 0 -45 47
15 84 -92 40 -115 -17 -9 -20 -21 -20 -76 0 -70 -14 -89 -51 -65 -23 14 -25 5
-4 -15 8 -9 15 -30 15 -48 0 -19 -7 -39 -15 -46 -8 -7 -15 -27 -15 -45 0 -18
-8 -43 -18 -56 -10 -13 -26 -51 -36 -84 -9 -33 -22 -77 -28 -99 -7 -23 -21
-42 -35 -49 -29 -13 -39 -50 -24 -83 15 -34 15 -34 -19 -34 -24 0 -33 -6 -41
-27 -25 -66 -46 -99 -91 -144 -27 -27 -54 -63 -60 -79 -5 -17 -19 -35 -29 -41
-10 -5 -26 -24 -35 -41 -19 -37 -133 -158 -149 -158 -6 0 -28 -20 -48 -45 -28
-33 -45 -45 -65 -45 -20 0 -33 -10 -49 -34 -16 -25 -27 -33 -41 -29 -14 3 -26
-5 -42 -27 -15 -21 -27 -29 -39 -25 -11 4 -26 -6 -49 -32 -30 -35 -33 -37 -46
-20 -13 17 -15 16 -36 -13 -16 -23 -28 -30 -42 -27 -11 3 -40 -3 -66 -14 -38
-16 -51 -18 -73 -9 -15 7 -41 9 -58 5 -22 -5 -36 -2 -47 9 -21 22 -31 20 -55
-8 -24 -27 -53 -24 -44 4 7 23 -13 37 -22 15 -9 -26 -49 -65 -64 -65 -8 0 -25
7 -38 16 -18 13 -22 24 -19 50 4 37 -4 44 -57 44 -25 0 -35 -5 -40 -20 -5 -17
-72 -56 -81 -47 -9 8 25 54 49 65 21 10 27 20 27 44 0 29 -1 30 -18 15 -10
-10 -22 -17 -27 -17 -5 0 -19 -9 -31 -21 l-22 -21 -21 21 c-34 34 -81 22 -81
-20 0 -9 -17 -32 -37 -49 l-37 -33 28 -23 c33 -29 79 -31 113 -4 34 27 46 25
39 -4 -7 -29 17 -41 63 -31 16 3 54 -2 92 -14 86 -26 186 -44 231 -42 20 1 39
-3 43 -9 4 -7 38 -9 98 -5 130 9 183 21 230 54 23 15 65 40 92 55 110 59 132
74 184 129 30 32 71 67 92 78 42 24 191 182 231 246 15 24 31 43 35 43 10 0
49 38 90 87 17 21 45 54 61 73 16 19 47 62 69 95 23 33 57 80 77 105 26 33 40
66 53 120 10 41 27 90 39 108 12 18 35 72 50 120 15 48 37 110 49 137 13 28
35 115 50 195 29 151 28 140 11 427 -1 28 -7 58 -13 65 -12 13 -53 168 -53
197 0 9 -7 29 -15 45 -8 15 -15 38 -15 50 0 25 -25 105 -51 162 -11 23 -19 45
-19 49 0 4 -8 19 -19 33 -10 15 -21 44 -24 64 -3 21 -16 52 -30 70 -13 18 -36
65 -51 104 -19 49 -36 76 -53 85 -13 7 -29 22 -35 34 -6 11 -28 40 -49 65 -21
25 -58 68 -81 95 -24 28 -59 79 -78 113 -19 35 -51 91 -71 125 -31 52 -38 76
-44 142 -4 44 -13 105 -22 135 -8 30 -19 74 -24 98 -5 24 -15 53 -24 65 -23
33 -18 60 16 90 24 21 30 32 24 50 -10 34 -36 203 -43 288 -4 42 -13 84 -21
93 -8 10 -14 39 -14 74 1 71 -27 131 -61 132 -5 0 -6 -31 -3 -70 3 -38 2 -70
-3 -70 -13 0 -70 82 -70 100 0 21 20 40 42 40 13 0 18 8 18 29 0 16 5 31 12
33 9 3 9 12 0 38 -7 18 -12 47 -12 63 0 17 -11 45 -25 63 -14 18 -25 37 -25
43 0 6 -5 11 -10 11 -18 0 -23 -30 -10 -55 17 -32 6 -55 -25 -55 -24 0 -22 -3
26 -51 28 -28 48 -53 45 -56 -7 -7 -85 16 -103 30 -7 5 -13 20 -13 33 0 13 -9
28 -20 34 -24 13 -28 68 -5 76 22 9 19 67 -6 109 -15 26 -20 45 -15 68 4 23 3
28 -4 17 -18 -28 -45 2 -48 55 -3 38 -11 57 -37 88 -24 28 -33 47 -29 61 6 27
-17 58 -44 60 -26 1 -27 3 -13 39 17 44 -15 86 -54 71 -9 -4 -17 1 -21 12 -13
44 -38 84 -55 89 -11 4 -19 15 -19 26 0 11 -10 30 -23 42 -12 12 -35 41 -50
65 -15 23 -32 42 -37 42 -6 0 -10 7 -10 15 0 8 -4 15 -9 15 -5 0 -12 9 -16 20
-3 10 -33 49 -66 85 -33 37 -71 92 -85 123 -13 31 -35 70 -48 87 -13 17 -31
47 -39 67 -8 20 -31 50 -51 68 -39 36 -43 49 -24 80 10 15 9 22 -5 38 -9 10
-17 23 -17 29 0 9 -46 111 -69 153 -32 57 -34 70 -21 110 7 22 10 43 6 48 -4
4 -27 7 -49 7 l-42 0 0 55 c0 37 -6 66 -20 88 -11 18 -34 57 -52 85 -17 29
-42 72 -54 97 -12 25 -34 70 -49 100 -15 30 -34 69 -42 85 -36 69 -58 127 -58
155 0 16 -4 32 -10 35 -5 3 -10 14 -10 24 0 9 -13 30 -30 46 -51 48 -42 71 69
193 94 103 140 180 195 327 60 163 81 337 52 437 -9 31 -16 68 -16 82 0 14 -7
42 -16 63 -9 21 -22 52 -29 68 -19 46 -83 177 -98 200 -31 49 -129 175 -168
217 -60 63 -336 268 -362 268 -3 0 -25 13 -49 29 -48 32 -529 271 -546 271 -6
0 -23 7 -39 15 -66 33 -132 60 -249 100 -69 24 -134 51 -145 61 -11 10 -40 48
-65 84 -25 36 -61 88 -82 116 -20 29 -88 122 -149 208 -141 195 -141 195 -235
288 -52 51 -115 99 -187 142 -60 36 -112 66 -116 66 -7 0 -34 12 -200 90 -101
47 -135 60 -155 60 -11 0 -37 6 -57 14 -21 7 -67 21 -103 31 -36 9 -76 22 -90
27 -46 19 -134 40 -200 48 -36 5 -92 13 -125 19 -74 13 -491 13 -560 0 -27 -5
-79 -13 -115 -18 -36 -5 -78 -14 -95 -19 -16 -6 -50 -15 -75 -22 -25 -6 -58
-15 -75 -20 -16 -5 -52 -16 -80 -24 -27 -9 -70 -22 -95 -30 -25 -8 -57 -17
-72 -20 -15 -4 -35 -15 -45 -25 -25 -25 -199 -68 -221 -54 -10 6 -20 31 -24
59 -24 151 -60 261 -131 403 -44 89 -67 121 -149 206 -71 75 -114 110 -160
133 -35 18 -88 46 -118 62 -30 16 -64 30 -76 30 -11 0 -42 7 -69 14 -68 21
-147 29 -165 16z m1734 -2675 c8 -33 -1 -50 -18 -35 -14 10 -10 60 4 60 4 0
11 -11 14 -25z m24 -144 c10 -31 38 -67 96 -125 109 -109 173 -157 286 -215
139 -71 275 -100 472 -101 88 0 119 4 175 24 37 14 98 28 135 31 43 4 76 13
92 26 13 10 36 19 51 19 14 0 52 12 82 26 72 33 96 27 133 -34 57 -93 81 -123
115 -143 27 -16 35 -28 35 -49 l0 -28 -118 5 c-130 6 -212 -4 -327 -42 -243
-79 -440 -241 -579 -475 -31 -52 -56 -99 -56 -105 0 -5 -6 -22 -14 -36 -20
-40 -53 -144 -72 -233 -12 -56 -15 -107 -12 -177 l5 -99 -26 0 c-15 0 -35 6
-46 13 -85 58 -374 89 -476 52 -76 -28 -86 -29 -94 -6 -3 11 -1 39 5 62 25 91
13 275 -27 429 -51 200 -142 360 -282 501 -100 99 -142 129 -275 193 -74 35
-97 51 -94 64 3 12 11 16 28 14 78 -10 199 -2 250 16 166 58 375 237 441 377
27 57 36 66 63 63 13 -2 24 -17 34 -47z m-1058 -466 c87 -8 245 -58 322 -101
239 -135 395 -328 472 -584 37 -126 50 -243 43 -415 -5 -140 -8 -158 -46 -273
-70 -210 -156 -361 -291 -505 -253 -271 -585 -427 -905 -427 -255 1 -481 86
-655 247 -207 192 -319 460 -320 766 0 300 104 586 307 837 120 148 330 306
493 370 149 59 378 104 480 94 19 -2 64 -6 100 -9z m2703 -185 l98 0 70 -70
c38 -38 76 -70 84 -70 18 0 97 -55 108 -76 4 -8 23 -14 41 -14 22 0 48 -11 77
-34 54 -41 118 -76 139 -76 8 0 38 -11 65 -24 67 -31 130 -99 212 -231 186
-295 243 -701 147 -1033 -86 -295 -302 -540 -569 -647 -216 -86 -427 -88 -676
-5 -52 17 -112 42 -134 55 -22 13 -62 36 -90 51 -70 38 -209 152 -281 232 -72
79 -161 207 -202 288 -65 130 -95 214 -138 394 -32 133 -13 438 35 570 61 167
98 236 177 341 102 134 272 253 438 308 86 29 237 53 281 45 11 -2 64 -4 118
-4z m1032 -340 c3 -5 -3 -10 -14 -10 -12 0 -21 5 -21 10 0 6 6 10 14 10 8 0
18 -4 21 -10z m1273 -1179 c3 -8 -1 -12 -9 -9 -7 2 -15 10 -17 17 -3 8 1 12 9
9 7 -2 15 -10 17 -17z m112 -20 c0 -36 -11 -53 -26 -40 -17 14 -18 31 -2 47
17 17 28 15 28 -7z m55 -170 c3 -11 19 -34 36 -52 33 -35 46 -73 29 -84 -6 -4
-18 -1 -26 6 -18 15 -64 110 -64 132 0 23 17 21 25 -2z m212 -536 c9 -25 -4
-29 -17 -6 -7 15 -7 21 0 21 6 0 13 -7 17 -15z m151 -212 c11 -19 7 -33 -9
-33 -10 0 -48 78 -41 85 6 6 35 -23 50 -52z m81 27 c6 0 11 -7 11 -15 0 -8 -3
-15 -8 -15 -11 0 -42 38 -42 53 1 7 6 5 14 -5 7 -10 18 -18 25 -18z m1471
-3536 c0 -31 -23 -28 -28 4 -2 15 2 22 12 22 11 0 16 -9 16 -26z m-22 -166
c21 -21 12 -138 -10 -138 -20 0 -47 46 -48 79 0 19 7 43 17 53 19 21 25 22 41
6z m12 -182 c0 -28 -12 -46 -31 -46 -25 0 -35 26 -19 45 16 19 50 20 50 1z
m-1720 -1670 c0 -8 -5 -18 -11 -22 -14 -8 -33 11 -25 25 10 16 36 13 36 -3z"/>
<path d="M5340 10685 c-14 -8 -37 -14 -52 -15 -15 0 -29 -4 -32 -9 -3 -5 -18
-12 -33 -15 -26 -6 -40 -12 -113 -45 -24 -11 -158 -106 -190 -135 -33 -29 -90
-94 -90 -101 0 -5 -11 -23 -25 -41 -14 -18 -25 -37 -25 -42 0 -5 -9 -17 -20
-27 -21 -19 -70 -130 -100 -228 -42 -137 -49 -361 -14 -461 7 -23 14 -50 14
-62 0 -11 7 -29 15 -40 8 -10 15 -27 15 -37 0 -9 19 -54 41 -98 32 -62 63
-104 133 -174 96 -98 169 -143 286 -178 30 -8 75 -22 100 -29 29 -8 99 -13
195 -12 143 0 154 2 245 34 133 46 172 64 193 88 l19 21 -64 -21 c-34 -11 -85
-25 -113 -30 -27 -6 -59 -14 -70 -18 -69 -28 -278 -28 -396 -1 -278 65 -447
232 -539 531 -20 64 -24 98 -24 230 -1 132 2 167 22 239 57 210 172 371 364
514 20 15 39 27 42 27 3 0 29 14 58 31 69 42 175 85 227 94 22 4 41 11 41 16
0 14 -82 10 -110 -6z"/>
<path d="M5465 10573 c-72 -15 -188 -61 -235 -92 -30 -20 -98 -79 -152 -131
-77 -77 -103 -110 -128 -165 -50 -107 -70 -201 -70 -325 0 -126 19 -201 83
-325 119 -230 427 -407 665 -382 116 13 189 25 208 35 10 6 44 20 74 32 109
44 231 149 303 262 30 46 45 78 89 187 20 52 29 194 18 290 -21 169 -71 280
-176 385 -167 167 -331 237 -548 235 -61 -1 -120 -3 -131 -6z m202 -98 c29 -8
79 -22 110 -31 65 -19 133 -58 133 -78 0 -7 -17 -21 -37 -30 -69 -31 -83 -41
-83 -57 0 -9 -6 -22 -14 -28 -25 -21 -4 -181 31 -222 7 -8 13 -21 13 -27 0 -7
6 -12 14 -12 8 0 23 -13 33 -30 9 -16 20 -30 23 -30 3 0 38 -7 78 -15 60 -13
80 -13 108 -3 48 17 58 3 56 -77 0 -55 -7 -79 -43 -153 -23 -47 -50 -98 -61
-112 -19 -26 -16 -60 5 -60 27 0 127 145 127 185 0 8 10 25 21 36 19 19 21 26
10 54 -9 26 -8 44 4 91 18 71 32 87 40 48 3 -16 10 -50 16 -75 8 -36 7 -55 -5
-90 -9 -24 -16 -55 -16 -69 0 -14 -7 -36 -14 -50 -8 -14 -33 -62 -56 -108 -36
-70 -47 -84 -72 -89 -16 -3 -33 -14 -39 -24 -5 -11 -16 -19 -24 -19 -7 0 -15
-10 -17 -22 -5 -36 -81 -73 -149 -73 -45 0 -64 -6 -96 -28 -42 -29 -45 -29
-217 -27 -95 1 -137 15 -156 50 -9 17 -17 20 -45 14 -27 -5 -34 -2 -39 13 -8
24 -70 93 -84 93 -7 0 -12 -7 -12 -16 0 -24 -34 -12 -38 13 -2 11 -12 29 -23
39 -24 21 -24 40 -1 53 16 10 16 10 0 11 -10 0 -18 4 -18 10 0 5 -17 21 -39
35 -29 20 -40 35 -44 60 -3 19 -21 53 -39 76 -29 36 -33 49 -36 115 -6 102 3
142 31 146 29 4 35 38 8 45 -29 7 -27 54 4 118 13 28 25 57 25 66 0 31 36 51
92 52 29 0 61 -3 71 -8 17 -7 18 -6 5 16 -7 13 -17 27 -21 30 -12 8 20 68 40
76 8 3 19 0 24 -8 6 -11 9 -8 9 9 0 12 6 22 13 22 7 0 28 13 48 29 32 27 92
61 129 74 32 11 166 6 217 -8z m388 -179 c84 -36 145 -109 145 -177 0 -74 -76
-135 -159 -127 -107 10 -180 75 -189 167 -5 59 7 83 60 121 46 34 89 38 143
16z"/>
<path d="M5570 9998 c-43 -12 -107 -71 -127 -117 -22 -52 -9 -98 46 -160 43
-49 52 -54 97 -58 46 -5 53 -2 100 35 50 39 84 92 84 129 -1 35 -37 98 -78
136 -23 20 -46 37 -51 37 -5 0 -15 2 -23 4 -7 2 -29 0 -48 -6z m97 -103 c31
-31 35 -40 30 -72 -9 -54 -42 -83 -93 -83 -36 0 -47 5 -73 35 -37 42 -38 56
-10 101 40 66 92 73 146 19z"/>
<path d="M5251 9910 c-17 -51 6 -71 28 -23 10 21 9 29 -2 40 -13 13 -16 10
-26 -17z"/>
<path d="M5354 9679 c-4 -6 12 -28 35 -49 22 -21 41 -42 41 -47 0 -5 12 -16
28 -23 33 -15 82 -30 82 -25 0 8 -132 135 -150 145 -24 13 -27 13 -36 -1z"/>
<path d="M5568 9524 c-4 -3 -3 -14 2 -24 7 -14 24 -18 72 -19 35 -1 76 -3 92
-4 59 -4 35 19 -31 31 -38 6 -82 14 -98 17 -17 4 -33 3 -37 -1z"/>
<path d="M5850 9513 c-34 -6 -47 -21 -26 -29 18 -7 76 13 76 27 0 9 -7 9 -50
2z"/>
<path d="M5990 10575 c0 -2 14 -12 30 -20 45 -23 181 -161 227 -230 46 -68
108 -182 116 -211 2 -10 5 -1 6 20 3 92 -156 326 -251 371 -21 10 -38 21 -38
26 0 9 -63 49 -79 49 -6 0 -11 -2 -11 -5z"/>
<path d="M8455 10510 c3 -5 21 -10 38 -10 24 0 28 3 17 10 -20 13 -63 13 -55
0z"/>
<path d="M8550 10485 c0 -7 77 -45 91 -45 7 0 36 -16 65 -35 29 -19 55 -35 59
-35 10 0 149 -123 187 -166 78 -88 139 -196 171 -299 46 -154 48 -165 48 -282
1 -138 -18 -245 -62 -348 -16 -38 -29 -73 -29 -78 0 -23 -113 -172 -181 -238
-94 -92 -188 -142 -304 -164 -94 -18 -211 -19 -269 -4 -111 29 -194 51 -221
61 -16 5 -44 13 -60 17 -17 4 -49 20 -71 34 -55 34 -114 58 -114 46 0 -5 6 -9
13 -9 8 0 22 -9 33 -21 10 -12 32 -28 49 -36 16 -8 42 -27 57 -40 15 -14 44
-29 65 -34 21 -4 72 -20 113 -35 45 -16 105 -29 150 -32 41 -2 80 -9 86 -14 7
-5 29 -5 55 1 24 6 85 14 136 20 77 8 103 16 160 47 131 72 246 181 316 300
46 77 107 227 128 314 16 63 16 354 1 373 -5 7 -24 55 -42 107 -31 91 -63 172
-78 197 -52 84 -76 115 -127 167 -88 90 -138 127 -249 185 -69 35 -110 51
-137 51 -22 0 -39 -2 -39 -5z"/>
<path d="M8079 10405 c-135 -27 -312 -132 -433 -258 -188 -194 -231 -508 -106
-775 57 -122 123 -198 230 -268 169 -109 350 -144 556 -109 194 34 393 162
490 317 88 139 118 242 118 403 0 179 -45 309 -151 440 -168 207 -438 303
-704 250z m314 -103 c43 -3 32 -17 -25 -32 -72 -18 -158 -59 -158 -75 0 -7 -7
-18 -15 -25 -10 -9 -15 -9 -15 -1 0 6 -5 11 -11 11 -7 0 -9 -9 -6 -22 3 -11
-1 -34 -9 -51 -20 -37 -12 -81 27 -163 37 -78 38 -114 5 -114 -34 0 -85 -38
-124 -93 l-34 -48 13 -59 c10 -45 18 -61 36 -69 13 -6 31 -24 41 -40 14 -26
24 -30 76 -37 54 -6 62 -4 74 15 8 11 20 21 28 21 47 0 105 120 84 176 -17 43
-12 72 12 80 13 4 28 14 34 22 10 13 38 21 141 39 26 4 34 12 44 40 6 19 9 37
6 40 -3 2 5 34 19 69 13 36 24 76 24 89 0 34 17 31 40 -7 11 -18 32 -42 48
-52 27 -18 52 -64 52 -95 0 -7 8 -23 18 -36 16 -20 19 -39 16 -127 -4 -145
-13 -220 -30 -253 -8 -15 -14 -41 -14 -57 0 -20 -11 -43 -31 -66 -17 -20 -38
-50 -45 -69 -8 -18 -18 -33 -23 -33 -5 0 -31 -20 -57 -45 -27 -25 -56 -45 -65
-45 -8 0 -33 -15 -54 -34 -21 -19 -50 -36 -64 -39 -14 -3 -53 -15 -85 -26 -33
-12 -78 -22 -100 -22 -23 -1 -54 -4 -71 -8 -42 -9 -136 14 -195 49 -28 17 -59
30 -70 30 -10 0 -22 5 -26 11 -4 6 -20 8 -39 5 -29 -6 -38 -2 -67 28 -18 19
-40 42 -49 51 -9 10 -28 27 -42 40 -14 12 -31 42 -38 66 -7 24 -27 65 -46 90
-23 32 -33 58 -33 82 0 20 -6 56 -14 79 -16 48 -14 148 5 218 44 166 96 286
137 318 25 19 32 14 22 -14 -6 -14 -10 -41 -10 -61 0 -20 -9 -50 -19 -67 -11
-17 -24 -67 -31 -111 -6 -44 -16 -94 -21 -111 -13 -44 -11 -64 7 -71 23 -8 34
14 34 70 0 27 5 57 11 68 6 11 14 41 19 67 11 65 30 110 67 162 18 25 44 62
58 82 17 26 37 41 65 49 39 12 54 29 25 29 -18 0 -20 16 -3 26 6 4 17 -1 23
-10 15 -20 65 -12 65 10 0 9 11 14 29 14 16 0 42 6 58 14 57 29 130 36 276 28z
m47 -108 c19 -4 52 -26 81 -55 44 -43 49 -52 49 -93 0 -130 -150 -207 -258
-132 -59 41 -76 71 -77 138 0 52 3 60 35 93 51 54 90 65 170 49z m-192 -440
c72 -28 84 -106 26 -160 -40 -38 -76 -43 -114 -17 -38 26 -49 45 -50 84 0 36
27 71 75 97 25 14 18 15 63 -4z"/>
<path d="M7945 9800 c-4 -12 -2 -27 3 -32 7 -7 12 -3 17 12 4 12 2 27 -3 32
-7 7 -12 3 -17 -12z"/>
<path d="M7924 9709 c-3 -6 -1 -16 5 -22 8 -8 11 -5 11 11 0 24 -5 28 -16 11z"/>
<path d="M7815 9550 c-8 -13 23 -61 43 -68 7 -2 12 6 12 20 0 13 5 29 12 36 9
9 9 12 -2 12 -8 0 -25 3 -36 6 -12 3 -25 0 -29 -6z"/>
<path d="M8442 9485 c-25 -26 -62 -50 -90 -60 -26 -9 -60 -23 -77 -30 -44 -20
-133 -24 -190 -7 -63 18 -145 54 -145 64 0 5 -7 8 -16 8 -28 0 -10 -32 26 -44
19 -7 52 -24 74 -39 25 -18 52 -27 80 -27 22 0 52 -1 66 -1 44 -1 144 18 182
34 20 9 57 37 82 61 24 25 54 50 65 56 26 13 27 30 4 29 -10 -1 -37 -20 -61
-44z"/>
<path d="M7822 10403 c-7 -2 -17 -13 -22 -23 -9 -16 -7 -17 15 -6 14 6 25 17
25 24 0 6 -1 12 -2 11 -2 0 -9 -3 -16 -6z"/>
<path d="M4084 14256 c-10 -26 1 -51 22 -54 27 -4 47 21 39 48 -7 24 -53 28
-61 6z"/>
<path d="M4010 14175 c-20 -25 -8 -50 27 -53 27 -3 33 1 39 22 3 14 3 30 -1
35 -9 16 -51 13 -65 -4z"/>
<path d="M4572 14158 c6 -18 28 -21 28 -4 0 9 -7 16 -16 16 -9 0 -14 -5 -12
-12z"/>
<path d="M3910 14120 c0 -11 5 -20 10 -20 6 0 10 9 10 20 0 11 -4 20 -10 20
-5 0 -10 -9 -10 -20z"/>
<path d="M5098 13841 c-38 -18 -108 -93 -108 -116 0 -27 17 -23 44 11 36 46
98 84 136 84 41 0 97 -30 138 -73 29 -32 32 -41 32 -100 0 -64 -1 -66 -45
-111 -25 -26 -45 -51 -45 -56 0 -19 30 -10 45 13 8 13 26 29 39 35 13 6 27 21
31 34 4 13 14 30 22 39 12 15 11 25 -9 86 -23 71 -50 110 -102 151 -36 27
-122 29 -178 3z"/>
<path d="M5114 13696 c-40 -34 -39 -88 2 -121 16 -13 39 -24 52 -25 32 0 82
52 82 85 0 34 -50 85 -84 85 -14 0 -37 -11 -52 -24z"/>
<path d="M4725 13700 c-26 -10 -66 -55 -93 -103 -23 -39 -30 -111 -12 -122 6
-3 10 -22 10 -40 0 -28 6 -37 30 -50 17 -9 30 -20 30 -25 0 -16 86 -52 117
-48 36 4 35 21 -3 32 -98 28 -144 84 -144 172 0 51 3 58 46 104 25 27 55 52
65 55 10 4 19 13 19 21 0 15 -33 18 -65 4z"/>
<path d="M4825 13699 c-10 -15 1 -22 24 -14 12 3 19 11 16 16 -8 12 -32 11
-40 -2z"/>
<path d="M4141 13586 c-15 -18 -18 -178 -5 -267 9 -64 18 -85 92 -234 86 -173
217 -325 326 -380 49 -25 76 -54 76 -80 0 -7 -95 -35 -121 -35 -70 0 -471
-175 -609 -266 -29 -19 -55 -34 -60 -34 -23 0 -189 -137 -291 -241 -133 -134
-181 -208 -273 -422 -9 -21 -16 -53 -16 -71 0 -19 -7 -70 -15 -113 -25 -131
-18 -214 32 -383 26 -88 101 -237 149 -296 24 -29 44 -63 44 -75 0 -11 -21
-48 -47 -81 -53 -70 -143 -242 -143 -276 0 -12 7 -25 15 -28 20 -8 19 -51 -2
-63 -12 -7 -21 -5 -30 7 -12 16 -15 15 -33 -8 -11 -14 -23 -36 -26 -50 -4 -14
-10 -29 -14 -35 -4 -5 -11 -21 -15 -35 -4 -14 -21 -53 -36 -87 -16 -33 -29
-68 -29 -76 0 -8 -7 -28 -15 -43 -9 -17 -13 -41 -10 -55 5 -20 -3 -41 -29 -82
-20 -31 -41 -59 -46 -62 -18 -11 -100 -188 -100 -215 0 -15 -6 -35 -14 -46
-14 -18 -15 -18 -21 -1 -10 25 -18 21 -40 -19 -15 -28 -17 -39 -7 -54 13 -21
2 -33 -21 -24 -21 8 -31 -30 -15 -56 11 -17 10 -26 -9 -58 -12 -20 -33 -59
-47 -86 -14 -27 -28 -52 -33 -55 -12 -9 -53 -96 -53 -113 0 -8 -12 -20 -26
-27 -23 -10 -25 -16 -20 -44 13 -61 2 -158 -22 -195 -8 -13 -12 -33 -9 -50 4
-19 -6 -53 -35 -115 -32 -71 -39 -95 -33 -123 4 -26 1 -43 -14 -67 -23 -37
-57 -61 -66 -47 -14 22 -33 7 -61 -47 -16 -32 -42 -72 -57 -90 -16 -18 -32
-45 -36 -60 -4 -16 -19 -34 -34 -41 -15 -7 -35 -25 -44 -40 -10 -15 -28 -40
-40 -56 -34 -41 -65 -114 -58 -136 5 -16 -1 -21 -35 -30 -31 -8 -43 -18 -54
-43 -8 -18 -26 -47 -40 -66 -14 -19 -26 -42 -26 -51 0 -10 -12 -39 -27 -66
-32 -60 -45 -117 -47 -214 -1 -41 -8 -93 -16 -115 -7 -22 -13 -53 -11 -68 1
-15 -2 -33 -7 -40 -6 -7 -13 -152 -17 -352 -4 -187 -9 -371 -12 -410 -2 -38
-4 -104 -4 -145 0 -71 -2 -80 -52 -177 -29 -56 -68 -119 -87 -140 -19 -21 -44
-52 -56 -68 -98 -142 -118 -172 -130 -199 -8 -17 -18 -38 -23 -46 -27 -45 -69
-140 -76 -170 -4 -19 -13 -42 -20 -50 -29 -34 -114 -310 -115 -372 0 -15 -16
-62 -37 -104 -25 -53 -37 -94 -38 -128 -1 -28 -8 -84 -14 -124 -8 -50 -9 -83
-3 -101 6 -16 8 -48 5 -72 -3 -29 1 -58 11 -83 9 -21 19 -74 22 -119 5 -57 15
-97 32 -132 14 -27 27 -72 30 -100 3 -27 13 -62 24 -78 30 -42 68 -143 68
-179 1 -32 34 -85 170 -274 51 -70 539 -554 591 -586 25 -14 70 -36 102 -48
31 -12 80 -41 108 -65 50 -43 98 -63 118 -50 6 3 27 -1 47 -10 23 -9 50 -13
70 -9 17 3 41 1 53 -5 16 -9 27 -9 43 1 14 7 72 13 148 15 152 3 216 13 212
33 -20 85 -10 101 34 52 14 -15 33 -35 41 -44 21 -23 47 -5 37 25 -5 17 -3 19
17 12 60 -19 86 -18 92 4 3 13 13 21 26 21 18 0 19 3 9 25 -7 15 -20 25 -32
25 -27 0 -40 9 -55 38 -6 12 -18 22 -27 22 -8 0 -20 11 -26 25 -14 31 -25 31
-62 1 -29 -24 -29 -24 -13 -59 21 -44 21 -47 -2 -47 -11 0 -32 14 -48 30 -33
35 -44 37 -68 10 -16 -17 -16 -24 -5 -44 15 -28 8 -56 -15 -56 -22 0 -57 60
-50 88 5 22 5 22 -19 7 -13 -9 -27 -27 -30 -41 -5 -20 -12 -25 -34 -22 -20 2
-28 9 -31 28 -1 14 -18 41 -36 61 -27 30 -35 34 -49 24 -22 -16 -20 -35 3 -35
20 0 31 -18 31 -51 0 -17 -5 -18 -42 -13 -24 4 -51 11 -62 16 -10 6 -34 7 -52
3 -29 -5 -42 -1 -76 24 -23 17 -54 31 -69 31 -18 0 -30 6 -33 18 -4 12 -17 18
-46 18 -22 1 -40 -2 -40 -7 0 -23 -42 -5 -70 32 -20 24 -38 38 -46 35 -8 -3
-20 -9 -28 -12 -8 -3 -22 3 -32 14 -11 10 -31 27 -46 36 -15 10 -28 27 -30 39
-2 14 -13 23 -33 29 -93 24 -312 332 -362 508 -8 30 -18 77 -21 103 -8 53 -29
65 -24 13 2 -33 -18 -63 -36 -53 -8 5 -55 99 -100 200 -12 26 -28 47 -35 47
-7 0 -21 17 -30 38 -21 47 -21 53 -2 46 25 -10 35 4 23 31 -7 15 -21 25 -37
27 -33 4 -42 45 -15 65 16 12 15 13 -12 13 -30 0 -30 0 -31 62 -3 156 -5 173
-26 187 -15 11 -18 21 -14 47 3 19 1 36 -4 39 -5 4 -9 17 -9 30 0 25 60 92 88
97 13 3 17 14 17 53 0 28 5 57 10 65 6 8 10 38 11 65 2 86 16 199 29 225 7 14
20 63 29 109 9 47 23 92 31 101 8 9 17 32 21 51 6 38 60 172 83 209 6 8 26 47
44 86 19 39 39 79 45 90 5 10 18 39 28 64 10 25 24 50 31 56 7 6 19 26 27 45
8 19 34 52 58 74 32 29 52 60 72 110 79 197 98 238 129 272 20 23 17 53 -5 53
-27 0 -57 -31 -74 -75 -17 -45 -40 -58 -51 -29 -3 9 0 41 8 72 7 32 12 67 11
80 -3 25 61 181 81 195 9 7 9 10 0 14 -7 2 -13 14 -13 26 0 21 50 132 80 177
9 14 22 44 28 66 7 23 19 45 27 48 20 7 20 56 0 56 -8 0 -15 -9 -15 -20 0 -25
-21 -73 -37 -83 -7 -4 -13 -21 -13 -37 0 -37 -23 -40 -45 -6 -13 19 -15 43
-10 122 3 55 8 117 11 139 2 22 7 60 9 85 5 53 19 127 35 190 6 25 14 56 17
70 3 14 14 34 24 45 14 16 17 30 12 57 -5 33 -3 38 20 43 29 8 41 39 26 67
-12 22 -4 52 11 43 5 -3 10 -19 10 -36 0 -16 4 -29 9 -29 15 0 61 60 67 88 10
48 63 150 96 182 32 33 51 63 86 136 11 23 43 60 71 84 37 31 52 52 57 78 7
34 16 48 62 96 12 13 22 34 22 48 0 13 11 35 24 47 43 41 58 83 46 135 -5 25
-6 53 -2 63 19 45 49 82 67 85 26 4 33 48 11 60 -22 12 -10 30 12 19 9 -5 25
-12 34 -15 10 -3 19 -20 23 -43 4 -21 13 -58 21 -82 8 -25 14 -66 14 -92 0
-29 6 -51 15 -59 8 -7 15 -21 15 -31 0 -48 29 -120 72 -183 26 -38 48 -77 48
-88 0 -10 4 -18 9 -18 6 0 22 -11 37 -25 15 -14 33 -25 40 -25 9 0 14 -12 14
-35 0 -31 4 -36 29 -41 16 -3 46 -20 66 -37 31 -25 36 -35 31 -58 -5 -26 -4
-28 13 -17 15 9 24 8 45 -5 14 -10 26 -22 26 -27 0 -5 12 -7 28 -4 19 4 37 -2
61 -20 19 -14 40 -26 47 -26 6 0 28 -13 49 -30 40 -32 64 -37 96 -20 11 6 45
8 85 4 55 -6 67 -11 76 -30 l11 -23 27 21 c34 25 64 20 68 -10 4 -29 18 -28
52 5 22 21 40 27 77 28 52 2 73 -8 73 -35 0 -9 11 -22 24 -29 49 -27 71 -70
72 -143 0 -37 3 -71 7 -75 4 -3 18 0 32 7 41 22 98 -2 115 -49 15 -45 48 -81
65 -74 8 2 20 -8 29 -24 27 -48 82 -103 104 -103 14 0 30 -13 46 -39 20 -31
32 -39 65 -45 31 -5 41 -11 41 -25 0 -29 26 -47 45 -31 13 11 20 9 43 -13 16
-15 33 -27 38 -27 22 0 94 -41 104 -60 7 -13 21 -20 39 -20 16 0 39 -8 52 -19
33 -25 95 -55 149 -70 25 -7 55 -18 68 -24 13 -6 34 -10 47 -9 13 1 27 -2 30
-7 8 -13 85 -48 120 -54 17 -3 57 -13 90 -21 33 -9 80 -21 105 -27 25 -7 68
-18 95 -26 90 -26 169 -41 255 -47 47 -4 102 -14 123 -23 37 -16 39 -19 33
-51 -3 -19 -15 -45 -27 -58 -12 -13 -27 -34 -34 -46 -6 -13 -18 -21 -26 -18
-8 2 -30 5 -49 6 -19 0 -42 3 -50 6 -33 12 -127 29 -150 28 -86 -3 -109 -6
-116 -13 -13 -13 -81 -8 -94 8 -10 12 -15 12 -36 -2 -18 -11 -37 -14 -69 -10
-25 4 -57 2 -72 -4 -25 -10 -194 -22 -268 -20 -16 0 -49 1 -71 1 -23 -1 -60 7
-82 15 -31 13 -45 14 -61 6 -33 -18 -58 -13 -79 16 -20 28 -20 28 -42 8 -20
-18 -23 -19 -50 -3 -16 9 -38 14 -48 11 -11 -2 -48 7 -83 20 -51 20 -79 24
-139 23 -136 -5 -125 0 -166 -68 -32 -52 -39 -73 -40 -120 -1 -32 -8 -68 -16
-80 -9 -13 -17 -51 -20 -85 -2 -38 -11 -69 -20 -80 -10 -11 -19 -47 -23 -90
-8 -78 1 -103 36 -103 16 0 19 8 19 55 0 44 4 56 20 65 39 21 70 85 70 143 0
41 6 63 25 91 30 44 30 47 5 69 -26 22 -30 134 -5 144 9 3 56 -2 104 -11 49
-9 103 -16 120 -16 51 0 96 -68 55 -84 -9 -3 -24 -6 -34 -6 -10 0 -26 -7 -35
-16 -15 -15 -14 -19 15 -43 l31 -26 -21 -70 c-12 -38 -29 -81 -38 -95 -9 -14
-19 -43 -23 -65 -4 -22 -10 -50 -14 -63 -6 -19 -2 -24 27 -36 38 -16 75 -73
65 -100 -11 -27 -45 -18 -91 24 -49 45 -61 48 -76 20 -15 -28 -62 -26 -99 6
-25 20 -37 24 -61 19 -29 -6 -31 -10 -28 -43 3 -33 6 -37 30 -37 15 -1 35 -9
46 -18 19 -17 28 -18 113 -17 42 1 47 -2 53 -24 5 -22 9 -24 38 -15 49 14 104
11 118 -6 7 -9 15 -13 18 -10 3 3 15 -1 28 -9 17 -12 28 -13 52 -4 26 10 34 9
50 -5 13 -12 28 -15 48 -11 17 3 54 1 84 -4 31 -6 60 -6 65 -2 20 16 119 14
145 -3 24 -16 25 -19 23 -129 -1 -62 -4 -144 -7 -183 -4 -38 -11 -145 -16
-237 -10 -175 -20 -217 -61 -255 -13 -12 -30 -29 -38 -38 -8 -10 -23 -15 -37
-12 -13 2 -24 0 -24 -5 0 -5 -12 -13 -27 -19 -24 -9 -30 -7 -45 12 -15 18 -21
19 -33 9 -8 -7 -14 -18 -13 -25 7 -34 -86 -150 -129 -161 -15 -4 -24 -18 -32
-49 -6 -25 -28 -63 -51 -90 -22 -25 -40 -53 -40 -61 0 -8 -25 -40 -56 -71 -85
-85 -90 -151 -19 -229 19 -21 35 -42 35 -46 0 -5 16 -16 35 -24 44 -18 50 -43
30 -114 -15 -52 -18 -67 -31 -146 -2 -17 -13 -41 -23 -53 -19 -21 -19 -41 -5
-158 13 -109 49 -32 104 222 25 112 50 201 75 259 9 21 14 45 11 52 -7 18 -30
18 -46 -1 -18 -22 -47 -18 -99 12 -51 29 -70 50 -71 74 0 20 52 87 152 195 42
46 83 98 92 116 8 18 26 59 40 90 36 80 88 118 165 118 31 0 61 4 67 8 5 4 27
35 48 69 20 35 43 66 49 70 37 24 50 54 51 120 1 38 7 118 13 178 7 61 17 178
23 260 6 83 15 189 21 237 14 126 -7 167 -57 113 -13 -14 -27 -25 -33 -25 -12
0 -38 25 -43 41 -2 7 -14 2 -31 -14 -44 -45 -87 -33 -87 24 0 10 -4 19 -10 19
-5 0 -9 -9 -7 -21 1 -13 -8 -29 -24 -41 -35 -27 -64 -11 -80 43 -7 22 -21 47
-32 54 -18 13 -19 18 -7 62 7 26 19 58 26 70 19 31 18 43 -9 77 -37 46 -54 31
-60 -51 -3 -37 -8 -80 -12 -96 -6 -22 -3 -31 16 -46 13 -10 33 -35 43 -55 15
-29 17 -38 6 -51 -30 -36 -83 -2 -110 70 -15 39 -30 30 -30 -19 0 -46 -14 -61
-47 -49 -27 10 -42 35 -43 68 0 21 -9 38 -32 57 l-32 26 18 74 c10 40 25 84
33 97 17 26 22 101 11 144 -12 48 8 83 62 106 56 24 61 25 93 10 32 -15 44
-43 52 -121 3 -35 8 -73 11 -85 6 -32 42 -30 54 3 14 35 13 41 -8 62 -11 11
-21 38 -25 61 -7 55 10 71 73 71 41 0 48 -3 53 -22 4 -15 -1 -30 -15 -45 -20
-21 -19 -53 2 -53 15 0 12 -33 -9 -81 -15 -35 -17 -56 -12 -101 6 -53 4 -61
-21 -100 -34 -50 -33 -72 3 -76 22 -3 29 2 38 29 6 18 11 43 11 56 0 13 5 34
12 46 7 12 16 47 20 77 4 30 10 71 14 91 4 26 1 39 -10 48 -24 20 -20 77 6 95
30 21 65 20 77 -1 11 -23 -1 -151 -18 -182 -8 -14 -10 -36 -6 -57 4 -22 1 -44
-9 -62 -19 -36 -40 -137 -32 -151 11 -17 44 -13 49 7 3 9 8 39 12 67 4 27 15
66 26 86 14 28 19 65 22 156 5 134 9 151 45 160 58 14 67 -19 37 -137 -9 -36
-21 -96 -25 -134 -5 -37 -16 -76 -25 -85 -19 -22 -22 -141 -2 -141 15 0 69
164 79 240 4 30 12 84 18 120 7 36 12 78 13 95 2 23 8 31 32 39 17 5 44 16 62
24 29 15 37 15 84 -1 38 -11 57 -13 71 -6 10 6 31 9 46 7 22 -2 28 -9 30 -34
2 -19 -3 -36 -12 -44 -18 -14 -21 -46 -6 -55 6 -4 13 7 16 24 4 17 13 36 20
42 8 6 14 19 14 29 0 10 8 28 18 41 18 21 20 22 43 5 13 -9 29 -31 35 -49 l11
-32 7 33 c4 18 18 40 31 48 21 13 28 14 52 2 16 -7 29 -23 31 -36 3 -21 5 -21
25 -7 26 18 61 19 74 3 6 -7 13 -32 17 -54 5 -33 1 -48 -17 -75 -12 -19 -31
-60 -41 -91 -11 -32 -27 -65 -38 -74 -20 -19 -33 -61 -43 -141 -7 -51 -6 -51
32 -77 52 -35 58 -33 32 14 -20 35 -21 44 -11 78 7 22 12 51 12 66 0 30 13 61
40 91 9 11 26 43 36 70 10 28 24 60 30 73 7 13 10 41 7 63 -6 39 -6 39 29 39
38 0 34 -5 72 101 33 93 132 179 206 179 22 0 40 -4 40 -9 0 -5 -17 -22 -39
-38 -57 -41 -77 -78 -96 -181 -17 -89 -17 -93 0 -112 10 -12 21 -40 24 -63 5
-33 10 -42 26 -42 30 0 62 66 69 149 4 39 14 102 23 140 8 38 13 85 10 106 -3
21 1 47 9 61 7 13 13 35 14 47 0 22 -3 23 -37 18 -136 -20 -130 -20 -413 25
-231 37 -298 53 -575 140 -217 68 -501 197 -650 295 -240 157 -484 406 -590
602 -16 29 -34 57 -41 63 -9 7 -52 5 -146 -9 -155 -23 -227 -18 -358 23 -206
65 -430 208 -506 323 -50 75 -117 234 -136 322 -67 309 -66 386 12 735 44 198
147 403 278 554 70 79 217 191 304 230 97 44 220 66 368 66 69 -1 137 -5 152
-9 24 -7 28 -5 33 20 4 16 9 37 12 47 2 10 32 54 64 97 34 44 57 85 53 91 -10
16 -82 4 -113 -19 -18 -13 -28 -32 -32 -61 -7 -52 -22 -69 -44 -51 -30 25 -38
50 -25 80 10 24 9 33 -6 53 -11 13 -31 32 -46 40 -27 15 -28 15 -34 -8 -3 -14
1 -35 11 -53 23 -38 13 -122 -14 -122 -9 0 -23 6 -30 13 -10 10 -15 8 -29 -11
-12 -15 -29 -23 -56 -25 -38 -2 -40 0 -40 27 -1 40 -20 43 -46 6 -12 -16 -30
-30 -39 -30 -10 0 -24 -7 -31 -15 -7 -8 -27 -15 -45 -15 -18 0 -38 -7 -45 -15
-21 -25 -30 -17 -30 28 l0 42 -30 -34 c-17 -18 -30 -40 -30 -47 0 -8 -13 -28
-30 -46 -16 -17 -30 -34 -30 -38 0 -6 -44 -30 -54 -30 -2 0 -6 10 -9 21 l-6
21 -27 -21 c-33 -26 -46 -26 -69 -1 -21 23 -21 24 25 36 31 8 35 14 38 45 2
24 13 46 33 65 29 28 38 58 19 69 -17 10 -11 31 19 69 24 30 28 44 24 70 -5
30 -2 34 21 40 18 4 32 20 47 52 12 24 30 49 40 55 11 5 19 16 19 24 0 8 10
33 22 56 16 32 19 47 12 68 -8 22 -15 25 -41 23 -36 -4 -63 26 -63 70 0 17
-11 39 -30 58 -20 21 -29 38 -25 49 3 10 -1 24 -10 31 -8 7 -15 18 -15 24 0 7
-9 29 -20 51 -11 22 -20 54 -20 71 0 24 -5 33 -22 37 l-23 6 23 21 c27 26 28
46 2 60 -13 7 -20 21 -20 40 0 23 4 30 20 30 11 0 20 5 20 10 0 6 -8 10 -17 8
-13 -2 -17 6 -18 42 -2 50 9 80 29 80 8 0 16 -9 19 -20 5 -21 27 -28 27 -9 0
17 -40 79 -51 79 -16 0 -10 32 9 46 15 11 15 16 4 35 -12 19 -11 25 8 52 12
16 25 41 29 55 4 14 16 30 27 36 28 16 35 28 29 57 -5 19 1 33 23 55 16 16 43
50 60 76 18 25 44 56 59 68 16 12 46 38 68 58 22 21 53 45 68 55 15 10 32 29
37 41 7 18 19 25 55 30 39 6 49 13 70 46 23 37 55 57 74 46 4 -3 16 3 26 14 9
10 30 22 45 25 15 3 36 15 46 27 22 25 74 48 107 48 13 0 37 15 57 35 26 27
42 35 62 33 18 -2 35 6 53 25 15 15 34 27 41 27 20 0 17 -40 -3 -56 -17 -13
-17 -13 0 -14 9 0 17 4 17 8 0 5 11 14 25 20 14 6 27 23 31 39 9 34 18 41 49
35 17 -3 25 -12 27 -32 3 -26 4 -28 22 -14 15 11 17 17 8 26 -9 9 -6 20 10 47
27 47 48 62 70 55 16 -5 18 -2 13 19 -9 35 11 70 37 64 11 -3 30 0 42 8 11 7
47 16 78 20 66 7 90 27 65 52 -14 15 -18 15 -44 -3 -19 -13 -41 -18 -70 -16
-32 3 -46 -1 -63 -18 -27 -27 -55 -21 -101 22 -19 18 -52 45 -74 60 -57 39
-215 204 -215 225 0 10 -9 33 -20 51 -11 18 -20 40 -20 49 0 14 -2 14 -14 -3
-20 -27 -30 -13 -56 81 -12 44 -26 84 -31 90 -5 5 -9 27 -9 50 0 22 -5 69 -11
104 -7 48 -7 66 2 71 15 10 2 70 -16 70 -7 0 -18 -6 -24 -14z m-821 -3562 c0
-14 -21 -19 -33 -7 -9 9 13 34 24 27 5 -3 9 -12 9 -20z m-55 -4 c10 -16 -5
-50 -21 -50 -17 0 -28 24 -20 45 6 17 32 20 41 5z m-410 -831 c-8 -28 -20 -58
-28 -68 -8 -9 -17 -24 -21 -34 -3 -11 -15 -21 -25 -24 -23 -6 -33 -40 -25 -82
5 -22 2 -37 -10 -50 -11 -12 -15 -27 -11 -43 5 -19 1 -28 -17 -40 -20 -13 -23
-23 -20 -51 3 -28 0 -38 -17 -46 -14 -8 -21 -21 -21 -41 0 -17 -4 -30 -9 -30
-18 0 -20 32 -6 87 8 32 15 68 15 81 0 13 9 31 20 40 15 12 22 35 27 81 4 41
13 71 24 82 9 9 20 26 23 36 4 11 17 25 31 31 14 7 27 23 30 39 10 45 34 95
44 89 5 -4 3 -28 -4 -57z m-7 -321 c-4 -42 -34 -51 -44 -14 -7 31 1 46 27 46
17 0 20 -6 17 -32z m-193 -338 c0 -17 -28 -25 -53 -15 -15 6 -15 8 3 21 24 18
50 14 50 -6z m-415 -522 c0 -22 -17 -41 -30 -33 -8 5 -7 12 6 26 20 22 24 23
24 7z m-200 -322 c0 -15 -14 -35 -21 -30 -15 9 -10 34 6 34 8 0 15 -2 15 -4z
m-70 -106 c0 -11 -4 -20 -10 -20 -5 0 -10 9 -10 20 0 11 5 20 10 20 6 0 10 -9
10 -20z m-707 -2682 c-8 -44 -23 -64 -34 -46 -15 23 -10 50 11 55 11 3 20 9
20 14 0 5 2 9 5 9 2 0 2 -15 -2 -32z m31 -170 c26 -37 21 -58 -14 -58 -23 0
-31 5 -36 25 -6 24 9 55 27 55 4 0 15 -10 23 -22z m3456 -12 c0 -8 -4 -18 -10
-21 -5 -3 -10 3 -10 14 0 12 5 21 10 21 6 0 10 -6 10 -14z m-2275 -1876 c-5
-8 -11 -8 -17 -2 -6 6 -7 16 -3 22 5 8 11 8 17 2 6 -6 7 -16 3 -22z"/>
<path d="M4804 13582 c-19 -13 -44 -56 -44 -75 0 -10 9 -32 21 -48 17 -24 27
-29 64 -29 36 0 48 5 69 31 35 41 33 71 -5 103 -30 25 -81 34 -105 18z"/>
<path d="M5055 13510 c-10 -11 -21 -17 -25 -15 -17 10 -40 -8 -40 -31 0 -45
88 -56 110 -14 27 50 -11 98 -45 60z"/>
<path d="M6350 13355 c12 -15 30 -12 30 6 0 5 -10 9 -21 9 -18 0 -19 -2 -9
-15z"/>
<path d="M6175 13075 c-16 -14 -40 -25 -52 -25 -12 0 -59 -18 -104 -40 -46
-22 -94 -40 -106 -40 -13 0 -38 -7 -54 -16 -31 -15 -118 -35 -174 -39 -17 -1
-40 -7 -52 -13 -12 -7 -41 -12 -65 -12 -44 0 -90 -18 -92 -35 -1 -8 22 -12 99
-16 36 -2 270 25 315 37 30 8 68 14 86 14 53 0 124 12 124 21 0 5 -9 9 -19 9
-29 0 -33 15 -11 35 11 10 26 14 39 10 14 -4 23 0 31 15 7 12 21 20 38 20 35
0 102 45 102 69 0 38 -62 41 -105 6z"/>
<path d="M6208 12946 c-44 -16 -33 -26 20 -19 57 7 58 7 30 20 -15 6 -32 6
-50 -1z"/>
<path d="M6570 12925 c0 -8 9 -15 20 -15 11 0 20 7 20 15 0 8 -9 15 -20 15
-11 0 -20 -7 -20 -15z"/>
<path d="M5313 12845 c-20 -8 -35 -10 -39 -4 -6 11 -104 1 -118 -12 -6 -5 -31
-9 -58 -9 -30 0 -67 -9 -103 -26 -92 -44 -62 -58 57 -28 35 9 77 16 93 16 17
-1 39 5 51 12 12 9 41 13 76 11 41 -3 72 3 112 19 31 13 59 26 63 30 12 12
-103 5 -134 -9z"/>
<path d="M7375 12730 c-8 -13 4 -32 16 -25 12 8 12 35 0 35 -6 0 -13 -4 -16
-10z"/>
<path d="M6240 12711 c0 -10 -7 -21 -15 -25 -13 -5 -22 -36 -11 -36 19 0 36
16 36 34 0 12 5 27 12 34 9 9 8 12 -5 12 -10 0 -17 -8 -17 -19z"/>
<path d="M7252 12718 c-16 -16 -15 -28 3 -28 8 0 15 9 15 20 0 23 -2 24 -18 8z"/>
<path d="M7655 12710 c-4 -6 -3 -16 3 -22 6 -6 12 -6 17 2 4 6 3 16 -3 22 -6
6 -12 6 -17 -2z"/>
<path d="M5962 12684 c4 -21 22 -23 26 -1 2 10 -3 17 -13 17 -10 0 -15 -6 -13
-16z"/>
<path d="M6087 12676 c-6 -16 2 -28 14 -20 12 7 11 34 0 34 -5 0 -11 -6 -14
-14z"/>
<path d="M5705 12670 c-8 -12 20 -24 35 -15 5 3 10 10 10 16 0 12 -37 12 -45
-1z"/>
<path d="M6442 12669 c2 -6 8 -10 13 -10 5 0 11 4 13 10 2 6 -4 11 -13 11 -9
0 -15 -5 -13 -11z"/>
<path d="M5820 12660 c0 -5 7 -10 15 -10 8 0 15 5 15 10 0 6 -7 10 -15 10 -8
0 -15 -4 -15 -10z"/>
<path d="M7828 12638 c-7 -19 2 -38 17 -38 15 0 28 27 19 41 -8 13 -31 11 -36
-3z"/>
<path d="M5160 12621 c-12 -23 3 -37 17 -18 22 27 24 37 9 37 -8 0 -20 -9 -26
-19z"/>
<path d="M5626 12595 c-18 -27 -14 -45 9 -45 11 0 24 28 26 57 1 19 -20 11
-35 -12z"/>
<path d="M6150 12594 c0 -17 22 -14 28 4 2 7 -3 12 -12 12 -9 0 -16 -7 -16
-16z"/>
<path d="M8001 12582 c-15 -27 -14 -32 4 -32 20 0 31 28 17 42 -7 7 -14 4 -21
-10z"/>
<path d="M4840 12576 c0 -19 27 -28 33 -11 7 15 -1 25 -20 25 -7 0 -13 -6 -13
-14z"/>
<path d="M5860 12575 c-14 -17 -5 -36 15 -28 16 6 21 43 6 43 -5 0 -14 -7 -21
-15z"/>
<path d="M5985 12559 c-4 -6 -5 -13 -2 -16 7 -7 27 6 27 18 0 12 -17 12 -25
-2z"/>
<path d="M5050 12525 c-10 -12 -10 -15 4 -15 9 0 16 7 16 15 0 8 -2 15 -4 15
-2 0 -9 -7 -16 -15z"/>
<path d="M5185 12499 c-10 -15 3 -25 16 -12 7 7 7 13 1 17 -6 3 -14 1 -17 -5z"/>
<path d="M5311 12496 c-8 -10 -9 -16 -1 -21 5 -3 13 1 16 10 9 22 -1 29 -15
11z"/>
<path d="M4717 12493 c-14 -13 -6 -23 18 -23 16 0 25 6 25 15 0 15 -31 21 -43
8z"/>
<path d="M5777 12485 c-7 -16 8 -29 23 -20 15 9 12 35 -4 35 -8 0 -16 -7 -19
-15z"/>
<path d="M4966 12454 c-8 -21 -3 -26 18 -18 20 8 21 34 2 34 -8 0 -17 -7 -20
-16z"/>
<path d="M4645 12419 c-4 -6 -3 -15 3 -21 6 -6 11 -4 15 6 7 18 -9 31 -18 15z"/>
<path d="M5460 12415 c0 -8 5 -15 10 -15 6 0 10 7 10 15 0 8 -4 15 -10 15 -5
0 -10 -7 -10 -15z"/>
<path d="M4505 12399 c-4 -6 -5 -13 -2 -16 7 -7 27 6 27 18 0 12 -17 12 -25
-2z"/>
<path d="M4280 12371 c0 -5 -3 -17 -6 -25 -5 -13 -2 -15 12 -9 22 8 35 24 28
35 -7 11 -34 10 -34 -1z"/>
<path d="M4416 12353 c-11 -11 -6 -23 9 -23 8 0 15 4 15 9 0 13 -16 22 -24 14z"/>
<path d="M9145 12230 c-4 -6 -3 -16 3 -22 13 -13 23 4 13 21 -7 10 -10 10 -16
1z"/>
<path d="M9295 12190 c-7 -12 2 -30 16 -30 12 0 12 27 0 35 -5 3 -12 1 -16 -5z"/>
<path d="M4180 12180 c0 -5 7 -10 15 -10 8 0 15 5 15 10 0 6 -7 10 -15 10 -8
0 -15 -4 -15 -10z"/>
<path d="M3965 12169 c-4 -6 -4 -13 -1 -16 8 -8 36 5 36 17 0 13 -27 13 -35
-1z"/>
<path d="M9237 12093 c-3 -5 -2 -15 2 -22 7 -10 10 -10 16 -1 4 6 3 16 -3 22
-5 5 -12 6 -15 1z"/>
<path d="M9420 12090 c0 -5 6 -10 14 -10 8 0 18 5 21 10 3 6 -3 10 -14 10 -12
0 -21 -4 -21 -10z"/>
<path d="M6750 12041 l-65 -6 66 -13 c81 -15 106 -15 115 -1 8 13 -14 29 -36
27 -8 -1 -44 -4 -80 -7z"/>
<path d="M5911 12031 c-43 -12 -37 -31 9 -31 33 0 41 3 38 17 -4 20 -15 23
-47 14z"/>
<path d="M6924 12029 c-3 -6 -2 -15 3 -20 12 -12 63 5 63 21 0 13 -57 13 -66
-1z"/>
<path d="M5666 12023 c-4 -5 -62 -8 -129 -8 -102 0 -122 -2 -122 -15 0 -10 11
-16 35 -17 19 -1 47 -4 63 -8 16 -4 27 -3 27 3 0 17 38 20 60 5 16 -11 25 -12
33 -4 6 6 25 11 43 11 31 0 60 21 47 33 -9 9 -48 9 -57 0z"/>
<path d="M6155 12017 c-11 -9 -14 -16 -7 -21 15 -9 42 4 42 20 0 18 -11 18
-35 1z"/>
<path d="M7054 12019 c-7 -12 12 -29 34 -29 19 0 14 18 -7 30 -14 7 -22 7 -27
-1z"/>
<path d="M5750 12012 c0 -13 25 -22 57 -22 15 0 23 5 21 13 -5 14 -78 23 -78
9z"/>
<path d="M6023 12013 c-7 -2 -13 -9 -13 -14 0 -15 53 -6 58 9 4 12 -21 15 -45
5z"/>
<path d="M6265 12010 c-4 -6 5 -10 19 -10 14 0 26 5 26 10 0 6 -9 10 -19 10
-11 0 -23 -4 -26 -10z"/>
<path d="M6510 12013 c-51 -8 -55 -16 -10 -24 25 -4 59 -3 77 3 18 5 38 6 45
2 10 -6 11 -4 1 7 -13 13 -65 18 -113 12z"/>
<path d="M7145 12010 c-17 -7 -15 -9 11 -9 17 -1 44 -5 60 -10 32 -10 138 -23
114 -14 -8 4 -21 14 -27 24 -10 13 -27 17 -75 17 -35 0 -72 -4 -83 -8z"/>
<path d="M7426 11981 c-7 -11 18 -33 27 -24 4 3 7 12 7 20 0 15 -26 18 -34 4z"/>
<path d="M7530 11971 c0 -5 14 -11 30 -13 20 -3 30 0 30 9 0 8 -12 13 -30 13
-16 0 -30 -4 -30 -9z"/>
<path d="M7730 11951 c0 -8 64 -51 76 -51 11 0 2 29 -14 43 -20 18 -62 23 -62
8z"/>
<path d="M7854 11934 c3 -9 6 -20 6 -25 0 -5 9 -9 20 -9 24 0 28 35 4 44 -26
10 -36 7 -30 -10z"/>
<path d="M7985 11920 c-7 -11 35 -30 67 -30 11 0 33 -11 49 -24 l29 -25 35 22
c57 36 42 51 -50 54 -44 1 -90 5 -102 8 -12 3 -25 1 -28 -5z"/>
<path d="M5275 11910 c-8 -12 17 -23 41 -18 10 1 19 9 22 16 5 15 -54 17 -63
2z"/>
<path d="M8243 11858 c2 -7 9 -13 15 -12 7 1 27 2 45 4 l32 2 -30 8 c-47 12
-67 11 -62 -2z"/>
<path d="M8370 11830 c0 -12 50 -34 58 -25 8 8 -9 22 -35 30 -14 4 -23 2 -23
-5z"/>
<path d="M5213 11732 c-26 -22 -30 -30 -22 -44 5 -10 16 -18 24 -18 13 0 65
65 65 82 0 17 -37 6 -67 -20z"/>
<path d="M5540 11740 c0 -11 5 -20 10 -20 6 0 10 9 10 20 0 11 -4 20 -10 20
-5 0 -10 -9 -10 -20z"/>
<path d="M7540 11717 c0 -16 31 -47 48 -47 17 0 15 13 -6 31 -31 27 -42 31
-42 16z"/>
<path d="M8670 11724 c0 -10 51 -57 79 -71 52 -29 70 -8 19 21 -18 10 -48 28
-65 38 -18 11 -33 16 -33 12z"/>
<path d="M7260 11713 c0 -5 12 -19 25 -32 14 -13 25 -32 25 -43 0 -17 -4 -19
-27 -13 -16 3 -35 13 -44 21 -17 15 -39 19 -39 6 0 -5 20 -19 45 -31 25 -12
45 -27 45 -32 0 -5 9 -9 20 -9 13 0 20 7 20 19 0 11 5 23 10 26 16 10 12 17
-26 58 -33 35 -54 46 -54 30z"/>
<path d="M5540 11675 c0 -8 -4 -15 -10 -15 -5 0 -10 -5 -10 -12 0 -6 9 -3 20
7 22 20 26 35 10 35 -5 0 -10 -7 -10 -15z"/>
<path d="M5342 11668 c-20 -20 -14 -40 11 -36 14 2 22 10 22 22 0 24 -16 31
-33 14z"/>
<path d="M5778 11656 c-26 -20 -38 -56 -20 -56 16 0 54 48 50 63 -2 13 -8 11
-30 -7z"/>
<path d="M5655 11649 c-4 -6 -4 -13 -1 -16 8 -8 36 5 36 17 0 13 -27 13 -35
-1z"/>
<path d="M7080 11652 c0 -5 9 -17 21 -28 21 -19 21 -19 18 6 -4 23 -39 43 -39
22z"/>
<path d="M6930 11645 c0 -20 35 -67 74 -98 49 -41 56 -44 56 -22 0 8 -3 15 -7
15 -5 0 -19 17 -32 38 -14 20 -34 45 -45 54 -20 17 -46 24 -46 13z"/>
<path d="M5140 11611 c-14 -27 -13 -31 10 -31 16 0 40 26 40 44 0 15 -40 4
-50 -13z"/>
<path d="M3405 11590 c-7 -12 2 -30 16 -30 5 0 9 9 9 20 0 21 -15 27 -25 10z"/>
<path d="M6245 11589 c-4 -6 -5 -13 -2 -16 7 -7 27 6 27 18 0 12 -17 12 -25
-2z"/>
<path d="M5985 11580 c-3 -5 1 -10 9 -10 8 0 18 5 21 10 3 6 -1 10 -9 10 -8 0
-18 -4 -21 -10z"/>
<path d="M6355 11540 c-27 -37 -35 -54 -27 -62 15 -15 95 64 90 88 -6 33 -26
25 -63 -26z"/>
<path d="M7342 11561 c2 -7 7 -12 11 -12 12 1 9 15 -3 20 -7 2 -11 -2 -8 -8z"/>
<path d="M6078 11548 c9 -9 15 -9 24 0 9 9 7 12 -12 12 -19 0 -21 -3 -12 -12z"/>
<path d="M9002 11533 c2 -10 13 -17 31 -17 34 -2 35 7 2 22 -34 16 -37 15 -33
-5z"/>
<path d="M3430 11526 c0 -9 7 -16 16 -16 9 0 14 5 12 12 -6 18 -28 21 -28 4z"/>
<path d="M4952 11490 c-18 -19 -32 -40 -32 -46 0 -6 -11 -24 -25 -40 -28 -33
-32 -54 -10 -54 8 0 15 -7 15 -15 0 -12 -4 -13 -19 -5 -23 12 -31 13 -30 3 1
-5 1 -19 0 -32 -1 -19 -5 -22 -25 -17 -21 5 -24 2 -29 -29 -3 -20 -19 -47 -36
-64 -17 -17 -31 -35 -31 -40 0 -22 -24 -62 -47 -77 -19 -12 -27 -13 -39 -3 -8
6 -16 10 -17 8 -38 -56 -63 -98 -67 -114 -3 -11 -17 -26 -32 -32 -14 -7 -38
-30 -54 -50 -16 -21 -63 -72 -106 -115 -43 -43 -78 -82 -78 -88 0 -5 -18 -14
-39 -20 -22 -6 -58 -26 -81 -45 -23 -19 -48 -35 -54 -35 -17 0 -42 -29 -50
-57 -10 -31 9 -30 59 4 34 23 51 27 115 28 66 0 75 3 79 20 5 27 77 110 135
157 28 21 78 65 111 96 113 104 183 162 197 162 8 0 42 22 76 50 33 27 78 60
99 74 21 13 55 41 76 60 21 20 49 39 63 42 13 4 29 14 34 24 5 10 21 21 35 24
14 4 34 15 45 26 30 30 95 26 161 -8 78 -42 195 -75 236 -67 31 6 47 25 21 25
-7 0 -63 25 -123 55 -112 56 -217 90 -238 79 -7 -4 -23 -16 -35 -28 l-24 -21
-18 22 c-30 38 -100 57 -100 28 0 -21 -157 -178 -165 -165 -7 12 -55 -19 -98
-63 -15 -17 -30 -27 -33 -24 -7 7 39 78 65 99 12 10 21 25 21 33 0 8 9 15 20
15 11 0 24 8 27 17 4 9 15 25 25 35 10 10 18 25 18 33 0 8 4 15 9 15 5 0 28
12 51 27 l42 28 -27 23 c-15 12 -30 35 -34 50 l-7 27 -32 -35z"/>
<path d="M5448 11481 c-27 -9 -48 -19 -48 -23 0 -5 24 -8 53 -8 55 0 95 19 83
38 -9 15 -28 13 -88 -7z"/>
<path d="M5298 11459 c-10 -6 -18 -14 -18 -19 0 -14 37 -12 46 1 10 17 -9 29
-28 18z"/>
<path d="M4302 11409 c-29 -24 -52 -46 -52 -50 0 -20 22 -18 45 5 14 15 30 26
34 26 17 0 45 40 34 51 -6 6 -27 -4 -61 -32z"/>
<path d="M7090 11420 c13 -24 41 -40 72 -40 22 1 22 2 -10 30 -38 36 -79 42
-62 10z"/>
<path d="M8080 11430 c0 -20 49 -42 80 -35 26 6 28 9 20 26 -8 14 -22 19 -55
19 -25 0 -45 -4 -45 -10z"/>
<path d="M5535 11396 c-21 -15 -12 -36 16 -36 12 0 19 7 19 19 0 27 -13 33
-35 17z"/>
<path d="M5690 11394 c0 -10 7 -14 22 -12 32 5 35 28 4 28 -17 0 -26 -5 -26
-16z"/>
<path d="M8440 11384 c0 -18 48 -121 59 -129 19 -11 19 11 -1 64 -22 59 -35
81 -49 81 -5 0 -9 -7 -9 -16z"/>
<path d="M4586 11364 c-9 -23 -7 -36 3 -30 12 8 21 46 11 46 -4 0 -11 -7 -14
-16z"/>
<path d="M9292 11349 c2 -7 10 -15 17 -17 8 -3 12 1 9 9 -2 7 -10 15 -17 17
-8 3 -12 -1 -9 -9z"/>
<path d="M5867 11343 c-12 -12 -7 -31 9 -37 17 -6 54 19 54 36 0 10 -54 11
-63 1z"/>
<path d="M6146 11335 c-10 -8 -24 -16 -30 -18 -6 -2 -8 -8 -4 -12 9 -9 88 25
88 38 0 12 -34 7 -54 -8z"/>
<path d="M8600 11320 c0 -26 12 -60 21 -60 14 0 10 34 -6 56 -11 14 -14 15
-15 4z"/>
<path d="M4527 11263 c-20 -33 -37 -65 -37 -71 0 -5 -7 -16 -16 -23 -25 -21
-64 -86 -64 -108 0 -10 -7 -24 -15 -31 -8 -7 -15 -20 -15 -29 0 -9 -13 -40
-29 -68 -46 -84 -2 -64 71 31 32 42 37 56 36 97 0 32 5 53 16 64 9 9 16 25 16
36 0 10 4 19 9 19 6 0 17 12 25 28 56 104 59 147 3 55z"/>
<path d="M8782 11265 c12 -27 28 -34 28 -12 0 14 -20 37 -32 37 -4 0 -2 -11 4
-25z"/>
<path d="M9420 11280 c0 -5 7 -10 15 -10 8 0 15 5 15 10 0 6 -7 10 -15 10 -8
0 -15 -4 -15 -10z"/>
<path d="M6037 11264 c-9 -10 2 -24 19 -24 8 0 14 7 14 15 0 15 -21 21 -33 9z"/>
<path d="M9485 11230 c-8 -13 13 -40 31 -40 17 0 17 5 4 31 -12 21 -25 25 -35
9z"/>
<path d="M9040 11200 c0 -34 58 -183 86 -220 7 -8 15 -26 19 -40 17 -61 60
-129 73 -116 3 4 -24 71 -53 131 -22 45 -84 195 -98 238 -7 18 -27 24 -27 7z"/>
<path d="M4193 11173 c-7 -3 -13 -16 -13 -30 0 -18 5 -24 17 -21 19 4 30 35
16 48 -4 4 -14 5 -20 3z"/>
<path d="M4670 11165 c0 -8 4 -15 9 -15 5 0 14 7 21 15 10 13 9 15 -9 15 -12
0 -21 -6 -21 -15z"/>
<path d="M9634 11085 c-4 -9 -2 -21 3 -26 14 -14 45 1 41 20 -4 22 -37 26 -44
6z"/>
<path d="M8580 11051 c0 -13 13 -25 40 -38 30 -14 45 -29 61 -64 20 -43 54
-77 66 -65 14 13 -12 57 -65 113 -64 67 -102 87 -102 54z"/>
<path d="M8840 11055 c-14 -16 -5 -35 16 -35 15 0 20 35 5 44 -5 3 -14 -1 -21
-9z"/>
<path d="M3732 10970 c-16 -25 -15 -30 3 -30 12 0 35 28 35 44 0 14 -26 4 -38
-14z"/>
<path d="M9372 10910 c-17 -27 -15 -37 8 -62 l20 -22 0 52 c0 55 -8 64 -28 32z"/>
<path d="M9677 10874 c3 -25 1 -44 -6 -48 -18 -12 -13 -54 13 -94 13 -21 32
-64 42 -96 13 -38 33 -73 59 -100 47 -49 112 -83 128 -67 13 13 -6 37 -37 45
-15 4 -38 30 -65 73 -23 38 -45 75 -51 83 -25 42 -41 90 -47 143 -3 33 -14 68
-24 80 -17 22 -18 22 -12 -19z"/>
<path d="M3605 10839 c-4 -6 -4 -13 -1 -16 8 -8 36 5 36 17 0 13 -27 13 -35
-1z"/>
<path d="M8895 10829 c-4 -6 -1 -15 6 -20 21 -13 31 -11 27 8 -4 20 -24 28
-33 12z"/>
<path d="M4026 10815 c-9 -9 -16 -24 -16 -33 0 -9 -7 -26 -15 -36 -8 -11 -15
-28 -15 -39 0 -10 -7 -25 -15 -33 -17 -17 -20 -44 -5 -44 5 0 12 11 16 25 3
14 10 25 15 25 4 0 23 29 41 65 22 46 29 68 21 76 -7 7 -15 5 -27 -6z"/>
<path d="M3603 10607 c-25 -25 -33 -42 -33 -70 0 -20 3 -37 6 -37 15 0 43 48
44 73 0 15 7 30 15 33 15 6 21 34 8 34 -5 0 -23 -15 -40 -33z"/>
<path d="M3864 10510 c-4 -16 -13 -35 -20 -41 -16 -13 -18 -35 -4 -44 11 -7
49 69 50 98 0 29 -20 19 -26 -13z"/>
<path d="M3636 10474 c-20 -19 -21 -44 -3 -44 19 0 50 37 42 49 -9 15 -21 14
-39 -5z"/>
<path d="M9952 10457 c-9 -11 -10 -17 -2 -22 15 -9 23 -1 18 21 -3 15 -4 16
-16 1z"/>
<path d="M3512 10433 c2 -21 9 -29 27 -31 16 -3 21 0 17 10 -3 7 -9 21 -12 31
-10 29 -36 21 -32 -10z"/>
<path d="M4316 10453 c-11 -11 -6 -23 9 -23 8 0 15 4 15 9 0 13 -16 22 -24 14z"/>
<path d="M3597 10393 c-2 -4 -8 -26 -12 -48 l-7 -40 27 25 c14 14 25 33 23 44
-3 20 -23 33 -31 19z"/>
<path d="M9999 10374 c-11 -14 -10 -18 6 -30 33 -25 54 -9 35 26 -13 24 -23
25 -41 4z"/>
<path d="M3457 10374 c-14 -14 -7 -62 9 -68 24 -9 45 13 42 43 -3 26 -35 41
-51 25z"/>
<path d="M9667 10314 c-14 -14 -6 -24 19 -24 16 0 24 5 22 13 -5 14 -31 21
-41 11z"/>
<path d="M3402 10173 c-12 -19 -20 -38 -17 -41 9 -9 55 40 55 60 0 27 -12 21
-38 -19z"/>
<path d="M9920 10190 c0 -9 31 -30 44 -30 3 0 6 9 6 20 0 15 -7 20 -25 20 -14
0 -25 -4 -25 -10z"/>
<path d="M10157 10193 c-10 -9 -8 -66 2 -82 15 -24 31 -1 31 45 0 42 -14 57
-33 37z"/>
<path d="M9952 10023 c4 -32 17 -38 43 -18 20 15 20 15 1 30 -31 23 -48 19
-44 -12z"/>
<path d="M10082 10038 c-17 -17 -15 -25 8 -31 21 -5 45 16 35 33 -8 13 -28 13
-43 -2z"/>
<path d="M3607 9753 c-17 -17 -3 -36 41 -55 26 -12 62 -32 80 -46 35 -27 51
-24 36 7 -24 51 -134 117 -157 94z"/>
<path d="M7002 9638 c5 -15 28 -18 29 -3 0 6 -7 12 -17 13 -10 3 -15 -1 -12
-10z"/>
<path d="M6613 9598 c-13 -20 -33 -60 -33 -65 0 -2 16 8 35 23 36 27 46 54 21
54 -8 0 -18 -6 -23 -12z"/>
<path d="M7193 9364 c-3 -8 -1 -20 6 -27 8 -8 11 -4 11 16 0 30 -7 35 -17 11z"/>
<path d="M3245 9350 c-4 -6 1 -23 11 -37 l17 -27 19 24 c10 13 17 28 15 34 -5
15 -53 20 -62 6z"/>
<path d="M6618 9349 c-26 -15 -23 -64 4 -83 28 -20 72 -21 87 -2 16 19 4 63
-22 81 -25 17 -45 19 -69 4z"/>
<path d="M7013 9305 c-27 -19 -50 -92 -34 -108 7 -7 23 -2 50 16 48 32 74 68
65 91 -8 20 -52 21 -81 1z"/>
<path d="M3785 9267 c-22 -13 -107 -90 -137 -122 -80 -87 -99 -117 -137 -216
-27 -72 -42 -131 -47 -182 -6 -64 -11 -81 -35 -108 -26 -29 -27 -34 -14 -58 7
-15 25 -32 40 -39 23 -11 27 -9 35 11 18 41 40 176 40 239 0 37 6 72 14 83 7
11 16 33 20 48 19 79 151 206 213 207 34 0 53 27 53 75 0 45 -8 75 -19 75 -3
-1 -15 -6 -26 -13z"/>
<path d="M3247 9252 c-13 -3 -16 -9 -11 -25 13 -46 44 -47 44 -2 0 27 -7 33
-33 27z"/>
<path d="M10135 9226 c-33 -14 -61 -43 -51 -53 3 -3 24 0 46 7 31 10 46 11 66
1 20 -9 30 -9 40 0 17 14 0 51 -20 43 -8 -3 -17 -1 -21 5 -8 14 -23 13 -60 -3z"/>
<path d="M3176 9134 c-9 -25 -7 -72 4 -79 6 -3 10 -17 10 -30 0 -13 4 -27 10
-30 6 -4 4 -15 -5 -29 -13 -19 -13 -25 1 -44 8 -12 21 -22 28 -22 17 0 29 46
18 66 -5 9 -6 35 -1 57 4 23 3 49 -2 59 -5 9 -6 24 -3 33 7 18 -10 35 -37 35
-9 0 -20 -7 -23 -16z"/>
<path d="M10015 9131 c-6 -11 9 -23 19 -14 9 9 7 23 -3 23 -6 0 -12 -4 -16 -9z"/>
<path d="M3867 8933 c-11 -10 -8 -111 3 -118 6 -4 10 18 10 59 0 66 -1 72 -13
59z"/>
<path d="M6288 8872 c-10 -2 -18 -7 -18 -10 0 -9 101 -71 149 -93 20 -9 65
-30 101 -46 36 -17 88 -38 115 -47 28 -9 77 -24 110 -35 33 -10 74 -23 90 -29
17 -6 48 -15 70 -20 22 -6 67 -18 99 -27 76 -22 171 -31 180 -17 11 18 -42 42
-119 53 -42 5 -110 21 -151 35 -41 13 -92 24 -113 24 -22 0 -44 6 -51 15 -7 8
-29 15 -49 15 -20 0 -58 11 -86 25 -27 13 -58 25 -67 25 -10 0 -28 10 -40 22
-21 21 -143 93 -183 107 -11 4 -28 6 -37 3z"/>
<path d="M3234 8836 c-4 -10 -2 -22 4 -28 8 -8 13 -7 18 6 4 10 2 22 -4 28 -8
8 -13 7 -18 -6z"/>
<path d="M9915 8750 c-34 -66 -16 -93 101 -148 23 -11 75 -89 92 -137 31 -89
35 -129 29 -275 -4 -82 -4 -156 -1 -164 4 -10 18 -16 36 -16 30 0 31 0 23 43
-4 23 -7 51 -6 62 6 56 -1 291 -8 300 -5 5 -20 42 -33 80 -17 46 -47 100 -91
159 -37 49 -67 92 -67 96 0 6 -44 30 -55 30 -3 0 -11 -13 -20 -30z"/>
<path d="M7223 8557 c-7 -12 27 -35 64 -43 18 -3 65 -2 105 2 57 7 73 13 76
27 3 15 -5 17 -65 17 -37 1 -92 2 -121 3 -30 1 -56 -1 -59 -6z"/>
<path d="M5170 8380 c0 -5 7 -10 15 -10 8 0 15 5 15 10 0 6 -7 10 -15 10 -8 0
-15 -4 -15 -10z"/>
<path d="M2880 8061 c0 -11 -11 -32 -24 -48 -28 -33 -53 -99 -42 -110 11 -11
54 45 61 78 3 15 15 35 26 45 25 23 25 54 -1 54 -13 0 -20 -7 -20 -19z"/>
<path d="M11850 7665 c0 -8 7 -15 16 -15 14 0 14 3 4 15 -7 8 -14 15 -16 15
-2 0 -4 -7 -4 -15z"/>
<path d="M3426 7367 c-19 -14 -13 -47 10 -47 9 0 14 11 14 30 0 34 0 34 -24
17z"/>
<path d="M4252 7299 c-22 -89 -34 -135 -49 -186 -13 -43 -14 -55 -3 -68 10
-12 10 -22 3 -38 -10 -21 -33 -117 -33 -138 0 -5 5 -9 10 -9 19 0 61 115 71
195 26 202 26 349 1 244z"/>
<path d="M3410 7255 c0 -14 5 -25 10 -25 6 0 10 11 10 25 0 14 -4 25 -10 25
-5 0 -10 -11 -10 -25z"/>
<path d="M2233 7189 c-12 -18 -19 -38 -16 -47 5 -12 12 -8 35 17 29 33 37 61
16 61 -7 0 -23 -14 -35 -31z"/>
<path d="M3388 7167 c-5 -10 -8 -26 -8 -35 0 -10 -9 -34 -20 -55 -11 -20 -20
-48 -20 -60 0 -35 -19 -85 -36 -91 -20 -8 -19 -66 1 -66 18 0 35 39 35 81 0
17 6 32 14 35 8 3 18 20 21 37 3 18 11 44 16 58 12 31 8 125 -3 96z"/>
<path d="M3664 7099 c-8 -14 11 -33 25 -25 6 4 11 11 11 16 0 13 -29 20 -36 9z"/>
<path d="M10010 7051 c0 -20 17 -37 27 -28 7 8 -7 47 -18 47 -5 0 -9 -9 -9
-19z"/>
<path d="M10047 6986 c-5 -12 67 -131 116 -191 13 -16 32 -46 41 -67 10 -20
26 -44 37 -54 10 -9 19 -27 19 -39 0 -12 11 -32 24 -44 14 -13 33 -49 42 -80
18 -55 87 -151 110 -151 6 0 14 -18 17 -41 5 -36 43 -96 55 -85 9 10 -21 107
-37 119 -17 13 -39 48 -71 113 -14 29 -18 52 -14 73 4 20 3 31 -5 31 -6 0 -11
-7 -11 -15 0 -8 -5 -15 -10 -15 -6 0 -13 7 -16 15 -4 8 -12 15 -20 15 -8 0
-14 10 -14 24 0 14 -5 28 -11 32 -6 3 -22 31 -35 60 -13 30 -28 54 -33 54 -5
0 -18 22 -29 48 -12 27 -28 55 -37 62 -8 7 -29 38 -46 70 -34 62 -64 89 -72
66z"/>
<path d="M2673 6918 c-5 -7 -13 -20 -16 -29 -4 -13 -1 -16 15 -11 23 6 35 29
21 43 -6 6 -13 5 -20 -3z"/>
<path d="M4081 6906 c-9 -10 -9 -21 -3 -32 8 -14 10 -12 16 11 8 33 3 41 -13
21z"/>
<path d="M9554 6825 c12 -28 26 -33 26 -10 0 8 -9 19 -19 24 -17 10 -18 9 -7
-14z"/>
<path d="M2591 6807 c-11 -18 -31 -43 -45 -56 -31 -29 -37 -68 -8 -50 26 17
92 105 92 123 0 26 -17 18 -39 -17z"/>
<path d="M9601 6760 c0 -15 16 -43 39 -70 33 -37 40 -41 40 -24 0 12 -9 32
-21 45 -11 13 -29 35 -40 49 l-18 25 0 -25z"/>
<path d="M4107 6723 c-4 -3 -7 -22 -7 -42 0 -42 16 -32 26 17 6 30 -3 42 -19
25z"/>
<path d="M2622 6637 c-12 -13 -22 -27 -22 -32 0 -5 -12 -21 -27 -37 -14 -15
-23 -31 -19 -35 8 -8 83 73 92 100 9 28 0 29 -24 4z"/>
<path d="M4062 6604 c-27 -18 -33 -88 -7 -78 8 4 15 18 15 33 0 15 5 32 12 39
19 19 4 23 -20 6z"/>
<path d="M7004 6553 c-4 -15 -2 -75 3 -133 6 -58 9 -119 6 -135 -6 -39 25 -70
60 -61 30 7 40 41 23 75 -8 14 -18 67 -24 117 -16 135 -51 206 -68 137z"/>
<path d="M3600 6519 c0 -20 4 -29 9 -23 15 15 17 47 4 51 -9 3 -13 -6 -13 -28z"/>
<path d="M11421 6496 c7 -15 15 -23 17 -16 3 7 -3 19 -13 28 -15 16 -16 15 -4
-12z"/>
<path d="M4015 6487 c-8 -13 -18 -39 -21 -58 -10 -53 -43 -110 -84 -149 -20
-19 -43 -53 -50 -75 -7 -22 -23 -54 -36 -72 -23 -30 -32 -73 -16 -73 14 0 52
31 52 43 0 7 14 30 30 51 17 22 30 45 30 52 0 6 7 17 15 24 50 41 102 152 112
238 5 47 -8 55 -32 19z"/>
<path d="M4440 6471 c0 -22 5 -43 10 -46 15 -9 12 -46 -6 -96 -8 -24 -20 -73
-25 -109 -5 -35 -16 -74 -24 -87 -20 -30 -19 -56 4 -84 22 -27 25 -23 36 43 3
21 19 63 36 94 26 51 28 60 17 89 -10 30 -9 36 15 65 34 39 34 54 1 68 -20 10
-24 17 -18 35 3 12 11 27 16 34 10 13 4 18 -34 27 -27 6 -28 5 -28 -33z"/>
<path d="M2192 6457 c-26 -55 -27 -64 -7 -47 8 7 15 20 15 29 0 9 5 22 11 28
6 6 9 17 7 24 -2 7 -14 -9 -26 -34z"/>
<path d="M3575 6449 c-4 -5 -4 -22 0 -37 5 -20 8 -23 16 -11 12 19 12 59 0 59
-6 0 -13 -5 -16 -11z"/>
<path d="M5387 6388 c-20 -43 -37 -98 -37 -114 0 -17 34 -18 47 -1 10 12 24
72 27 116 2 37 -21 36 -37 -1z"/>
<path d="M9080 6394 c0 -35 14 -59 29 -50 17 11 13 41 -9 61 -20 18 -20 17
-20 -11z"/>
<path d="M5496 6394 c-9 -9 -16 -32 -16 -55 0 -21 -4 -39 -10 -39 -13 0 -34
-75 -26 -95 10 -27 33 -1 41 47 4 22 18 62 32 88 31 60 18 94 -21 54z"/>
<path d="M5712 6393 c-20 -8 -67 -147 -56 -165 13 -20 34 -6 34 23 0 16 14 54
30 84 17 30 30 56 30 59 0 7 -20 6 -38 -1z"/>
<path d="M4727 6383 c-3 -5 -5 -31 -4 -58 0 -35 -7 -67 -26 -107 -44 -93 -34
-208 18 -208 12 0 30 80 24 106 -4 15 13 87 25 109 10 18 35 100 36 118 1 24
-62 59 -73 40z"/>
<path d="M5812 6381 c-19 -12 -61 -102 -55 -118 11 -27 34 -7 60 50 26 56 23
86 -5 68z"/>
<path d="M2146 6355 c-14 -21 -14 -25 -2 -25 8 0 18 9 21 21 10 31 0 33 -19 4z"/>
<path d="M6130 6371 c0 -5 -11 -23 -25 -39 -13 -16 -28 -48 -34 -71 -5 -23
-16 -50 -24 -59 -21 -24 -54 -122 -62 -185 -9 -68 6 -107 40 -107 28 0 32 15
10 40 -26 29 -29 73 -6 99 12 13 21 38 21 55 0 20 7 36 19 43 10 6 31 45 47
85 15 40 36 80 47 89 24 20 15 59 -14 59 -10 0 -19 -4 -19 -9z"/>
<path d="M5902 6348 c-5 -7 -13 -28 -17 -46 -4 -19 -20 -45 -36 -59 -22 -21
-29 -35 -29 -65 0 -36 1 -37 20 -26 11 7 29 41 41 75 11 34 27 67 35 73 15 13
20 60 5 60 -5 0 -13 -6 -19 -12z"/>
<path d="M3566 6324 c-3 -8 -3 -34 1 -57 7 -42 7 -42 14 -12 10 45 10 85 0 85
-5 0 -12 -7 -15 -16z"/>
<path d="M5563 6305 c-15 -10 -23 -29 -26 -62 -3 -27 -9 -63 -12 -80 -8 -35 1
-41 27 -20 15 12 58 133 58 162 0 19 -20 19 -47 0z"/>
<path d="M3240 6301 c0 -6 -11 -16 -25 -21 -24 -9 -36 -40 -16 -40 13 0 55 60
47 67 -3 4 -6 1 -6 -6z"/>
<path d="M6210 6255 c0 -19 -4 -35 -9 -35 -22 0 -40 -31 -35 -60 5 -22 1 -33
-21 -52 -15 -12 -33 -35 -41 -50 -17 -32 -18 -94 -3 -104 20 -12 60 41 75 102
9 32 22 69 30 81 8 12 14 32 14 43 0 18 5 21 33 18 40 -4 47 -31 18 -79 -41
-67 -45 -79 -33 -91 17 -17 42 -1 42 26 0 13 11 48 25 78 24 52 24 53 5 62
-11 5 -20 14 -20 21 0 17 -51 75 -66 75 -9 0 -14 -12 -14 -35z"/>
<path d="M5743 6222 c-12 -9 -25 -30 -28 -47 -4 -16 -18 -61 -31 -98 -13 -38
-24 -79 -24 -93 0 -43 -43 -22 -65 31 -7 17 -9 15 -14 -15 -5 -29 -10 -35 -31
-35 -21 0 -25 4 -22 25 8 70 7 75 -13 75 -21 0 -31 -31 -37 -115 l-3 -45 50 1
c28 0 84 3 125 6 72 4 75 5 73 29 -7 72 -2 111 22 174 34 87 39 111 28 118 -5
3 -18 -2 -30 -11z"/>
<path d="M11270 6226 c0 -8 5 -18 10 -21 6 -3 10 1 10 9 0 8 -4 18 -10 21 -5
3 -10 -1 -10 -9z"/>
<path d="M6913 6210 c-18 -7 -23 -17 -23 -45 0 -67 -22 -180 -41 -211 -10 -17
-19 -45 -19 -63 0 -18 -8 -39 -20 -51 -23 -23 -68 -36 -80 -24 -14 14 13 97
43 137 42 55 56 96 54 160 -1 59 -17 82 -17 26 0 -19 -13 -52 -34 -83 -47 -72
-82 -145 -90 -188 -8 -43 -32 -61 -79 -56 -44 4 -45 26 -3 78 19 24 37 58 41
76 3 18 16 41 29 52 28 21 89 138 81 152 -13 21 -46 10 -56 -17 -32 -89 -58
-139 -91 -173 -20 -21 -42 -56 -47 -77 -6 -21 -20 -53 -31 -71 l-20 -32 -87 5
c-49 2 -101 6 -118 7 -24 3 -31 -1 -33 -19 -3 -18 2 -23 19 -23 12 0 37 -9 55
-21 30 -18 40 -19 85 -10 27 6 54 11 59 11 20 0 9 -33 -20 -60 -16 -15 -30
-39 -30 -52 -1 -12 -9 -48 -20 -78 -11 -30 -19 -66 -20 -79 0 -31 -65 -111
-90 -111 -10 0 -22 -4 -25 -10 -13 -21 -77 -10 -121 20 -24 16 -51 27 -59 24
-8 -3 -29 1 -46 10 -30 15 -31 15 -17 -1 8 -10 18 -26 21 -35 4 -10 15 -18 26
-18 11 0 23 -5 26 -10 14 -22 106 -60 145 -60 62 0 96 23 145 100 46 72 57 77
95 44 8 -7 31 -14 50 -16 l35 -3 -2 -180 c-1 -99 -2 -190 -2 -202 -1 -19 -7
-23 -32 -23 -24 0 -42 -11 -75 -45 -38 -38 -44 -50 -44 -85 0 -58 42 -110 88
-110 59 0 67 -11 66 -82 -2 -73 -11 -156 -20 -169 -3 -5 4 -29 16 -53 27 -52
17 -80 -35 -102 -19 -7 -38 -19 -42 -26 -4 -7 -17 -18 -28 -24 -28 -15 -48
-60 -40 -92 9 -41 79 -113 117 -121 31 -7 33 -9 33 -51 0 -63 20 -60 34 5 8
35 24 69 42 89 39 45 37 81 -6 181 -34 78 -35 83 -35 214 0 122 2 140 26 200
38 94 41 140 14 203 -19 45 -23 75 -27 218 -5 166 1 226 31 307 14 37 14 47 1
83 -20 57 -53 100 -76 100 -22 0 -39 -32 -20 -38 7 -2 21 -13 32 -25 42 -46 6
-137 -55 -137 -17 0 -37 5 -44 12 -17 17 -15 85 5 119 14 24 15 32 4 53 -12
22 -11 28 14 61 34 43 54 55 95 55 23 0 33 -6 40 -25 10 -27 40 -34 40 -10 0
9 12 20 28 26 15 6 43 18 62 26 32 14 85 26 170 40 19 3 41 10 47 15 7 6 40
12 74 14 56 3 65 1 86 -22 12 -14 23 -30 23 -36 0 -6 12 -36 26 -67 15 -30 30
-80 34 -111 4 -30 17 -73 29 -95 11 -21 21 -48 21 -58 0 -19 5 -31 48 -114 12
-23 22 -51 22 -63 0 -11 13 -46 29 -78 16 -31 32 -73 36 -92 5 -22 22 -49 47
-71 32 -30 40 -46 48 -93 5 -32 19 -78 31 -104 32 -69 36 -78 74 -182 19 -52
35 -104 35 -116 0 -11 4 -24 10 -30 12 -12 80 -219 80 -244 0 -11 6 -34 14
-52 17 -39 37 -187 30 -215 -3 -11 1 -43 9 -71 9 -28 13 -52 11 -55 -3 -2 0
-17 7 -33 12 -32 28 -139 34 -224 6 -86 15 -143 27 -166 8 -17 6 -28 -11 -51
-20 -26 -21 -38 -18 -183 2 -85 9 -173 15 -195 24 -86 -18 -100 -273 -91 -383
13 -496 16 -715 18 -216 3 -235 4 -232 20 1 10 -4 31 -13 47 -18 36 -30 187
-15 196 8 5 8 11 0 20 -7 8 -9 23 -6 33 8 23 -21 53 -29 31 -3 -8 -4 -34 -4
-59 4 -124 -8 -246 -25 -273 -18 -27 -59 -37 -71 -18 -3 5 -72 10 -153 10
-273 2 -616 9 -697 14 -182 14 -211 25 -224 87 -5 28 -12 36 -34 38 -15 2 -27
7 -27 11 0 12 24 38 39 43 30 9 40 97 40 328 0 124 -1 236 0 250 0 47 15 147
56 370 14 75 102 349 127 396 13 25 18 47 14 68 -6 34 -1 46 29 62 11 6 22 24
23 40 2 16 17 69 33 118 16 50 29 110 29 135 0 37 8 56 40 103 56 78 68 115
45 132 -23 17 -14 85 20 141 54 90 57 96 46 109 -8 10 -3 20 19 39 23 21 30
36 30 64 0 22 7 45 19 57 20 22 49 91 58 139 4 18 11 26 22 25 11 -2 17 6 19
27 5 40 58 104 101 122 33 14 36 14 49 -6 8 -12 25 -21 38 -21 22 0 24 4 24
43 -1 38 -4 43 -36 59 l-36 16 -16 -29 c-15 -26 -23 -29 -65 -29 -42 0 -49 -3
-57 -25 -5 -14 -25 -39 -44 -56 -20 -17 -49 -60 -66 -97 -17 -37 -35 -74 -40
-82 -26 -40 -80 -160 -80 -178 0 -10 -13 -48 -29 -83 -17 -39 -32 -92 -36
-134 -7 -63 -50 -218 -75 -270 -26 -55 -40 -101 -40 -131 0 -41 -44 -170 -66
-195 -8 -9 -19 -44 -24 -76 -4 -33 -18 -80 -30 -104 -13 -24 -33 -94 -45 -155
-13 -61 -27 -120 -33 -130 -21 -42 -34 -92 -37 -141 -1 -31 -10 -64 -21 -80
-12 -19 -18 -42 -16 -68 2 -24 -3 -48 -12 -60 -13 -17 -18 -18 -36 -7 -12 7
-24 11 -26 9 -3 -3 -6 -29 -7 -58 -2 -48 0 -54 18 -52 32 3 55 -82 55 -200 0
-95 0 -96 -32 -120 l-31 -25 29 -25 c28 -24 29 -28 27 -108 -1 -45 -6 -86 -11
-91 -17 -17 -48 9 -81 64 -17 29 -41 65 -53 80 l-22 28 28 29 c29 30 30 61 2
61 -8 0 -27 11 -43 24 -16 14 -45 26 -63 28 -42 4 -50 27 -23 62 11 13 25 50
32 83 6 32 17 78 23 103 6 25 14 68 18 95 8 54 26 115 59 210 12 33 31 88 42
122 11 34 28 68 39 76 31 22 39 59 55 245 8 98 21 204 29 237 34 139 46 196
46 221 0 15 5 44 12 65 10 35 9 42 -15 78 -15 22 -23 43 -17 46 5 3 23 30 40
60 25 43 31 65 28 98 -3 39 -1 42 24 45 20 2 35 -4 53 -24 14 -15 25 -32 25
-39 0 -7 9 -20 20 -30 16 -15 22 -15 35 -5 8 7 15 17 15 22 0 15 -72 88 -87
88 -35 0 -34 89 0 129 8 9 19 30 25 48 11 35 98 184 162 278 36 54 51 95 34
95 -19 0 -162 -142 -192 -190 -19 -30 -43 -68 -54 -83 -13 -19 -18 -37 -14
-53 5 -17 0 -33 -14 -51 -11 -14 -20 -33 -20 -41 0 -33 -137 -243 -183 -281
-16 -13 -24 -41 -11 -41 3 0 15 11 26 25 11 14 25 25 32 25 7 0 21 9 31 20 31
34 51 16 22 -19 -8 -9 -22 -61 -32 -116 -10 -55 -24 -110 -32 -122 -7 -12 -13
-34 -13 -47 0 -14 -9 -40 -19 -57 -13 -20 -18 -42 -15 -59 5 -23 2 -28 -28
-36 -31 -9 -33 -13 -36 -57 -3 -45 -2 -47 22 -47 24 0 26 -4 28 -42 8 -182 -5
-293 -42 -372 -91 -192 -136 -339 -150 -491 -6 -66 -15 -124 -20 -128 -8 -9
-60 19 -60 32 0 12 -53 67 -75 79 -11 6 -44 15 -73 20 -51 9 -54 8 -64 -14 -8
-17 -19 -24 -41 -24 -35 0 -97 -28 -104 -48 -4 -8 6 -23 22 -37 l29 -22 -23
-12 c-12 -7 -29 -10 -37 -7 -25 9 -15 -12 16 -36 26 -21 31 -32 34 -79 2 -29
10 -70 18 -89 18 -41 22 -198 6 -217 -6 -7 -18 -13 -28 -13 -10 0 -23 -7 -30
-15 -15 -18 -69 -20 -105 -3 -19 9 -28 9 -37 0 -17 -17 -45 -15 -52 3 -8 21
-25 19 -46 -7 -16 -20 -20 -21 -43 -9 -13 7 -34 10 -46 6 -14 -4 -31 1 -51 15
-33 23 -63 21 -54 -4 7 -17 -50 -50 -72 -42 -19 7 -18 35 2 57 16 18 12 39 -7
39 -6 0 -17 -16 -24 -35 -21 -49 -51 -63 -79 -36 -15 14 -34 20 -59 19 -29 -1
-44 5 -67 27 -30 29 -31 29 -59 12 -26 -15 -30 -16 -42 -1 -16 20 -93 54 -120
54 -16 0 -19 -6 -17 -27 3 -27 1 -28 -52 -34 -30 -4 -63 -10 -73 -14 -10 -4
-29 -2 -42 5 -20 11 -26 10 -46 -9 -13 -11 -30 -21 -39 -21 -21 0 -40 -19 -40
-40 0 -9 14 -26 31 -39 24 -18 33 -20 45 -10 9 7 49 13 102 13 72 1 97 6 145
28 62 29 78 28 117 -8 14 -12 44 -27 66 -33 23 -6 52 -19 65 -29 55 -42 90
-47 263 -40 49 3 61 7 68 24 12 26 55 47 71 37 7 -5 57 -9 112 -10 55 -1 170
-6 255 -10 85 -5 167 -6 181 -2 14 4 32 3 40 -1 26 -13 261 14 291 34 15 9 37
16 50 14 20 -3 24 -11 33 -66 6 -38 16 -67 25 -72 17 -10 203 -26 450 -41 176
-10 747 -15 756 -6 3 2 22 1 42 -4 20 -5 217 -9 437 -9 220 -1 418 -5 440 -10
25 -6 54 -6 78 1 30 8 44 7 59 -3 18 -12 26 -11 60 5 47 23 80 17 120 -24 16
-16 31 -29 33 -29 2 0 5 12 7 28 3 24 8 27 41 30 52 4 75 -16 71 -66 -1 -20
-2 -44 -3 -53 -1 -9 -12 -20 -26 -23 -14 -4 -25 -13 -25 -22 0 -20 28 -74 39
-74 16 0 41 38 56 86 19 62 19 100 1 107 -12 5 -13 21 -9 80 4 56 2 79 -10 98
-8 13 -18 53 -21 89 -9 102 -23 191 -37 242 -11 38 -10 49 1 63 7 9 20 13 29
10 9 -4 59 -13 111 -21 132 -19 184 -29 198 -37 6 -5 46 -12 89 -18 190 -24
199 -27 216 -73 3 -8 8 -7 18 2 24 22 62 13 101 -25 28 -27 47 -37 75 -39 21
-1 41 -2 45 -3 3 -1 19 -12 35 -24 42 -35 113 -40 230 -16 54 11 121 21 148
22 45 2 50 0 53 -20 3 -18 12 -24 43 -29 22 -4 56 -20 76 -35 20 -16 48 -29
63 -29 15 0 33 -7 41 -16 10 -12 24 -14 78 -8 94 11 100 10 188 -30 104 -47
157 -48 241 -6 34 17 74 30 90 30 16 0 35 7 43 16 7 8 25 22 41 30 25 13 32
13 61 0 50 -22 85 -29 182 -32 50 -2 107 -7 127 -10 35 -6 37 -8 32 -33 -4
-14 -11 -30 -15 -35 -15 -17 -10 -42 14 -63 51 -47 117 -33 117 25 0 19 9 45
20 59 11 14 20 32 20 39 0 22 -63 33 -107 19 -20 -6 -23 -4 -23 17 0 25 -27
56 -67 77 -13 6 -23 19 -23 29 0 9 -4 24 -10 32 -7 12 -11 9 -19 -11 -10 -29
-41 -39 -124 -43 -34 -2 -50 1 -56 12 -5 8 -25 20 -46 28 -31 10 -45 10 -82
-1 -25 -8 -55 -23 -67 -34 -22 -20 -96 -51 -131 -55 -11 -1 -31 -6 -44 -10
-18 -6 -28 -4 -37 9 -11 15 -17 15 -49 4 -40 -15 -44 -13 -85 50 l-15 23 -27
-21 c-16 -13 -41 -21 -65 -21 -21 0 -45 -6 -52 -12 -11 -11 -12 -6 -6 26 l6
39 -59 -6 c-53 -6 -61 -4 -73 14 -11 15 -31 22 -86 29 -86 11 -123 20 -123 29
0 4 -6 16 -14 26 -13 18 -15 18 -46 -9 -39 -32 -74 -31 -78 1 -3 19 -6 21 -23
12 -17 -9 -21 -6 -30 20 l-11 31 -28 -20 c-34 -24 -46 -25 -54 -5 -5 13 -16
14 -57 9 -44 -6 -54 -4 -66 12 -10 14 -28 19 -75 20 -33 2 -65 7 -71 13 -6 6
-30 11 -53 11 -25 0 -51 7 -65 18 -13 10 -33 22 -44 27 -24 9 -162 36 -190 36
-23 0 -45 17 -45 34 0 17 31 28 44 15 14 -14 26 -12 26 5 0 8 15 37 33 63 42
62 67 141 70 227 2 62 4 70 22 70 14 0 21 -8 25 -30 4 -23 11 -30 29 -31 13
-1 28 -9 33 -18 5 -9 20 -16 33 -16 13 0 27 -5 30 -10 4 -7 12 -7 25 0 10 5
33 10 50 10 44 0 169 55 205 91 17 16 36 29 43 29 7 0 12 11 12 25 0 13 6 28
13 32 7 4 20 20 30 36 21 33 33 34 41 5 5 -19 8 -21 16 -8 5 8 10 32 10 53 0
44 21 58 49 33 22 -20 33 -11 20 18 -11 23 3 76 20 76 5 0 13 9 16 21 5 15 14
19 33 17 37 -4 132 31 139 51 13 35 34 51 55 40 27 -15 48 -4 48 24 0 14 9 36
20 50 11 14 23 39 26 56 5 21 12 31 25 31 24 0 31 13 38 79 5 42 10 57 23 59
12 2 21 -6 28 -23 15 -39 27 -23 34 47 14 122 25 157 56 173 15 8 40 35 55 60
30 52 45 53 60 7 16 -46 25 -50 25 -11 0 60 43 179 65 179 12 0 65 74 65 91 0
17 29 9 40 -11 6 -11 17 -20 24 -20 13 0 46 82 46 114 0 34 57 106 84 106 10
0 66 -89 66 -106 0 -10 -5 -32 -11 -49 -10 -26 -9 -38 4 -64 9 -18 14 -37 12
-44 -8 -20 11 -41 30 -33 14 5 16 13 10 39 -4 17 -8 75 -9 128 -1 88 -3 98
-24 116 -22 17 -23 22 -13 61 9 30 9 53 1 80 -5 20 -10 61 -10 90 0 29 -5 62
-10 73 -10 18 -12 18 -35 3 -19 -12 -23 -22 -19 -40 4 -13 1 -31 -6 -39 -9
-11 -7 -19 14 -40 31 -31 33 -59 7 -77 -10 -7 -32 -33 -49 -58 -17 -25 -58
-74 -91 -108 -34 -35 -61 -69 -61 -76 0 -8 -11 -21 -24 -29 -37 -25 -156 -148
-172 -179 -8 -15 -21 -28 -28 -28 -8 0 -20 -10 -29 -22 -8 -13 -49 -59 -91
-103 -42 -44 -79 -91 -82 -105 -9 -43 -20 -55 -50 -53 -40 3 -47 -16 -18 -50
38 -45 30 -82 -21 -95 -23 -7 -31 -16 -39 -52 -11 -45 -15 -48 -83 -66 -7 -2
-13 -15 -13 -29 0 -50 -31 -82 -66 -68 -9 3 -25 24 -35 47 l-18 40 -20 -44
c-11 -25 -83 -121 -161 -215 -77 -93 -153 -185 -168 -203 -20 -24 -42 -36 -81
-46 -30 -8 -58 -21 -63 -30 -5 -9 -17 -16 -27 -16 -23 0 -110 38 -132 57 -18
16 -15 46 7 64 8 6 14 22 14 36 0 17 9 29 32 41 34 18 87 70 196 193 162 183
275 319 308 372 14 20 28 37 33 37 5 0 24 26 42 57 18 31 51 79 73 107 38 46
69 92 144 211 14 22 33 52 44 67 10 15 18 32 18 37 0 5 16 31 36 57 37 48 84
133 84 152 0 6 6 17 13 24 7 7 26 36 41 63 16 28 38 60 50 73 11 13 32 45 46
72 14 26 36 68 49 93 27 51 23 77 -14 77 -21 0 -30 -10 -55 -62 -40 -84 -75
-144 -94 -163 -9 -9 -16 -21 -16 -26 0 -5 -9 -18 -20 -29 l-20 -20 -8 21 c-8
21 -10 20 -29 -14 -16 -26 -20 -46 -16 -74 5 -36 3 -39 -28 -48 -24 -7 -34
-15 -32 -29 1 -17 -28 -71 -128 -241 -34 -57 -85 -130 -149 -209 -106 -132
-120 -152 -186 -251 -98 -148 -147 -210 -306 -390 -55 -63 -108 -130 -108
-137 0 -5 -15 -8 -34 -8 -26 0 -36 5 -41 21 -6 16 3 32 38 68 89 91 267 306
267 322 0 9 -10 19 -22 23 -45 11 -377 207 -426 251 -27 25 -53 45 -56 45 -11
0 -6 -59 9 -97 8 -21 21 -67 30 -103 11 -43 32 -86 61 -127 60 -84 106 -177
102 -204 -2 -12 -15 -31 -30 -42 -46 -34 -76 -16 -104 62 -13 35 -28 69 -34
75 -5 5 -10 18 -10 27 0 10 -11 31 -25 46 l-24 28 -1 -42 c0 -23 4 -52 9 -65
26 -67 45 -152 51 -223 4 -44 15 -148 26 -230 23 -195 16 -228 -60 -279 -57
-39 -148 -66 -222 -66 -34 0 -67 -9 -108 -30 -32 -17 -63 -30 -67 -30 -5 0 -9
15 -9 34 0 18 -4 57 -10 86 -5 29 -12 91 -15 139 -2 47 -13 127 -23 176 -11
50 -23 137 -26 195 -7 108 -17 169 -42 255 -8 28 -18 68 -23 90 -5 22 -19 65
-31 95 -12 30 -35 98 -52 150 -16 52 -40 115 -53 140 -13 25 -38 83 -55 129
-16 46 -54 126 -83 179 -30 54 -69 140 -87 192 -18 52 -42 113 -53 135 -11 22
-26 77 -33 122 -9 60 -19 91 -38 116 -14 19 -26 45 -26 58 -1 46 -52 124 -96
146 -38 20 -119 24 -152 7 -18 -8 -36 -13 -42 -9 -13 8 -13 71 1 96 5 11 9 28
7 37 -6 28 -39 -31 -45 -80 -9 -68 -52 -100 -83 -63 -11 13 -10 22 3 51 10 19
17 39 17 44 0 6 10 20 21 31 19 19 21 29 15 81 -4 43 -2 67 9 88 16 31 20 60
8 59 -5 0 -18 -4 -30 -9z m-324 -1266 c38 -32 41 -71 6 -108 -48 -52 -105 -26
-105 49 0 36 5 47 28 64 34 26 35 26 71 -5z m1975 -444 c26 -11 49 -26 52 -35
4 -8 18 -15 34 -15 30 0 47 -14 30 -25 -18 -11 -11 -25 11 -22 34 3 32 -14 -5
-58 -31 -36 -37 -39 -55 -27 -11 6 -29 12 -40 12 -14 0 -23 13 -35 46 -9 26
-13 50 -10 55 3 5 -4 22 -15 38 -19 27 -27 51 -17 51 2 0 25 -9 50 -20z
m-1963 -201 c39 -28 40 -79 3 -114 -53 -49 -104 -22 -104 56 0 76 42 100 101
58z m1879 -300 c0 -6 9 -18 20 -27 14 -12 18 -24 14 -39 -10 -35 -40 -29 -48
8 -9 45 -7 69 4 69 6 0 10 -5 10 -11z m-3561 -333 c31 -14 84 -102 111 -183
25 -77 25 -79 -1 -154 -21 -59 -21 -63 -5 -113 9 -28 19 -69 22 -91 5 -39 4
-41 -40 -68 -39 -25 -47 -26 -68 -15 -42 23 -58 41 -58 62 -1 12 -8 39 -17 61
-8 22 -19 76 -24 120 -4 44 -15 116 -23 160 -18 92 -21 217 -6 245 11 21 20
19 109 -24z m277 -432 c-5 -13 -10 -14 -18 -6 -6 6 -8 18 -4 28 5 13 10 14 18
6 6 -6 8 -18 4 -28z m-30 -61 c-11 -11 -19 6 -11 24 8 17 8 17 12 0 3 -10 2
-21 -1 -24z"/>
<path d="M4947 3433 c-3 -5 -2 -15 2 -22 7 -10 10 -10 16 -1 4 6 3 16 -3 22
-5 5 -12 6 -15 1z"/>
<path d="M9170 6201 c0 -23 38 -91 51 -91 13 0 11 47 -2 55 -5 4 -14 18 -19
31 -11 29 -30 32 -30 5z"/>
<path d="M6401 6196 c-19 -23 -26 -86 -10 -86 8 0 19 10 24 23 6 12 20 26 33
32 26 11 29 30 6 39 -25 10 -41 7 -53 -8z"/>
<path d="M5330 6179 c-7 -12 -9 -35 -6 -51 4 -21 0 -37 -14 -55 -14 -18 -20
-41 -20 -74 0 -46 2 -49 46 -80 34 -23 49 -28 57 -20 6 6 19 11 29 11 15 0 17
5 11 28 -11 41 -8 77 11 117 16 33 14 75 -3 75 -16 0 -42 -63 -48 -119 -7 -71
-18 -84 -45 -51 -23 29 -23 57 2 113 27 61 31 120 8 125 -9 2 -22 -6 -28 -19z"/>
<path d="M7166 6160 c-7 -48 6 -80 34 -80 17 0 20 7 20 44 0 56 -8 76 -30 76
-13 0 -19 -11 -24 -40z"/>
<path d="M5611 6171 c-15 -15 -18 -26 -12 -48 4 -15 14 -28 22 -28 19 0 42 51
34 75 -8 25 -20 25 -44 1z"/>
<path d="M6485 6153 c-10 -16 -31 -41 -47 -57 -15 -17 -28 -34 -28 -39 0 -5
-11 -22 -25 -39 -25 -29 -34 -68 -15 -68 5 0 14 6 20 13 11 13 76 96 88 112 4
6 19 25 35 43 15 19 27 40 27 48 0 24 -37 15 -55 -13z"/>
<path d="M3545 6160 c-8 -13 4 -32 16 -25 12 8 12 35 0 35 -6 0 -13 -4 -16
-10z"/>
<path d="M6560 6105 c-25 -37 -54 -81 -65 -99 -11 -18 -35 -50 -52 -71 -31
-37 -42 -73 -27 -88 10 -9 64 43 80 78 8 17 31 51 52 76 80 99 92 116 94 140
2 17 -2 25 -17 27 -15 2 -32 -14 -65 -63z"/>
<path d="M7050 6142 c0 -5 9 -17 20 -27 16 -15 23 -16 33 -6 9 10 8 15 -7 27
-22 16 -46 19 -46 6z"/>
<path d="M6985 6111 c-6 -21 3 -51 16 -51 5 0 9 16 9 35 0 37 -15 47 -25 16z"/>
<path d="M5787 6084 c-14 -14 -7 -35 11 -32 9 2 17 10 17 17 0 16 -18 25 -28
15z"/>
<path d="M3747 6008 c-14 -24 -39 -60 -56 -82 -40 -50 -77 -124 -67 -133 10
-10 53 40 111 129 25 36 49 69 55 73 15 9 12 55 -4 55 -8 0 -25 -19 -39 -42z"/>
<path d="M7050 6024 c0 -9 5 -14 12 -12 18 6 21 28 4 28 -9 0 -16 -7 -16 -16z"/>
<path d="M2546 6014 c-11 -29 -6 -44 14 -44 22 0 23 3 14 38 -7 26 -19 29 -28
6z"/>
<path d="M7224 5989 c-3 -5 6 -13 21 -19 14 -5 31 -14 38 -20 6 -5 26 -21 43
-34 16 -14 47 -52 67 -86 47 -81 151 -294 167 -345 7 -22 20 -58 30 -80 10
-22 29 -67 41 -100 13 -33 47 -107 76 -164 29 -57 53 -111 53 -120 0 -8 11
-31 25 -50 13 -20 35 -75 49 -122 14 -48 37 -113 51 -144 14 -32 25 -65 25
-74 0 -9 6 -25 14 -36 7 -11 16 -37 20 -57 9 -49 22 -48 37 2 10 34 10 43 -5
59 -9 10 -21 43 -26 74 -10 65 -32 132 -60 187 -11 22 -20 46 -20 55 0 23 42
18 84 -10 36 -25 96 -34 96 -15 0 5 -21 18 -47 29 -27 12 -55 25 -63 31 -8 6
-27 15 -42 21 -50 20 -105 111 -132 219 -9 35 -25 72 -35 81 -12 11 -17 26
-14 42 5 23 -27 100 -46 111 -5 4 -19 27 -31 54 -11 26 -32 68 -46 93 -35 67
-33 83 11 75 31 -6 35 -4 35 14 0 15 -6 20 -26 20 -15 0 -38 12 -55 29 -33 33
-38 55 -11 47 10 -4 27 1 38 9 16 13 17 16 4 25 -8 5 -35 12 -59 16 -59 9
-111 40 -111 66 0 19 4 20 63 15 197 -20 282 -33 363 -58 41 -12 144 -12 144
1 0 10 -18 14 -50 12 -8 0 -22 4 -33 9 -32 17 -278 74 -387 89 -41 6 -104 19
-140 29 -81 23 -148 32 -156 20z"/>
<path d="M5767 5968 c-13 -48 50 -106 67 -62 11 28 6 45 -16 65 -30 24 -44 24
-51 -3z"/>
<path d="M10700 5968 c0 -12 4 -30 10 -38 8 -12 10 -12 15 2 9 23 3 50 -12 56
-8 2 -13 -5 -13 -20z"/>
<path d="M9290 5957 c0 -13 6 -30 14 -37 8 -6 16 -20 18 -31 4 -29 24 -18 20
11 -8 59 -52 107 -52 57z"/>
<path d="M2499 5913 c-14 -37 -8 -44 20 -22 13 11 21 25 17 34 -8 23 -25 18
-37 -12z"/>
<path d="M11720 5916 c0 -8 47 -56 54 -56 13 0 5 28 -12 43 -17 16 -42 23 -42
13z"/>
<path d="M8779 5858 c9 -25 31 -36 31 -16 0 15 -19 38 -32 38 -4 0 -4 -10 1
-22z"/>
<path d="M3865 5859 c-4 -6 -5 -13 -2 -16 7 -7 27 6 27 18 0 12 -17 12 -25 -2z"/>
<path d="M11520 5861 c0 -10 30 -24 37 -17 3 3 2 9 -2 15 -8 13 -35 15 -35 2z"/>
<path d="M1859 5837 c-28 -13 -39 -27 -49 -60 -7 -23 -37 -93 -67 -154 -84
-178 -103 -221 -103 -236 0 -8 -15 -46 -34 -83 -18 -38 -39 -86 -45 -106 -7
-21 -23 -58 -37 -83 -13 -25 -28 -71 -34 -103 -10 -55 -23 -279 -21 -354 1
-21 -5 -48 -14 -61 -11 -18 -14 -38 -9 -85 6 -50 12 -66 35 -87 16 -14 29 -34
29 -44 0 -11 5 -23 10 -26 15 -9 12 38 -5 72 -9 17 -18 67 -22 111 -5 67 -3
87 13 119 12 25 18 62 19 108 3 165 3 165 35 193 17 15 30 36 30 47 0 11 9 28
20 38 11 9 20 29 20 43 0 14 6 40 14 57 8 18 24 53 35 79 12 26 25 50 31 53 5
3 10 17 10 30 0 17 9 29 30 40 28 15 35 32 32 76 -1 9 7 19 18 22 11 3 20 14
20 24 0 10 6 28 14 39 11 15 12 30 4 72 -9 44 -8 55 6 70 9 10 16 33 16 51 0
18 9 54 21 81 29 67 24 80 -22 57z"/>
<path d="M2465 5810 c-4 -23 -4 -44 0 -48 11 -12 36 31 33 57 -5 41 -26 35
-33 -9z"/>
<path d="M9360 5796 c0 -8 5 -18 10 -21 6 -3 10 3 10 14 0 12 -4 21 -10 21 -5
0 -10 -6 -10 -14z"/>
<path d="M12210 5789 c0 -11 8 -33 19 -47 10 -15 22 -37 25 -49 9 -28 36 -30
36 -4 0 29 -51 121 -66 121 -8 0 -14 -9 -14 -21z"/>
<path d="M3055 5758 c-3 -24 -13 -60 -22 -81 -15 -35 -15 -38 2 -57 14 -16 20
-42 23 -105 3 -54 9 -85 17 -89 20 -7 27 101 8 130 -14 22 -14 42 -2 114 5 35
-2 130 -10 130 -5 0 -12 -19 -16 -42z"/>
<path d="M3810 5775 c0 -8 5 -15 10 -15 6 0 10 7 10 15 0 8 -4 15 -10 15 -5 0
-10 -7 -10 -15z"/>
<path d="M10310 5770 c0 -5 10 -29 22 -52 17 -32 24 -38 26 -24 2 10 -4 34
-14 52 -18 33 -34 44 -34 24z"/>
<path d="M7723 5758 c-27 -13 -31 -34 -5 -23 9 4 25 10 34 12 10 3 15 9 12 14
-6 11 -13 11 -41 -3z"/>
<path d="M3583 5743 c-7 -3 -13 -12 -13 -22 0 -9 -7 -26 -15 -37 -8 -10 -14
-28 -14 -39 -1 -13 10 -1 30 33 31 52 34 73 12 65z"/>
<path d="M10440 5718 c0 -16 5 -28 10 -28 13 0 13 20 0 40 -8 12 -10 9 -10
-12z"/>
<path d="M5340 5704 c0 -14 4 -23 10 -19 6 3 10 15 10 26 0 10 -4 19 -10 19
-5 0 -10 -12 -10 -26z"/>
<path d="M3736 5665 c-9 -14 -13 -25 -9 -25 10 0 36 40 30 46 -2 3 -12 -7 -21
-21z"/>
<path d="M9650 5618 c-37 -86 -36 -124 2 -78 17 19 37 120 24 120 -4 0 -16
-19 -26 -42z"/>
<path d="M6720 5621 c0 -17 41 -81 52 -81 5 0 8 3 6 8 -25 52 -43 82 -50 82
-4 0 -8 -4 -8 -9z"/>
<path d="M10090 5621 c0 -5 -12 -12 -26 -15 -20 -5 -25 -12 -22 -34 3 -23 8
-27 39 -30 35 -3 36 -2 42 34 4 20 4 41 1 46 -7 11 -34 10 -34 -1z"/>
<path d="M10496 5622 c-7 -12 4 -52 15 -52 12 0 12 47 0 55 -5 3 -12 2 -15 -3z"/>
<path d="M2054 5588 c-9 -18 -27 -41 -40 -51 -13 -10 -24 -28 -24 -39 0 -12
-12 -36 -26 -55 -20 -26 -24 -40 -19 -63 5 -24 1 -34 -19 -53 -31 -29 -35 -67
-7 -67 26 0 39 19 47 69 7 41 24 82 56 131 9 14 20 42 23 63 5 24 16 44 31 54
27 17 32 43 9 43 -8 0 -22 -14 -31 -32z"/>
<path d="M2313 5603 c-4 -10 -17 -35 -30 -55 -26 -43 -27 -48 -12 -48 20 0 56
47 61 80 5 34 -8 51 -19 23z"/>
<path d="M3480 5588 c-11 -18 -19 -41 -16 -50 2 -9 -2 -19 -10 -22 -15 -6 -20
-66 -5 -66 10 0 21 24 21 46 0 8 10 31 23 52 34 53 39 72 22 72 -9 0 -24 -15
-35 -32z"/>
<path d="M8180 5616 c0 -20 25 -66 36 -66 8 0 14 2 14 3 0 13 -33 67 -41 67
-5 0 -9 -2 -9 -4z"/>
<path d="M10400 5583 c0 -23 42 -123 51 -123 19 0 19 42 1 68 -11 15 -23 37
-26 50 -9 26 -26 30 -26 5z"/>
<path d="M12050 5553 c0 -5 4 -15 10 -23 11 -18 25 -7 17 15 -6 15 -27 21 -27
8z"/>
<path d="M10886 5532 c-8 -14 5 -50 20 -56 10 -4 14 2 14 18 0 25 -25 53 -34
38z"/>
<path d="M5660 5483 c-14 -9 -26 -17 -28 -18 -1 -1 0 -10 4 -19 5 -12 17 -15
48 -14 22 2 51 -1 64 -5 32 -12 29 16 -5 48 -32 29 -49 31 -83 8z"/>
<path d="M7163 5486 c-10 -16 -46 -36 -67 -36 -8 0 -27 -11 -42 -25 -30 -28
-79 -40 -132 -32 -27 5 -47 17 -74 48 -25 29 -41 40 -52 36 -14 -6 -15 -10 -5
-29 7 -13 20 -29 31 -36 10 -7 18 -19 18 -25 1 -15 66 -57 89 -57 28 0 105 37
126 60 11 12 33 28 50 35 29 14 85 59 85 70 0 10 -19 5 -27 -9z"/>
<path d="M9982 5480 c-6 -11 -12 -30 -12 -42 0 -21 1 -21 29 6 16 16 27 35 24
42 -7 20 -26 17 -41 -6z"/>
<path d="M9050 5461 c0 -20 17 -37 27 -28 7 8 -7 47 -18 47 -5 0 -9 -9 -9 -19z"/>
<path d="M12375 5447 c-9 -22 -2 -62 10 -60 6 1 11 14 13 29 4 32 -14 56 -23
31z"/>
<path d="M8750 5435 c0 -8 5 -15 10 -15 6 0 10 7 10 15 0 8 -4 15 -10 15 -5 0
-10 -7 -10 -15z"/>
<path d="M8550 5411 c0 -12 5 -21 10 -21 6 0 10 6 10 14 0 8 -4 18 -10 21 -5
3 -10 -3 -10 -14z"/>
<path d="M9105 5380 c-7 -21 0 -40 16 -40 12 0 12 47 0 55 -5 3 -12 -4 -16
-15z"/>
<path d="M9928 5389 c-22 -12 -24 -39 -3 -39 16 0 29 22 23 39 -2 6 -9 6 -20
0z"/>
<path d="M10480 5371 c0 -12 6 -21 16 -21 9 0 14 7 12 17 -5 25 -28 28 -28 4z"/>
<path d="M12407 5352 c-5 -7 17 -79 27 -89 13 -13 14 4 3 50 -10 44 -20 57
-30 39z"/>
<path d="M3070 5340 c0 -5 7 -10 15 -10 8 0 15 5 15 10 0 6 -7 10 -15 10 -8 0
-15 -4 -15 -10z"/>
<path d="M10406 5271 c-9 -14 2 -51 15 -51 11 0 12 30 0 49 -6 9 -11 10 -15 2z"/>
<path d="M3100 5254 c0 -9 5 -14 12 -12 18 6 21 28 4 28 -9 0 -16 -7 -16 -16z"/>
<path d="M1850 5234 c-12 -31 -2 -96 13 -91 14 4 20 117 6 117 -5 0 -14 -12
-19 -26z"/>
<path d="M3110 5171 c0 -12 6 -21 16 -21 9 0 14 7 12 17 -5 25 -28 28 -28 4z"/>
<path d="M11990 5165 c0 -8 5 -15 10 -15 6 0 10 7 10 15 0 8 -4 15 -10 15 -5
0 -10 -7 -10 -15z"/>
<path d="M10440 5086 c0 -14 5 -26 10 -26 6 0 10 9 10 19 0 11 -4 23 -10 26
-6 4 -10 -5 -10 -19z"/>
<path d="M5530 4992 c0 -16 36 -42 58 -42 29 0 39 20 17 37 -21 14 -75 18 -75
5z"/>
<path d="M10270 4864 c0 -61 13 -86 29 -56 13 24 4 77 -15 93 -12 9 -14 3 -14
-37z"/>
<path d="M10561 4876 c-1 -29 2 -37 10 -29 8 8 8 19 1 40 -10 28 -10 28 -11
-11z"/>
<path d="M10080 4865 c0 -15 4 -24 10 -20 6 3 10 12 10 20 0 8 -4 17 -10 20
-6 4 -10 -5 -10 -20z"/>
<path d="M8057 4858 c-7 -25 1 -67 16 -85 14 -18 73 -16 102 3 20 13 28 14 40
4 9 -7 18 -10 21 -7 9 8 -5 27 -20 27 -13 0 -86 37 -129 65 -23 15 -25 15 -30
-7z"/>
<path d="M3200 4830 c0 -11 5 -20 10 -20 6 0 10 9 10 20 0 11 -4 20 -10 20 -5
0 -10 -9 -10 -20z"/>
<path d="M9963 4705 c0 -33 2 -45 4 -27 2 18 2 45 0 60 -2 15 -4 0 -4 -33z"/>
<path d="M10105 4631 c3 -69 7 -127 9 -129 2 -2 7 26 11 63 9 76 1 163 -15
179 -8 8 -10 -23 -5 -113z"/>
<path d="M12474 4736 c-9 -24 16 -48 36 -36 13 8 12 13 -7 32 -20 20 -23 20
-29 4z"/>
<path d="M8187 4694 c-4 -4 5 -20 18 -36 14 -16 25 -34 25 -39 0 -5 7 -9 15
-9 20 0 19 19 -5 58 -19 30 -39 40 -53 26z"/>
<path d="M4896 4670 c-3 -8 -13 -35 -21 -59 -8 -24 -46 -85 -84 -135 -38 -50
-70 -98 -72 -106 -4 -18 57 -84 70 -76 5 3 12 17 15 31 6 22 43 102 104 221
32 62 35 86 13 114 -16 20 -21 22 -25 10z"/>
<path d="M12536 4631 c-11 -16 5 -61 21 -61 10 0 13 9 11 32 -3 32 -21 48 -32
29z"/>
<path d="M1317 4593 c-12 -11 -8 -46 11 -97 21 -59 49 -77 39 -26 -4 18 -7 54
-7 81 0 41 -3 49 -18 49 -10 0 -22 -3 -25 -7z"/>
<path d="M8237 4559 c-7 -24 18 -63 34 -53 14 8 10 30 -9 55 l-19 22 -6 -24z"/>
<path d="M8030 4510 c-6 -21 -15 -42 -21 -46 -12 -7 -3 -91 27 -251 6 -32 42
-49 62 -30 13 14 13 22 -2 75 -9 32 -16 70 -16 85 0 14 -5 29 -11 33 -7 4 -9
23 -4 53 19 126 19 121 -4 121 -15 0 -23 -10 -31 -40z"/>
<path d="M9352 4502 c-69 -77 -92 -106 -92 -112 0 -4 18 -2 40 3 31 9 40 16
42 36 2 15 13 31 28 38 31 16 50 41 43 59 -8 22 -26 16 -61 -24z"/>
<path d="M11967 4504 c-8 -8 3 -34 14 -34 11 0 12 27 0 34 -4 3 -11 3 -14 0z"/>
<path d="M12630 4475 c0 -15 4 -24 10 -20 6 3 10 12 10 20 0 8 -4 17 -10 20
-6 4 -10 -5 -10 -20z"/>
<path d="M12518 4387 c-10 -23 -18 -51 -18 -62 0 -11 -8 -25 -18 -31 -22 -14
-48 -92 -35 -105 15 -15 43 24 50 67 3 22 13 48 22 59 31 38 41 65 35 90 -9
35 -16 31 -36 -18z"/>
<path d="M10074 4345 c-7 -39 2 -58 16 -35 13 20 13 70 0 70 -5 0 -12 -16 -16
-35z"/>
<path d="M1345 4310 c-8 -13 3 -30 21 -30 18 0 18 14 0 29 -10 8 -16 9 -21 1z"/>
<path d="M10050 4221 c0 -21 -7 -52 -15 -67 -8 -16 -15 -37 -15 -47 0 -10 -6
-28 -14 -40 -8 -12 -24 -65 -37 -117 -12 -52 -28 -104 -36 -115 -7 -11 -13
-32 -13 -48 0 -16 -10 -39 -21 -51 -12 -13 -35 -61 -51 -107 -46 -129 -45
-142 2 -71 42 64 70 129 70 163 0 11 9 28 19 38 11 11 23 37 27 58 3 21 12 52
19 68 21 51 55 183 55 213 0 15 4 32 9 38 13 14 23 124 11 124 -5 0 -10 -17
-10 -39z"/>
<path d="M10828 4184 c-3 -5 -2 -20 2 -34 5 -22 7 -23 13 -7 7 19 -6 56 -15
41z"/>
<path d="M3074 4146 c-8 -22 3 -33 18 -18 9 9 9 15 0 24 -9 9 -13 7 -18 -6z"/>
<path d="M10440 4123 c0 -22 2 -25 10 -13 13 20 13 40 0 40 -5 0 -10 -12 -10
-27z"/>
<path d="M3340 4119 c0 -8 7 -24 15 -35 11 -15 14 -16 15 -3 0 8 -7 24 -15 35
-11 15 -14 16 -15 3z"/>
<path d="M12422 4114 c1 -9 9 -19 16 -22 9 -3 13 2 10 14 -1 9 -9 19 -16 22
-9 3 -13 -2 -10 -14z"/>
<path d="M8064 4085 c-10 -41 -9 -70 6 -160 7 -44 12 -100 12 -124 -1 -25 3
-50 8 -56 4 -5 10 -28 12 -49 2 -22 8 -41 15 -43 18 -6 26 58 14 103 -6 22
-10 100 -10 173 1 130 1 134 -24 159 l-26 25 -7 -28z"/>
<path d="M1544 3946 c-6 -17 11 -46 28 -46 14 0 5 53 -9 58 -7 2 -16 -4 -19
-12z"/>
<path d="M6579 3896 c-9 -20 -10 -29 -1 -38 8 -8 14 -4 22 17 15 39 -4 58 -21
21z"/>
<path d="M12406 3882 c-3 -6 -1 -14 5 -17 15 -10 25 3 12 16 -7 7 -13 7 -17 1z"/>
<path d="M9477 3784 c-10 -11 -9 -54 2 -54 14 0 22 30 13 46 -4 8 -11 11 -15
8z"/>
<path d="M6585 3728 c-2 -7 -5 -26 -7 -41 -2 -19 -13 -34 -33 -45 -16 -9 -31
-20 -33 -24 -2 -3 -16 -20 -33 -37 -16 -17 -29 -41 -29 -54 0 -23 65 -117 81
-117 17 0 69 -53 69 -71 0 -10 7 -19 15 -19 15 0 45 49 45 75 0 8 14 34 30 57
17 23 30 54 30 70 0 27 -57 128 -86 153 -6 6 -14 22 -18 38 -7 28 -23 36 -31
15z m49 -149 c36 -28 35 -72 -3 -110 -35 -34 -59 -37 -89 -9 -31 29 -31 103 0
124 31 22 60 20 92 -5z"/>
<path d="M3330 3692 c0 -5 9 -17 19 -26 11 -10 21 -27 23 -39 2 -11 9 -22 16
-25 20 -6 14 15 -15 57 -27 38 -43 51 -43 33z"/>
<path d="M10617 3568 c-3 -40 -13 -90 -21 -110 -21 -48 -21 -108 -1 -108 20 0
37 69 40 160 2 41 6 87 10 103 6 20 4 27 -7 27 -11 0 -17 -18 -21 -72z"/>
<path d="M9617 3612 c-19 -20 -23 -42 -7 -42 12 0 32 38 28 51 -2 6 -11 2 -21
-9z"/>
<path d="M9547 3483 c-4 -3 -7 -15 -7 -26 0 -16 3 -17 15 -7 8 7 15 19 15 26
0 15 -12 19 -23 7z"/>
<path d="M3397 3433 c-10 -10 -8 -71 2 -78 12 -7 17 2 25 48 5 28 4 37 -7 37
-7 0 -17 -3 -20 -7z"/>
<path d="M9701 3329 c-16 -20 -20 -34 -14 -40 12 -12 53 34 53 57 0 21 -13 16
-39 -17z"/>
<path d="M9463 3320 c-13 -12 -19 -27 -16 -39 5 -18 8 -17 39 16 19 20 34 37
34 39 0 12 -39 1 -57 -16z"/>
<path d="M2196 3192 c-3 -6 -1 -14 5 -17 15 -10 25 3 12 16 -7 7 -13 7 -17 1z"/>
<path d="M3246 3057 c-22 -18 -26 -26 -18 -46 5 -13 24 -31 42 -40 20 -10 44
-34 60 -61 33 -56 61 -62 109 -21 l33 29 -21 30 c-11 16 -32 37 -46 46 -15 10
-25 26 -25 41 0 32 -32 50 -61 35 -14 -8 -24 -8 -33 -1 -8 7 -20 4 -40 -12z"/>
<path d="M5340 2835 c0 -9 5 -15 11 -13 6 2 11 8 11 13 0 5 -5 11 -11 13 -6 2
-11 -4 -11 -13z"/>
<path d="M5692 2804 c4 -21 22 -23 26 -1 2 10 -3 17 -13 17 -10 0 -15 -6 -13
-16z"/>
<path d="M5897 2804 c-13 -13 -7 -24 14 -24 11 0 19 5 17 12 -5 14 -22 21 -31
12z"/>
<path d="M6570 2785 c0 -17 2 -18 24 -9 23 9 20 24 -4 24 -11 0 -20 -7 -20
-15z"/>
<path d="M5769 2772 c-29 -31 -30 -42 -11 -70 10 -15 22 -35 25 -44 9 -26 37
-22 69 9 36 35 35 57 -4 94 -37 33 -56 36 -79 11z"/>
<path d="M7400 2773 c-36 -14 -39 -51 -8 -93 12 -17 29 -30 38 -30 18 0 80 60
80 78 0 25 -78 57 -110 45z"/>
<path d="M7692 2764 c-29 -20 -28 -48 4 -90 32 -42 53 -43 93 -5 45 42 42 74
-9 95 -50 20 -60 20 -88 0z"/>
<path d="M5412 2758 c3 -7 12 -14 21 -16 12 -2 15 1 11 12 -7 19 -38 22 -32 4z"/>
<path d="M5490 2757 c0 -23 34 -47 50 -37 12 7 11 12 -4 29 -22 24 -46 28 -46
8z"/>
<path d="M6450 2755 c-24 -29 -1 -137 30 -134 7 0 70 80 70 89 0 17 -36 49
-61 55 -17 4 -30 1 -39 -10z"/>
<path d="M7063 2758 c-31 -15 -30 -60 3 -103 45 -59 82 -54 102 13 18 58 15
70 -18 87 -33 17 -56 18 -87 3z"/>
<path d="M6072 2728 c-18 -18 -15 -36 9 -48 15 -8 24 -8 34 0 11 9 21 8 45 -3
29 -15 30 -15 36 9 10 40 -1 56 -31 42 -19 -9 -28 -9 -37 0 -15 15 -41 15 -56
0z"/>
<path d="M6802 2684 c-27 -28 -41 -51 -38 -60 5 -13 12 -12 47 8 43 24 59 49
51 80 -6 25 -11 23 -60 -28z"/>
<path d="M5326 2674 c-12 -31 -5 -43 38 -65 49 -24 76 -20 76 11 0 13 -11 24
-34 34 -18 8 -37 19 -40 25 -10 16 -33 13 -40 -5z"/>
<path d="M7312 2633 c3 -29 16 -37 37 -24 10 7 11 13 2 30 -17 31 -43 27 -39
-6z"/>
<path d="M7820 2635 c0 -29 21 -33 44 -9 20 20 12 34 -20 34 -19 0 -24 -5 -24
-25z"/>
<path d="M5547 2632 c-13 -14 -14 -21 -5 -30 27 -27 75 -2 62 32 -8 21 -37 20
-57 -2z"/>
<path d="M5692 2638 c-17 -17 -15 -47 4 -55 23 -9 51 23 38 44 -14 22 -27 26
-42 11z"/>
<path d="M5889 2631 c-19 -15 -21 -22 -12 -32 14 -14 41 -5 50 16 10 28 -12
37 -38 16z"/>
<path d="M6866 2634 c-9 -22 1 -34 30 -34 25 0 28 7 18 34 -8 21 -40 21 -48 0z"/>
<path d="M6974 2625 c-9 -36 12 -57 54 -53 45 4 49 16 17 51 -33 34 -63 35
-71 2z"/>
<path d="M7517 2632 c-20 -22 -13 -32 20 -32 27 0 42 28 22 41 -20 12 -24 11
-42 -9z"/>
<path d="M6023 2633 c-24 -9 -13 -23 18 -23 27 0 30 2 19 15 -13 16 -17 17
-37 8z"/>
<path d="M6551 2621 c-9 -15 -7 -23 5 -36 25 -25 49 -15 49 20 0 23 -5 31 -22
33 -14 2 -26 -4 -32 -17z"/>
<path d="M7186 2625 c-20 -20 -10 -45 19 -45 27 0 49 24 41 45 -7 19 -40 19
-60 0z"/>
<path d="M7636 2631 c-8 -12 21 -34 33 -27 6 4 8 13 4 21 -6 17 -29 20 -37 6z"/>
<path d="M6218 2619 c-10 -5 -18 -15 -18 -22 0 -6 -14 -26 -31 -43 l-32 -33
34 -5 c19 -3 87 -7 152 -9 91 -3 117 0 117 10 0 17 -41 26 -120 27 l-65 1 0
39 c0 42 -10 51 -37 35z"/>
<path d="M6335 2620 c-11 -18 6 -50 25 -50 24 0 33 15 25 40 -7 21 -39 27 -50
10z"/>
<path d="M7890 2557 l-19 -33 -78 4 c-43 2 -98 4 -123 3 -25 0 -67 0 -95 1
-107 1 -215 -6 -275 -20 -24 -6 -74 -8 -110 -5 -63 6 -64 5 -50 -13 25 -31 46
-75 65 -134 20 -63 127 -335 155 -395 10 -22 25 -68 33 -103 15 -63 36 -91 69
-92 27 0 184 71 302 138 60 34 111 62 115 62 3 0 116 55 249 122 255 127 276
143 253 187 -7 11 -18 21 -25 21 -18 0 -137 81 -195 131 -25 22 -66 49 -92 60
-25 11 -63 38 -85 60 -46 48 -69 49 -94 6z m-170 -57 c0 -4 -18 -20 -41 -35
-55 -39 -65 -60 -43 -92 16 -25 17 -26 30 -8 8 10 14 22 14 26 0 5 21 20 46
35 39 23 50 25 77 17 21 -6 42 -6 61 0 20 7 35 6 48 -2 10 -6 30 -11 45 -11
16 0 48 -14 72 -30 24 -17 50 -30 57 -30 7 0 23 -13 36 -30 12 -16 30 -30 41
-30 10 0 27 -5 38 -11 20 -10 20 -11 2 -31 -21 -23 -85 -58 -107 -58 -8 0 -36
-15 -63 -33 -27 -18 -64 -39 -83 -47 -19 -7 -42 -19 -50 -26 -9 -7 -38 -23
-65 -35 -53 -24 -130 -72 -181 -113 -38 -31 -53 -32 -104 -6 -25 13 -49 18
-64 14 -30 -7 -46 18 -46 74 0 23 -8 49 -19 63 -10 13 -22 35 -26 49 -4 14
-14 33 -22 42 -10 11 -13 26 -9 42 4 18 -2 40 -21 74 -32 57 -27 82 16 82 26
0 30 4 36 40 8 45 16 50 37 18 16 -24 44 -20 55 9 17 50 70 72 80 33 7 -26 24
-25 80 4 41 23 73 25 73 6z"/>
<path d="M7507 2413 c-12 -11 -8 -53 8 -83 29 -56 52 -25 34 46 -10 40 -26 54
-42 37z"/>
<path d="M7407 2344 c-4 -4 -7 -18 -7 -31 0 -18 5 -24 18 -21 10 2 17 12 17
27 0 24 -15 37 -28 25z"/>
<path d="M7632 2313 c2 -10 10 -18 18 -18 8 0 16 8 18 18 2 12 -3 17 -18 17
-15 0 -20 -5 -18 -17z"/>
<path d="M6672 2558 c-28 -12 -69 -20 -113 -22 -73 -2 -90 -9 -71 -28 8 -8 21
-9 45 -1 22 6 41 7 51 1 18 -10 331 -7 341 4 8 7 -44 57 -58 58 -5 0 -22 -9
-38 -21 -35 -24 -73 -20 -89 11 -13 24 -13 24 -68 -2z"/>
<path d="M6030 2548 c-22 -18 -34 -20 -92 -15 -49 4 -70 2 -78 -7 -12 -16 6
-26 45 -26 13 0 31 -8 40 -17 16 -15 15 -18 -7 -34 -47 -36 -138 -44 -295 -24
-24 3 -33 0 -33 -11 0 -8 8 -14 18 -14 11 0 27 -9 37 -20 15 -17 26 -19 66
-14 43 6 48 4 64 -20 19 -29 83 -72 92 -62 4 3 -3 20 -15 36 -27 36 -27 40 -3
40 39 0 73 -85 84 -210 4 -42 -32 -32 -48 13 -18 53 -65 84 -65 44 0 -15 36
-88 47 -96 16 -12 63 -87 63 -100 0 -8 -8 -20 -17 -27 -15 -11 -16 -16 -5 -33
6 -12 12 -36 12 -55 0 -18 7 -39 15 -46 9 -7 15 -20 13 -29 -1 -9 3 -30 11
-48 9 -23 10 -36 1 -52 -11 -22 -16 -23 -285 -25 -110 -1 -412 12 -442 19 -22
5 -22 6 -7 43 38 87 43 102 50 136 5 27 18 46 52 74 25 20 58 49 73 65 15 15
39 27 52 27 14 0 30 7 37 14 25 31 109 49 192 43 72 -6 78 -5 78 13 0 48 -52
60 -173 40 -57 -9 -145 -56 -176 -94 -8 -9 -17 -16 -22 -16 -4 0 -25 -11 -45
-25 -65 -44 -83 -28 -39 37 20 30 22 37 10 42 -19 7 -19 36 1 64 12 17 14 35
9 75 -6 47 -4 55 19 80 23 25 56 37 56 19 0 -4 -9 -16 -21 -25 -24 -21 -22
-60 4 -65 11 -2 23 8 35 27 9 17 31 35 47 41 38 13 63 48 40 56 -9 4 -33 4
-54 0 -33 -5 -39 -3 -44 14 -3 11 -12 20 -21 20 -9 0 -35 9 -57 20 -22 12 -44
18 -49 15 -6 -3 -10 -23 -11 -43 0 -20 -7 -71 -15 -112 -8 -41 -19 -104 -24
-140 -6 -36 -15 -87 -20 -113 -6 -27 -10 -72 -10 -101 0 -39 -5 -57 -19 -70
-21 -19 -47 -159 -37 -200 19 -75 111 -91 531 -91 280 0 303 1 340 20 l40 20
3 115 c2 87 -1 122 -13 145 -10 21 -18 89 -26 235 -6 113 -13 236 -16 273 -7
94 0 113 42 127 37 12 46 34 19 44 -23 9 -26 8 -54 -16z"/>
<path d="M6973 2533 c-24 -9 -13 -24 15 -21 15 2 26 8 25 13 -2 12 -23 16 -40
8z"/>
<path d="M5745 2520 c3 -5 17 -10 31 -10 14 0 22 4 19 10 -3 6 -17 10 -31 10
-14 0 -22 -4 -19 -10z"/>
<path d="M5600 2320 c-7 -4 -10 -15 -7 -23 4 -11 -8 -25 -39 -45 l-44 -30 37
-4 c50 -6 63 -1 63 26 0 25 35 46 76 46 19 0 25 5 22 18 -2 13 -14 17 -49 19
-25 1 -51 -2 -59 -7z"/>
<path d="M5401 2184 c-24 -30 -27 -49 -9 -60 11 -7 78 59 78 78 0 19 -50 6
-69 -18z"/>
</g>
</svg>
