 <svg  version="1.0" xmlns="http://www.w3.org/2000/svg"  width="540.000000pt" height="272.000000pt" viewBox="0 0 540.000000 272.000000"  preserveAspectRatio="xMidYMid meet">  <g transform="translate(0.000000,272.000000) scale(0.100000,-0.100000)" fill="#942192" stroke="none"> <path d="M759 2663 c-1 -5 -1 -12 0 -16 1 -5 -3 -6 -7 -3 -5 3 -17 -3 -27 -14 -18 -20 -18 -20 16 -14 35 7 49 19 49 42 0 13 -29 17 -31 5z"/> <path d="M610 2603 c1 -37 19 -73 36 -73 11 1 54 67 54 84 0 6 -10 13 -22 13 -13 1 -33 5 -45 8 -21 5 -23 2 -23 -32z m70 -3 c0 -12 -36 -40 -43 -33 -12 11 -8 41 6 46 15 5 37 -2 37 -13z"/> <path d="M647 2603 c-4 -3 -7 -11 -7 -17 0 -6 5 -5 12 2 6 6 9 14 7 17 -3 3 -9 2 -12 -2z"/> <path d="M790 2610 c0 -5 11 -12 25 -16 14 -3 22 -10 19 -15 -3 -5 -2 -8 3 -7 4 2 9 -1 10 -6 0 -5 8 -13 17 -18 9 -5 16 -18 16 -28 0 -10 5 -22 10 -25 6 -3 10 -16 10 -28 0 -18 2 -19 10 -7 10 17 4 51 -17 93 -21 41 -103 87 -103 57z"/> <path d="M800 2545 c-11 -13 -10 -14 4 -9 9 3 23 1 31 -6 10 -8 15 -9 15 -2 0 6 -9 16 -19 21 -14 8 -22 7 -31 -4z"/> <path d="M668 2524 c-12 -11 -10 -62 3 -87 6 -12 23 -34 36 -49 l25 -27 -38 -11 c-53 -16 -114 -59 -141 -99 -28 -41 -31 -115 -7 -150 16 -22 16 -26 1 -51 -9 -15 -14 -30 -10 -34 3 -3 1 -6 -5 -6 -7 0 -12 -5 -12 -11 0 -7 -20 -53 -44 -103 -24 -50 -46 -106 -50 -124 -3 -18 -19 -49 -35 -70 -61 -77 -71 -106 -71 -200 0 -81 -3 -92 -30 -135 -111 -175 -87 -324 70 -439 38 -28 46 -30 102 -25 34 3 64 11 69 19 7 10 9 10 9 1 0 -7 5 -13 11 -13 6 0 9 7 5 15 -5 15 25 22 64 16 8 -2 47 -4 87 -6 l71 -3 -9 31 c-12 41 -12 77 0 77 14 0 25 -40 22 -79 -3 -31 -1 -33 22 -27 16 4 27 1 29 -7 4 -9 56 -13 202 -15 219 -4 200 -10 181 57 -7 22 -6 23 36 16 24 -4 60 -14 79 -22 19 -7 44 -13 55 -12 11 2 31 -1 45 -6 24 -8 54 -14 75 -16 6 0 28 3 49 7 29 5 42 3 50 -8 6 -8 40 -20 75 -26 76 -14 100 -4 169 66 59 61 95 139 95 206 -1 58 -32 145 -68 188 -28 33 -45 86 -45 139 0 35 -17 99 -29 109 -3 3 -17 25 -30 50 -13 25 -37 61 -52 80 -16 19 -51 86 -80 149 -42 92 -50 117 -40 130 20 27 41 79 41 101 0 32 -36 94 -70 123 -31 27 -149 87 -169 87 -6 0 -29 25 -53 56 -23 31 -59 67 -79 80 -42 26 -140 54 -190 54 -44 0 -139 -26 -153 -41 -8 -9 -6 -10 8 -5 17 6 35 -7 36 -25 0 -12 -76 -38 -125 -43 -28 -3 -65 -8 -83 -12 -34 -7 -72 15 -72 43 0 7 -4 13 -9 13 -6 0 -11 18 -13 41 -2 22 -6 37 -10 33z m529 -49 c12 -7 20 -15 17 -18 -3 -3 3 -3 14 0 13 3 28 -3 41 -16 12 -12 21 -18 21 -15 0 8 22 -16 55 -61 38 -51 48 -59 109 -80 91 -33 153 -85 147 -124 -1 -7 2 -10 8 -6 19 11 12 -58 -9 -98 -16 -29 -19 -50 -16 -83 5 -43 5 -45 -17 -38 -29 9 -31 10 -23 30 3 9 13 14 20 11 12 -5 13 0 4 24 -10 30 -20 39 -17 17 4 -31 -2 -37 -36 -36 -30 1 -34 4 -29 23 6 25 -2 32 -71 70 -49 27 -50 28 -30 4 20 -23 20 -23 0 -9 -34 26 -82 76 -94 99 -12 22 -45 28 -57 10 -3 -6 -15 -9 -25 -6 -10 3 -21 1 -24 -3 -9 -14 -65 -2 -83 18 -9 10 -13 12 -8 5 5 -8 4 -13 -2 -13 -6 0 -19 14 -29 30 -20 35 -29 37 -38 11 -15 -50 -86 -74 -130 -45 -17 11 -37 15 -60 11 -19 -3 -37 -1 -41 4 -3 5 -15 -3 -26 -18 -36 -47 -91 -103 -103 -103 -7 0 -17 -11 -25 -24 -8 -15 -27 -28 -51 -34 -21 -5 -36 -6 -33 -1 3 5 11 9 19 9 18 0 32 43 16 48 -9 3 -7 12 5 30 17 26 17 26 0 13 -15 -13 -19 -13 -27 0 -13 22 -12 102 3 93 7 -5 8 -3 3 5 -4 8 1 18 14 27 12 8 21 21 21 27 0 15 36 48 44 40 3 -4 6 -2 6 4 0 19 39 22 43 4 3 -11 5 -9 6 7 0 12 7 22 15 22 8 0 16 7 19 14 7 17 68 36 136 42 87 8 101 14 108 45 3 16 10 33 17 38 25 21 149 19 193 -4z m-127 -300 c36 -38 90 -49 151 -32 46 14 50 14 59 -3 8 -15 4 -18 -30 -24 -68 -11 -130 -80 -130 -145 0 -29 -1 -30 -26 -20 -15 5 -35 7 -45 4 -16 -5 -19 -1 -19 24 0 51 -30 110 -69 137 -35 23 -35 24 -10 24 16 0 38 12 55 29 16 16 32 29 35 30 3 0 16 -10 29 -24z m-226 -11 c23 -9 20 -24 -4 -24 -30 0 -91 -34 -120 -66 -55 -63 -64 -172 -20 -234 76 -106 239 -79 305 50 23 45 29 50 59 50 37 0 50 -11 59 -51 11 -44 66 -110 110 -130 57 -25 102 -24 152 6 55 32 80 82 80 158 -1 62 9 73 28 30 8 -18 21 -29 37 -31 66 -8 110 -75 110 -167 0 -109 -57 -171 -150 -162 -39 4 -49 1 -82 -28 -55 -46 -154 -76 -251 -76 l-80 0 23 -24 c17 -18 21 -31 16 -52 -4 -18 -3 -23 3 -14 7 10 22 12 65 7 l56 -7 0 -53 0 -52 60 -29 c67 -32 87 -49 70 -60 -5 -3 -10 -17 -10 -31 0 -29 -9 -30 -43 -4 -35 28 -39 25 -22 -16 19 -46 19 -65 -1 -39 -13 18 -14 17 -8 -15 3 -19 8 -41 10 -49 7 -21 -16 -41 -47 -41 -28 0 -29 2 -29 43 0 44 -17 100 -63 212 -13 33 -27 68 -31 79 -5 14 -14 17 -41 14 -19 -2 -35 -3 -35 -2 0 12 14 33 19 29 4 -2 8 2 8 10 0 8 -4 15 -9 15 -4 0 -8 -6 -8 -12 0 -8 -3 -9 -8 -3 -4 6 -19 11 -33 12 -21 1 -25 -3 -23 -20 1 -12 3 -23 3 -25 1 -1 12 5 26 14 26 17 29 16 19 -10 -7 -19 -49 -21 -68 -4 -11 10 -10 20 5 53 10 22 19 50 19 63 0 19 -5 22 -39 22 -93 0 -242 69 -277 129 -15 26 -24 31 -57 31 -45 0 -88 20 -115 55 -70 89 -2 273 104 278 21 1 44 9 51 17 17 21 16 31 -2 24 -8 -4 -15 -1 -15 5 0 6 9 11 19 11 10 0 21 7 25 15 4 12 121 105 131 105 2 0 10 -3 19 -6z m118 -73 c39 -36 42 -42 46 -102 3 -57 0 -69 -26 -110 -93 -144 -292 -103 -292 60 0 111 77 190 188 191 36 0 49 -6 84 -39z m376 -14 c20 -13 45 -26 55 -30 25 -9 57 -84 57 -135 0 -85 -60 -152 -136 -152 -55 0 -91 18 -132 64 -71 81 -61 206 21 256 43 26 89 25 135 -3z m-767 -40 c-10 -9 -11 -8 -5 6 3 10 9 15 12 12 3 -3 0 -11 -7 -18z m899 -29 c0 -19 -28 -6 -38 17 l-12 26 25 -18 c13 -10 25 -21 25 -25z m264 -331 c6 6 10 -12 7 -30 -1 -5 3 -6 8 -2 12 7 34 -32 26 -45 -3 -6 -2 -10 3 -10 13 0 32 -74 35 -132 1 -27 5 -48 8 -48 4 0 10 -7 13 -16 3 -8 2 -12 -4 -9 -18 11 -10 -12 14 -40 15 -18 25 -23 28 -14 6 18 39 -55 44 -99 3 -29 2 -32 -5 -17 -9 18 -10 18 -10 -7 -1 -22 2 -25 22 -21 21 4 21 4 4 -10 -12 -10 -14 -17 -8 -22 6 -3 8 -18 5 -33 -9 -40 -54 -113 -65 -106 -5 3 -8 1 -7 -4 2 -5 -12 -21 -30 -36 -25 -22 -31 -24 -26 -9 3 10 -2 5 -11 -10 -15 -26 -20 -28 -70 -24 -29 2 -66 11 -81 19 -17 8 -54 13 -87 13 -31 -1 -57 0 -57 2 0 2 9 21 20 43 11 22 20 45 20 52 0 7 -11 -10 -24 -39 -22 -46 -27 -51 -53 -49 -15 2 -35 6 -43 9 -8 3 -30 8 -49 10 -19 2 -36 7 -38 13 -5 16 13 35 35 37 12 1 22 5 22 10 0 5 7 7 14 4 10 -4 13 -1 10 7 -3 7 6 21 20 30 15 9 26 13 26 9 0 -4 12 15 26 42 15 28 37 60 50 72 13 12 24 27 24 33 0 5 4 10 9 10 6 0 12 -17 14 -37 2 -26 4 -18 5 24 1 34 -2 65 -8 68 -5 3 -10 -2 -10 -12 0 -11 -22 -44 -48 -74 -26 -29 -53 -67 -60 -82 -7 -17 -18 -27 -25 -24 -7 3 -22 -8 -33 -25 -21 -33 -50 -52 -64 -43 -5 3 19 39 53 81 35 41 79 105 99 142 l37 67 -20 25 c-10 14 -17 18 -14 10 3 -8 -3 -20 -15 -28 -18 -11 -22 -7 -50 46 -28 54 -29 55 -26 22 2 -19 13 -52 24 -73 19 -35 20 -77 2 -77 -5 0 -17 15 -29 33 -11 17 -21 28 -21 24 0 -5 9 -21 19 -36 12 -16 16 -32 12 -40 -9 -14 -15 -9 -46 34 -14 19 -14 19 -8 -3 l6 -23 -37 22 c-42 25 -56 46 -56 86 0 19 -10 37 -30 55 -16 14 -30 22 -30 16 0 -13 -53 -6 -57 8 -2 7 18 14 50 17 30 4 72 13 94 21 41 14 80 5 67 -16 -4 -7 -2 -8 5 -4 6 4 9 15 7 24 -4 12 5 23 27 36 17 11 35 19 40 18 4 -1 7 5 7 13 0 16 33 17 58 2 7 -5 12 -4 12 2 0 6 7 11 17 11 23 0 93 32 93 43 0 5 7 6 16 3 8 -3 12 -2 9 4 -3 5 -3 21 1 35 5 21 9 23 21 13 13 -10 13 -7 -1 25 -8 20 -11 37 -6 37 5 0 7 8 4 18 -4 9 9 -4 28 -30 20 -26 38 -45 42 -41z m-1278 -12 c-9 -14 -16 -30 -16 -37 0 -7 12 6 26 30 14 23 30 40 35 36 20 -12 27 -49 13 -69 -8 -11 -14 -26 -13 -35 0 -10 2 -11 6 -2 2 6 10 9 15 6 7 -4 8 -2 4 4 -8 14 10 52 25 52 6 0 8 -3 6 -7 -3 -5 -8 -31 -11 -59 -3 -28 -10 -64 -16 -79 -9 -25 -9 -26 5 -15 8 7 15 22 15 34 0 40 27 111 43 114 11 2 14 -3 11 -20 l-5 -23 11 23 c12 29 44 25 48 -6 2 -12 8 -20 13 -16 5 3 19 -6 30 -20 23 -29 71 -56 134 -76 77 -24 64 -32 -45 -29 l-105 4 -14 -44 c-15 -49 -7 -74 25 -79 10 -2 26 -6 34 -9 8 -3 27 -5 43 -4 26 2 27 1 27 -49 0 -43 -3 -53 -20 -57 -11 -3 -20 -12 -20 -20 0 -8 -4 -11 -10 -8 -5 3 -10 -1 -10 -9 0 -8 -6 -21 -13 -28 -19 -19 -27 -46 -16 -50 6 -2 12 -28 13 -58 0 -30 5 -61 10 -68 4 -7 6 -16 3 -18 -7 -7 -63 -8 -109 -2 -21 2 -38 1 -38 -4 0 -4 -6 -5 -14 -2 -8 3 -17 0 -21 -5 -3 -6 -11 -9 -16 -6 -5 4 -9 1 -9 -4 0 -23 -28 -9 -40 19 -7 17 -16 33 -21 36 -5 2 -2 -11 6 -30 19 -45 19 -46 -4 -46 -21 0 -37 16 -44 45 -2 11 -3 5 -1 -12 2 -21 -2 -33 -9 -33 -15 0 -54 59 -63 94 -3 14 -10 23 -15 20 -5 -3 -9 4 -9 14 0 11 -7 35 -15 53 l-14 34 -1 -33 c0 -18 12 -55 26 -83 27 -54 26 -71 -2 -48 -14 11 -45 68 -49 89 0 3 -7 16 -14 29 -21 39 -10 146 22 211 37 73 61 116 78 137 13 16 12 17 -4 4 -25 -20 -29 -9 -13 30 8 19 15 52 17 74 2 38 14 74 28 85 3 3 15 21 25 40 10 19 26 43 35 54 15 18 16 17 19 -14 2 -17 -4 -42 -12 -55z m524 -205 c-6 -10 -9 -23 -8 -27 1 -4 -15 -42 -35 -84 -20 -42 -37 -81 -37 -87 0 -15 -49 -174 -59 -193 -5 -8 -5 -35 -1 -60 9 -47 7 -55 -9 -45 -21 14 -23 72 -2 131 11 33 23 86 27 118 4 40 12 62 26 71 13 10 15 15 7 18 -9 3 -7 13 10 36 12 18 27 32 32 32 6 0 8 4 4 10 -3 5 -12 7 -20 3 -10 -3 -15 1 -15 12 0 9 4 13 10 10 6 -4 7 1 3 12 -6 15 -9 14 -17 -9 -10 -28 -35 -39 -37 -15 0 6 -4 3 -9 -8 -9 -20 -9 -20 -10 0 -1 18 -2 18 -11 -4 -9 -22 -12 -23 -72 -17 -34 4 -65 10 -68 14 -4 4 -4 24 -2 45 l5 38 42 -7 c22 -4 81 -8 129 -8 75 -1 90 2 98 17 5 9 14 17 20 17 6 0 6 -7 -1 -20z m-96 -99 c18 -1 18 -2 2 -20 -9 -10 -26 -47 -36 -81 -10 -33 -23 -67 -29 -73 -17 -21 -31 -67 -21 -67 6 0 10 7 10 15 0 8 5 15 10 15 14 0 13 -8 -9 -64 -10 -27 -20 -43 -23 -35 -4 11 -9 10 -27 -5 -11 -11 -23 -17 -25 -15 -3 2 5 35 18 71 14 44 18 64 9 56 -7 -6 -13 -17 -13 -24 0 -8 -7 -14 -15 -14 -25 0 -17 15 35 68 46 47 50 54 56 115 5 52 10 64 23 62 9 -2 25 -4 35 -4z m103 -51 c-6 -11 -18 -18 -25 -15 -8 3 -12 0 -10 -7 8 -23 42 -14 56 15 16 34 26 34 41 1 11 -26 20 -27 62 -10 13 6 23 -13 54 -91 31 -82 38 -113 40 -185 l3 -88 -85 2 -85 2 6 47 c4 26 3 50 -2 53 -10 6 -9 36 1 53 4 6 3 29 -1 51 -5 22 -6 46 -2 53 4 8 4 39 0 69 -4 39 -9 50 -14 37 -5 -10 -6 -36 -2 -57 4 -25 2 -40 -4 -40 -5 0 -10 8 -10 18 0 14 -2 14 -9 3 -6 -10 -5 -18 4 -25 15 -13 29 -96 16 -96 -5 0 -12 8 -14 18 -4 15 -5 15 -6 0 0 -9 4 -20 9 -23 14 -9 13 -58 -2 -73 -9 -9 -9 -15 0 -24 7 -7 12 -25 12 -40 l0 -28 -74 4 c-41 2 -78 6 -83 9 -13 8 2 166 20 207 8 19 23 62 33 95 24 83 41 107 65 95 16 -9 17 -14 6 -30z m513 36 c0 -25 -168 -271 -178 -261 -3 2 6 19 20 37 14 18 28 45 31 60 4 15 16 29 26 33 11 3 31 32 47 70 16 36 34 65 41 65 7 0 13 -2 13 -4z m-390 -16 c0 -5 0 -13 0 -17 0 -7 -9 -8 -40 -4 -23 3 -9 31 15 31 14 0 25 -4 25 -10z m-70 -320 c0 -5 -7 -10 -15 -10 -8 0 -15 5 -15 10 0 6 7 10 15 10 8 0 15 -4 15 -10z"/> <path d="M1235 2350 c3 -5 8 -10 11 -10 2 0 4 5 4 10 0 6 -5 10 -11 10 -5 0 -7 -4 -4 -10z"/> <path d="M639 2273 c-13 -16 -12 -17 4 -4 9 7 17 15 17 17 0 8 -8 3 -21 -13z"/> <path d="M850 2268 c-27 -10 -40 -25 -39 -48 0 -10 8 -5 22 13 l23 28 135 -1 c172 -1 205 -4 226 -21 13 -11 15 -11 9 0 -21 34 157 -36 221 -88 22 -17 33 -35 33 -52 0 -15 11 -38 27 -53 33 -34 40 -27 14 14 -10 18 -17 38 -14 45 6 17 -111 100 -184 129 -32 13 -98 29 -148 35 -109 12 -291 12 -325 -1z"/> <path d="M796 2243 c-6 -14 -5 -15 5 -6 7 7 10 15 7 18 -3 3 -9 -2 -12 -12z"/> <path d="M1168 2228 c6 -6 18 -8 28 -6 14 3 12 5 -9 10 -19 3 -25 2 -19 -4z"/> <path d="M1120 2221 c0 -5 5 -13 10 -16 6 -3 10 -2 10 4 0 5 -4 13 -10 16 -5 3 -10 2 -10 -4z"/> <path d="M686 2185 c-16 -12 -17 -15 -4 -15 9 0 18 7 22 15 7 18 6 18 -18 0z"/> <path d="M1326 2168 c3 -5 10 -6 15 -3 13 9 11 12 -6 12 -8 0 -12 -4 -9 -9z"/> <path d="M1381 2165 c0 -5 6 -21 13 -33 13 -24 13 -24 13 7 0 18 -4 27 -7 20 -6 -8 -9 -7 -13 2 -3 8 -6 10 -6 4z"/> <path d="M652 2132 c-28 -74 -24 -85 8 -23 11 22 16 42 11 45 -5 3 -13 -7 -19 -22z"/> <path d="M691 2117 c-13 -21 -12 -21 5 -5 10 10 16 20 13 22 -3 3 -11 -5 -18 -17z"/> <path d="M1438 2103 c7 -3 16 -2 19 1 4 3 -2 6 -13 5 -11 0 -14 -3 -6 -6z"/> <path d="M606 2092 c-2 -4 -1 -14 4 -22 7 -11 9 -9 7 8 -1 24 -3 26 -11 14z"/> <path d="M1550 2070 c0 -5 5 -10 11 -10 5 0 7 5 4 10 -3 6 -8 10 -11 10 -2 0 -4 -4 -4 -10z"/> <path d="M541 1906 c-15 -23 -21 -48 -20 -82 l2 -49 6 40 c14 80 65 138 73 83 2 -13 6 -18 9 -13 4 6 3 20 -2 33 -12 33 -44 27 -68 -12z"/> <path d="M1030 1870 c0 -5 5 -10 11 -10 5 0 7 5 4 10 -3 6 -8 10 -11 10 -2 0 -4 -4 -4 -10z"/> <path d="M591 1857 c-13 -16 -41 -82 -41 -97 0 -6 5 -8 10 -5 6 3 10 15 10 26 0 11 11 31 25 45 25 25 32 44 16 44 -5 0 -14 -6 -20 -13z"/> <path d="M1070 1860 c-12 -8 -11 -10 8 -10 12 0 22 5 22 10 0 13 -11 13 -30 0z"/> <path d="M1533 1845 c-3 -9 -3 -19 1 -22 3 -4 6 -1 6 5 0 7 9 12 21 12 11 0 17 -4 14 -10 -3 -5 -2 -10 3 -10 6 0 14 -21 20 -47 8 -40 10 -43 11 -17 2 47 -25 104 -49 104 -12 0 -23 -7 -27 -15z"/> <path d="M621 1774 c0 -21 4 -48 9 -59 5 -12 6 1 3 35 -7 66 -13 79 -12 24z"/> <path d="M990 1797 c18 -18 112 -47 149 -46 14 0 -5 8 -44 18 -38 9 -81 23 -95 30 -22 12 -23 12 -10 -2z"/> <path d="M1517 1787 c-3 -7 4 -19 14 -25 14 -9 19 -24 19 -52 0 -22 4 -40 9 -40 13 0 2 67 -16 103 -15 31 -19 32 -26 14z"/> <path d="M1081 1453 c0 -4 4 -17 9 -28 8 -19 9 -19 9 2 1 12 -3 25 -9 28 -5 3 -10 3 -9 -2z"/> <path d="M1133 1362 c30 -32 107 -225 107 -267 0 -22 5 -47 11 -55 7 -11 8 6 3 55 -4 39 -10 72 -15 75 -4 3 -10 17 -12 30 -5 32 -14 57 -34 94 -15 27 -15 29 0 23 27 -10 15 17 -13 30 -22 10 -23 12 -5 13 17 2 16 3 -5 10 -45 14 -55 12 -37 -8z"/> <path d="M1236 1205 c4 -8 13 -15 21 -15 13 0 13 3 3 15 -7 8 -16 15 -21 15 -5 0 -6 -7 -3 -15z"/> <path d="M788 2053 c-30 -19 -58 -77 -58 -121 0 -59 77 -131 128 -119 10 2 -1 9 -24 15 -49 14 -71 37 -85 85 -12 45 8 101 49 134 32 27 28 29 -10 6z"/> <path d="M835 2051 c-33 -14 -56 -47 -62 -90 -5 -36 -2 -44 30 -76 28 -28 43 -35 75 -35 103 0 147 130 62 188 -34 23 -70 27 -105 13z m68 -17 c11 -11 -14 -49 -40 -61 -23 -11 -25 -10 -20 7 3 11 2 20 -3 20 -4 0 -10 -12 -13 -27 -8 -42 37 -86 81 -79 33 5 44 -7 16 -18 -39 -15 -75 -6 -105 26 -24 27 -28 39 -23 63 3 16 7 30 8 31 0 0 14 10 30 22 28 21 57 28 69 16z m57 -29 c10 -12 10 -19 2 -27 -16 -16 -42 -2 -42 22 0 24 22 26 40 5z m-70 -61 c0 -9 -5 -14 -12 -12 -18 6 -21 28 -4 28 9 0 16 -7 16 -16z m58 -11 c-2 -11 -14 -19 -31 -21 -26 -3 -27 -2 -15 17 16 26 51 28 46 4z"/> <path d="M1243 2033 c-12 -2 -36 -17 -53 -33 -25 -23 -30 -36 -30 -73 0 -69 32 -102 98 -102 42 0 56 5 81 29 26 25 31 37 31 76 0 38 -5 51 -27 72 -30 27 -64 37 -100 31z m9 -40 c-5 -10 -7 -24 -4 -32 2 -8 0 -11 -6 -7 -5 3 -15 -9 -21 -26 -10 -28 -9 -35 6 -45 36 -27 76 -8 93 42 14 43 30 45 30 4 0 -40 -18 -72 -36 -65 -8 3 -12 1 -9 -4 3 -5 -6 -12 -21 -16 -37 -9 -90 21 -103 58 -6 17 -6 26 -1 23 6 -4 10 3 10 15 0 11 11 32 25 45 29 29 50 34 37 8z m65 -9 c7 -18 -14 -35 -34 -27 -7 3 -13 14 -13 24 0 24 38 26 47 3z m-37 -59 c0 -8 -7 -15 -15 -15 -16 0 -20 12 -8 23 11 12 23 8 23 -8z"/> <path d="M1361 2014 c55 -61 63 -110 26 -165 -29 -43 -63 -61 -107 -54 -26 3 -30 2 -15 -5 74 -33 155 33 155 127 0 44 -29 96 -62 114 -22 11 -22 10 3 -17z"/> <path d="M1614 1535 c24 -58 80 -148 84 -135 2 6 -3 19 -11 28 -8 9 -29 44 -46 76 -38 73 -49 85 -27 31z"/> <path d="M1526 1540 c26 -50 96 -151 102 -146 3 4 2 10 -4 14 -5 4 -22 27 -36 52 -25 43 -78 112 -62 80z"/> <path d="M1730 1475 c0 -5 5 -17 10 -25 5 -8 10 -10 10 -5 0 6 -5 17 -10 25 -5 8 -10 11 -10 5z"/> <path d="M1522 1369 c2 -7 14 -19 26 -27 19 -12 22 -12 17 -1 -7 19 -49 46 -43 28z"/> <path d="M1635 1365 c4 -11 8 -28 9 -37 0 -9 3 -15 7 -12 4 2 10 -2 13 -8 3 -7 3 -2 0 12 -4 14 -13 34 -22 45 -14 20 -14 20 -7 0z"/> <path d="M1710 1375 c0 -5 10 -21 21 -35 13 -17 17 -18 10 -5 -17 33 -31 51 -31 40z"/> <path d="M1830 1321 c0 -10 7 -24 15 -31 13 -11 13 -8 4 19 -12 35 -19 40 -19 12z"/> <path d="M1876 1283 c8 -32 12 -39 19 -31 9 8 -6 58 -16 58 -5 0 -6 -12 -3 -27z"/> <path d="M1652 1270 c0 -14 2 -19 5 -12 2 6 2 18 0 25 -3 6 -5 1 -5 -13z"/> <path d="M1855 1260 c3 -5 8 -10 11 -10 2 0 4 5 4 10 0 6 -5 10 -11 10 -5 0 -7 -4 -4 -10z"/> <path d="M1730 1235 c0 -5 5 -17 10 -25 5 -8 10 -10 10 -5 0 6 -5 17 -10 25 -5 8 -10 11 -10 5z"/> <path d="M1542 1195 c0 -16 2 -22 5 -12 2 9 2 23 0 30 -3 6 -5 -1 -5 -18z"/> <path d="M1511 1154 c0 -11 3 -14 6 -6 3 7 2 16 -1 19 -3 4 -6 -2 -5 -13z"/> <path d="M1821 1144 c0 -11 3 -14 6 -6 3 7 2 16 -1 19 -3 4 -6 -2 -5 -13z"/> <path d="M1890 1126 c0 -31 6 -34 13 -6 3 11 1 23 -4 26 -5 3 -9 -6 -9 -20z"/> <path d="M1501 1104 c0 -11 3 -14 6 -6 3 7 2 16 -1 19 -3 4 -6 -2 -5 -13z"/> <path d="M1637 1051 c-9 -16 -17 -40 -17 -53 1 -16 7 -8 20 26 23 58 21 68 -3 27z"/> <path d="M1451 1054 c0 -11 3 -14 6 -6 3 7 2 16 -1 19 -3 4 -6 -2 -5 -13z"/> <path d="M1531 1013 c-10 -26 -10 -27 4 -9 8 11 15 23 15 28 0 15 -7 8 -19 -19z"/> <path d="M1435 1019 c-4 -6 -5 -12 -2 -15 2 -3 7 2 10 11 7 17 1 20 -8 4z"/> <path d="M598 1574 c-5 -4 -8 -16 -8 -28 0 -14 3 -17 11 -9 6 6 9 19 7 28 -1 9 -6 13 -10 9z"/> <path d="M436 1508 c-25 -34 -46 -67 -46 -73 0 -7 -9 -20 -20 -30 -11 -10 -20 -24 -20 -32 0 -8 -5 -11 -10 -8 -18 11 -72 -123 -68 -166 2 -20 0 -35 -4 -33 -11 7 -10 -8 1 -24 6 -10 11 -5 19 18 7 17 15 29 20 26 4 -2 8 3 9 12 1 16 19 69 39 117 7 18 6 19 -11 5 -15 -12 -14 -5 7 30 15 25 32 44 37 43 6 -2 8 3 6 10 -3 6 11 30 30 51 19 21 32 43 29 47 -3 5 -1 9 3 9 5 0 14 14 20 30 6 17 10 30 8 30 -2 0 -24 -28 -49 -62z m14 -12 c0 -2 -8 -10 -17 -17 -16 -13 -17 -12 -4 4 13 16 21 21 21 13z m-129 -219 c-10 -9 -11 -8 -5 6 3 10 9 15 12 12 3 -3 0 -11 -7 -18z"/> <path d="M658 1526 c-10 -20 -18 -44 -18 -53 0 -17 -53 -117 -78 -145 -8 -9 -12 -23 -9 -30 3 -9 7 -7 13 7 4 11 24 45 44 75 40 61 73 141 68 166 -2 11 -9 5 -20 -20z"/> <path d="M523 1443 c4 -3 1 -13 -6 -22 -11 -14 -10 -14 5 -2 16 12 16 31 1 31 -4 0 -3 -3 0 -7z"/> <path d="M471 1424 c0 -11 3 -14 6 -6 3 7 2 16 -1 19 -3 4 -6 -2 -5 -13z"/> <path d="M396 1330 c-20 -39 -34 -70 -30 -70 5 0 3 -5 -4 -12 -7 -7 -12 -21 -11 -32 0 -19 2 -18 11 4 7 14 27 58 45 99 19 40 32 75 30 77 -2 2 -20 -28 -41 -66z"/> <path d="M501 1340 c-4 -20 0 -84 5 -89 8 -9 9 5 3 54 -3 28 -7 43 -8 35z"/> <path d="M650 1329 c-7 -11 -10 -23 -7 -25 2 -2 9 7 15 21 14 30 7 33 -8 4z"/> <path d="M505 1225 c9 -23 9 -34 3 -55 -3 -8 -3 -11 0 -6 2 4 8 2 13 -5 6 -9 8 -1 5 24 -2 21 -9 44 -16 50 -10 10 -11 8 -5 -8z"/> <path d="M527 1126 c-4 -9 -2 -16 3 -16 5 0 11 -8 13 -17 4 -15 5 -15 6 2 0 11 -3 26 -8 33 -7 11 -9 11 -14 -2z"/> <path d="M510 1085 c0 -6 7 -21 16 -33 8 -12 17 -32 19 -43 6 -29 15 -37 15 -13 -1 19 -50 108 -50 89z"/> <path d="M460 1046 c0 -8 4 -17 9 -20 5 -4 7 3 4 14 -6 23 -13 26 -13 6z"/> <path d="M745 1411 c-4 -13 -4 -25 -1 -28 3 -4 6 2 7 13 0 18 1 18 9 -1 6 -13 9 -15 9 -5 0 8 -3 21 -8 29 -7 11 -10 9 -16 -8z"/> <path d="M784 1415 c-3 -8 -4 -20 -2 -27 3 -7 7 -1 10 15 6 29 1 36 -8 12z"/> <path d="M860 1423 c0 -4 5 -15 10 -23 8 -13 10 -13 10 2 0 9 -4 20 -10 23 -5 3 -10 3 -10 -2z"/> <path d="M934 1420 c2 -16 20 -14 24 2 3 10 2 10 -6 -1 -7 -9 -11 -10 -15 -2 -4 7 -5 8 -3 1z"/> <path d="M701 1404 c0 -11 3 -14 6 -6 3 7 2 16 -1 19 -3 4 -6 -2 -5 -13z"/> <path d="M811 1411 c-7 -5 -12 -14 -10 -20 2 -6 10 -2 17 9 14 22 13 23 -7 11z"/> <path d="M742 2521 c-17 -10 -12 -53 6 -59 11 -3 11 -1 0 18 -11 18 -11 23 6 36 21 15 10 20 -12 5z"/> <path d="M801 2511 c-14 -25 -14 -31 1 -31 6 0 8 3 5 7 -4 3 1 11 10 18 11 8 12 14 5 19 -6 3 -16 -2 -21 -13z"/> <path d="M756 2502 c-3 -6 -1 -14 5 -17 15 -10 25 3 12 16 -7 7 -13 7 -17 1z"/> <path d="M2425 1455 c-30 -65 -55 -122 -55 -126 0 -25 -20 -2 -44 49 -14 31 -37 77 -50 102 -13 25 -27 53 -30 63 -9 30 -23 19 -24 -20 -1 -39 -19 -201 -28 -260 -3 -20 -11 -33 -19 -33 -8 0 -15 -4 -15 -10 0 -5 19 -10 41 -10 32 0 39 3 31 13 -11 13 -4 187 7 187 8 -1 91 -174 91 -189 0 -24 17 -9 29 25 7 20 27 66 44 103 l32 66 8 -60 c4 -33 6 -78 5 -100 l-3 -41 53 0 c28 -1 52 3 52 7 0 5 -6 9 -14 9 -19 0 -23 21 -36 190 -7 80 -14 147 -16 149 -1 2 -28 -50 -59 -114z m45 -22 c-1 -31 -3 -35 -11 -20 -6 9 -7 26 -4 37 10 30 15 24 15 -17z m-202 -1 c25 -51 24 -57 -2 -20 -27 39 -31 48 -18 48 4 0 13 -12 20 -28z m210 -67 c-3 -3 -9 2 -12 12 -6 14 -5 15 5 6 7 -7 10 -15 7 -18z m-1 -37 c-3 -8 -6 -5 -6 6 -1 11 2 17 5 13 3 -3 4 -12 1 -19z m-127 -40 c0 -6 -7 -5 -15 2 -8 7 -15 17 -15 22 0 6 7 5 15 -2 8 -7 15 -17 15 -22z"/> <path d="M2542 1549 c19 -7 37 -32 67 -92 37 -73 41 -90 41 -154 0 -58 -3 -73 -15 -73 -8 0 -15 -4 -15 -8 0 -5 27 -9 60 -9 58 0 76 9 45 21 -11 4 -15 22 -15 73 1 61 6 77 44 148 24 44 55 86 67 92 22 11 19 13 -31 12 -30 0 -49 -3 -42 -6 18 -7 15 -23 -13 -81 -14 -29 -25 -56 -25 -62 0 -26 -18 -4 -43 56 -22 52 -26 69 -16 80 10 12 0 14 -62 13 -60 0 -69 -2 -47 -10z m145 -211 c-3 -8 -6 -5 -6 6 -1 11 2 17 5 13 3 -3 4 -12 1 -19z m0 -40 c-3 -8 -6 -5 -6 6 -1 11 2 17 5 13 3 -3 4 -12 1 -19z"/> <path d="M3000 1513 c-26 -9 -50 -47 -50 -79 0 -32 18 -56 75 -100 48 -36 59 -58 43 -84 -8 -13 -24 -20 -44 -20 -26 0 -34 6 -47 32 -9 18 -13 36 -11 40 3 4 0 8 -5 8 -6 0 -11 -6 -11 -14 0 -8 -3 -21 -6 -29 -9 -24 31 -57 71 -57 53 0 84 19 94 58 14 50 4 84 -35 112 -92 67 -99 78 -62 104 33 23 46 20 68 -16 l20 -33 0 36 c0 33 -3 37 -31 43 -36 7 -48 7 -69 -1z m80 -175 c0 -12 -14 -10 -28 4 -19 19 -14 29 8 16 11 -7 20 -16 20 -20z"/> <path d="M3281 1475 c1 -39 1 -40 12 -12 9 22 17 27 44 27 l33 0 0 -130 c0 -107 -3 -131 -16 -138 -10 -6 5 -9 45 -9 45 0 57 3 46 11 -11 8 -15 41 -16 136 l-1 125 30 3 c25 3 34 -2 46 -25 l15 -28 1 40 0 40 -120 0 -120 0 1 -40z"/> <path d="M3627 1513 c-79 -3 -86 -5 -72 -19 21 -22 22 -240 1 -263 -13 -14 -6 -16 78 -19 l92 -2 12 46 c14 53 8 73 -9 26 -11 -31 -17 -35 -76 -47 l-33 -7 0 61 0 61 33 0 c25 0 37 -6 45 -22 9 -20 11 -15 11 30 1 33 -3 51 -9 47 -5 -3 -10 -13 -10 -21 0 -9 -11 -14 -35 -14 l-35 0 0 60 0 60 40 0 c33 0 42 -5 54 -27 l15 -28 1 43 c0 23 -3 41 -7 40 -5 -1 -48 -4 -96 -5z"/> <path d="M3164 1494 c23 -22 23 -252 1 -260 -30 -12 -14 -20 40 -20 52 -1 55 0 40 16 -12 13 -15 43 -15 138 0 105 2 122 18 131 13 8 3 10 -41 11 -53 0 -57 -1 -43 -16z"/> <path d="M847 893 c-10 -9 -9 -23 1 -23 5 0 9 7 9 15 0 17 -1 18 -10 8z"/> <path d="M896 884 c-9 -24 -7 -27 9 -10 17 17 19 26 6 26 -5 0 -12 -7 -15 -16z"/> <path d="M1000 893 c1 -31 70 -46 70 -16 0 17 -17 17 -24 1 -3 -10 -9 -8 -19 5 -15 18 -27 22 -27 10z"/> <path d="M1090 885 c-15 -19 -11 -25 12 -16 11 4 14 11 9 19 -6 10 -10 10 -21 -3z"/> <path d="M1145 890 c-3 -5 -1 -10 4 -10 6 0 11 5 11 10 0 6 -2 10 -4 10 -3 0 -8 -4 -11 -10z"/> <path d="M1190 890 c0 -5 5 -10 10 -10 6 0 10 5 10 10 0 6 -4 10 -10 10 -5 0 -10 -4 -10 -10z"/> <path d="M1220 880 c-6 -11 -19 -20 -30 -20 -14 0 -18 -5 -13 -17 5 -12 3 -14 -8 -8 -12 8 -12 6 0 -8 13 -16 15 -16 32 -1 23 20 58 11 40 -10 -7 -8 -26 -19 -42 -25 -27 -9 -31 -8 -40 16 -5 15 -8 32 -5 40 4 9 -3 13 -20 13 -21 0 -24 -3 -18 -22 11 -37 34 -88 39 -88 12 0 135 65 135 72 0 4 -14 15 -31 25 -20 12 -29 24 -25 35 6 24 -1 23 -14 -2z"/> <path d="M937 870 c-9 -11 -24 -20 -32 -20 -8 0 -15 -4 -15 -10 0 -5 7 -10 15 -10 8 0 15 -6 15 -14 0 -23 -54 -15 -60 8 -11 38 -26 25 -36 -31 -6 -32 -9 -61 -7 -65 2 -5 34 -8 69 -8 l66 0 -7 64 c-5 40 -3 71 4 82 6 11 11 13 11 7 0 -7 10 -13 22 -13 21 0 21 0 2 15 -25 19 -26 19 -47 -5z m-23 -92 c8 -12 13 -25 10 -30 -7 -11 -71 -10 -78 1 -13 21 7 43 46 50 4 0 14 -9 22 -21z"/> </g> </svg> 