<?xml version="1.0" standalone="no"?>
<!DOCTYPE svg PUBLIC "-//W3C//DTD SVG 20010904//EN"
 "http://www.w3.org/TR/2001/REC-SVG-20010904/DTD/svg10.dtd">
<svg version="1.0" xmlns="http://www.w3.org/2000/svg"
 width="252.000000pt" height="268.000000pt" viewBox="0 0 252.000000 268.000000"
 preserveAspectRatio="xMidYMid meet">
<metadata>
Created by potrace 1.16, written by Peter Selinger 2001-2019
</metadata>
<g transform="translate(0.000000,268.000000) scale(0.100000,-0.100000)"
fill="#000000" stroke="none">
<path d="M1113 2480 c-145 -16 -267 -52 -398 -117 -325 -161 -561 -465 -628
-808 -41 -206 -45 -254 -28 -342 5 -26 15 -82 21 -123 25 -153 108 -342 211
-480 69 -93 203 -221 289 -278 229 -150 507 -220 771 -192 607 64 1059 563
1059 1170 0 505 -323 956 -797 1113 -162 54 -346 75 -500 57z m519 -677 c24
-9 60 -29 81 -44 42 -30 60 -29 154 12 25 11 48 17 51 15 8 -8 -47 -94 -70
-110 -34 -24 -13 -31 47 -14 73 20 72 7 -4 -65 l-59 -56 -7 -73 c-22 -242
-129 -457 -298 -599 -81 -68 -172 -117 -287 -155 -78 -25 -99 -28 -240 -28
-169 -1 -230 11 -366 74 -87 40 -89 50 -7 50 38 0 96 7 128 15 67 17 207 84
200 95 -3 4 -24 12 -47 18 -67 17 -134 66 -172 124 -37 57 -37 73 -1 64 13 -3
34 -2 47 3 23 9 23 9 -7 22 -85 37 -175 156 -175 232 0 27 2 29 28 23 15 -4
40 -10 57 -13 l30 -6 -34 39 c-71 80 -97 191 -66 283 9 28 19 51 22 51 3 0 33
-26 67 -57 86 -80 191 -146 288 -181 90 -32 210 -57 232 -49 9 4 15 29 18 80
4 57 11 86 31 120 33 57 97 112 151 131 56 20 156 20 208 -1z"/>
</g>
</svg>
