<?xml version="1.0" standalone="no"?>
<!DOCTYPE svg PUBLIC "-//W3C//DTD SVG 20010904//EN"
 "http://www.w3.org/TR/2001/REC-SVG-20010904/DTD/svg10.dtd">
<svg version="1.0" xmlns="http://www.w3.org/2000/svg"
 width="268.000000pt" height="296.000000pt" viewBox="0 0 268.000000 296.000000"
 preserveAspectRatio="xMidYMid meet">
<metadata>
Created by potrace 1.16, written by Peter Selinger 2001-2019
</metadata>
<g transform="translate(0.000000,296.000000) scale(0.100000,-0.100000)"
fill="#000000" stroke="none">
<path d="M1127 2689 c-393 -68 -702 -296 -877 -646 -76 -153 -109 -287 -117
-473 -28 -680 534 -1244 1212 -1217 190 8 324 41 487 122 351 174 577 494 643
907 24 152 19 218 -27 421 -105 466 -498 818 -995 892 -129 19 -190 18 -326
-6z m715 -708 c50 -16 93 -61 112 -118 28 -82 42 -312 28 -476 -6 -78 -18
-164 -26 -191 -17 -56 -56 -101 -100 -115 -89 -29 -688 -42 -951 -21 -182 15
-218 36 -253 149 -26 84 -25 550 1 633 32 99 76 136 182 149 100 12 964 4
1007 -10z"/>
<path d="M1140 1540 c0 -115 3 -210 7 -210 7 0 194 95 313 159 41 22 75 45 75
51 0 6 -27 26 -60 44 -127 69 -318 166 -326 166 -5 0 -9 -94 -9 -210z"/>
</g>
</svg>
